M48
; DRILL file {KiCad 8.0.8} date 2025-02-25T19:51:32+0100
; FORMAT={-:-/ absolute / metric / decimal}
; #@! TF.CreationDate,2025-02-25T19:51:32+01:00
; #@! TF.GenerationSoftware,Kicad,Pcbnew,8.0.8
; #@! TF.FileFunction,Plated,1,2,PTH
FMAT,2
METRIC
; #@! TA.AperFunction,Plated,PTH,ViaDrill
T1C0.400
; #@! TA.AperFunction,Plated,PTH,ComponentDrill
T2C0.750
; #@! TA.AperFunction,Plated,PTH,ComponentDrill
T3C0.800
; #@! TA.AperFunction,Plated,PTH,ComponentDrill
T4C0.950
; #@! TA.AperFunction,Plated,PTH,ComponentDrill
T5C1.000
; #@! TA.AperFunction,Plated,PTH,ComponentDrill
T6C1.041
; #@! TA.AperFunction,Plated,PTH,ComponentDrill
T7C1.100
; #@! TA.AperFunction,Plated,PTH,ComponentDrill
T8C1.400
; #@! TA.AperFunction,Plated,PTH,ComponentDrill
T9C2.300
; #@! TA.AperFunction,Plated,PTH,ComponentDrill
T10C3.251
%
G90
G05
T1
X26.91Y-26.43
X26.91Y-28.91
X26.91Y-31.39
X26.91Y-33.87
X26.91Y-36.35
X26.91Y-38.83
X26.91Y-41.31
X26.91Y-43.79
X26.91Y-46.27
X26.91Y-48.75
X26.91Y-51.23
X26.91Y-53.71
X26.91Y-56.19
X26.91Y-58.67
X26.91Y-61.15
X26.91Y-63.63
X26.91Y-66.11
X26.91Y-68.59
X26.91Y-71.07
X26.91Y-73.55
X26.91Y-76.03
X26.91Y-78.51
X26.91Y-80.99
X26.91Y-83.47
X26.91Y-85.95
X26.91Y-88.43
X26.91Y-90.91
X26.91Y-93.39
X26.91Y-95.87
X26.91Y-98.35
X26.91Y-100.83
X26.91Y-103.31
X26.91Y-105.79
X26.91Y-108.27
X26.91Y-110.75
X29.41Y-26.43
X29.41Y-110.75
X31.38Y-66.43
X31.85Y-77.77
X31.91Y-26.43
X31.91Y-110.75
X32.88Y-51.77
X33.21Y-47.39
X33.77Y-78.83
X34.4Y-61.2
X34.41Y-26.43
X34.41Y-110.75
X34.5Y-63.3
X34.6Y-53.55
X35.37Y-80.24
X36.49Y-38.54
X36.61Y-81.41
X36.76Y-70.36
X36.86Y-51.03
X36.91Y-26.43
X36.91Y-110.75
X37.192Y-48.543
X37.69Y-83.49
X39.41Y-26.43
X39.41Y-110.75
X39.95Y-32.8
X39.95Y-57.5
X41.8Y-45.5
X41.91Y-26.43
X41.91Y-110.75
X42.31Y-95.76
X42.43Y-70.41
X42.567Y-48.532
X42.85Y-54.05
X43.45Y-31.65
X44.4Y-53.582
X44.41Y-26.43
X44.41Y-110.75
X45.42Y-92.08
X46.34Y-49.43
X46.6Y-31.65
X46.91Y-26.43
X46.91Y-110.75
X48.36Y-63.41
X48.91Y-86.59
X49.4Y-97.9
X49.41Y-26.43
X49.41Y-110.75
X50.53Y-80.07
X51.91Y-26.43
X51.91Y-110.75
X52.15Y-31.77
X52.15Y-32.85
X52.15Y-33.93
X52.15Y-35.01
X52.15Y-36.09
X52.15Y-37.17
X52.15Y-38.25
X52.15Y-39.44
X52.15Y-40.52
X52.15Y-41.6
X52.5Y-42.65
X52.75Y-30.7
X53.04Y-27.13
X53.04Y-28.21
X53.04Y-29.45
X53.107Y-43.704
X53.7Y-92.5
X53.92Y-44.443
X54.41Y-26.43
X54.41Y-110.75
X54.732Y-45.183
X55.545Y-45.922
X56.357Y-46.661
X56.67Y-35.55
X56.91Y-26.43
X56.91Y-110.75
X57.17Y-47.4
X57.82Y-37.72
X57.982Y-48.139
X58.16Y-32.28
X58.65Y-104.2
X58.795Y-48.878
X59.14Y-72.1
X59.41Y-26.43
X59.41Y-110.75
X59.607Y-49.617
X60.42Y-50.357
X61.232Y-51.096
X61.91Y-26.43
X61.91Y-110.75
X62.045Y-51.835
X62.05Y-39.4
X62.71Y-55.04
X62.857Y-52.574
X63.0Y-86.9
X63.96Y-56.75
X64.03Y-51.82
X64.41Y-26.43
X64.41Y-110.75
X64.55Y-87.9
X64.7Y-89.95
X65.19Y-51.45
X66.01Y-88.79
X66.312Y-51.45
X66.5Y-93.169
X66.91Y-26.43
X66.91Y-28.78
X66.91Y-110.75
X67.435Y-51.45
X67.5Y-66.4
X68.3Y-36.55
X68.557Y-51.45
X69.09Y-62.77
X69.4Y-34.0
X69.41Y-26.43
X69.41Y-110.75
X69.7Y-51.8
X70.45Y-52.5
X70.85Y-53.559
X70.85Y-54.616
X70.85Y-55.674
X70.85Y-56.731
X70.85Y-57.788
X70.85Y-58.845
X70.85Y-59.903
X70.85Y-60.96
X70.85Y-62.017
X70.85Y-63.075
X70.85Y-64.132
X70.85Y-65.189
X70.85Y-66.246
X70.85Y-67.304
X70.85Y-68.361
X70.85Y-69.418
X70.95Y-102.4
X71.57Y-77.89
X71.75Y-97.65
X71.91Y-26.43
X71.91Y-110.75
X72.65Y-102.2
X74.41Y-26.43
X74.41Y-110.75
X74.5Y-35.9
X76.08Y-70.76
X76.91Y-26.43
X76.91Y-110.75
X77.51Y-49.6
X77.88Y-96.4
X79.41Y-26.43
X79.41Y-110.75
X81.79Y-29.98
X81.91Y-26.43
X81.91Y-110.75
X82.03Y-51.33
X82.1Y-63.6
X84.29Y-29.98
X84.41Y-26.43
X84.41Y-110.75
X85.8Y-93.69
X86.79Y-29.98
X86.91Y-26.43
X86.91Y-110.75
X89.29Y-29.98
X89.41Y-26.43
X89.41Y-110.75
X90.81Y-37.58
X91.79Y-29.98
X91.91Y-26.43
X91.91Y-110.75
X92.93Y-53.78
X93.0Y-63.6
X94.29Y-29.98
X94.41Y-26.43
X94.41Y-110.75
X96.37Y-37.54
X96.79Y-29.98
X96.91Y-26.43
X96.91Y-110.75
X99.29Y-29.98
X99.41Y-26.43
X99.41Y-110.75
X101.79Y-29.98
X101.91Y-26.43
X101.91Y-110.75
X103.5Y-103.75
X103.702Y-53.78
X103.8Y-63.6
X104.29Y-29.98
X104.41Y-26.43
X104.41Y-110.75
X106.39Y-37.54
X106.79Y-29.98
X106.91Y-26.43
X106.91Y-110.75
X109.29Y-29.98
X109.41Y-26.43
X109.41Y-110.75
X110.25Y-101.5
X111.79Y-29.98
X111.91Y-26.43
X111.91Y-110.75
X114.29Y-29.98
X114.41Y-26.43
X114.41Y-110.75
X114.473Y-53.78
X114.5Y-63.6
X116.73Y-80.57
X116.79Y-29.98
X116.91Y-26.43
X116.91Y-110.75
X119.29Y-29.98
X119.41Y-26.43
X119.41Y-110.75
X121.79Y-29.98
X121.91Y-26.43
X121.91Y-110.75
X122.4Y-94.453
X122.5Y-95.6
X124.29Y-29.98
X124.41Y-26.43
X124.41Y-110.75
X125.245Y-53.78
X125.3Y-63.6
X126.79Y-29.98
X126.91Y-26.43
X126.91Y-110.75
X126.94Y-80.6
X129.29Y-29.98
X129.41Y-26.43
X129.41Y-110.75
X130.38Y-35.69
X131.79Y-29.98
X131.91Y-26.43
X131.91Y-110.75
X134.29Y-29.98
X134.41Y-26.43
X134.41Y-110.75
X136.017Y-53.78
X136.1Y-63.6
X136.2Y-104.35
X136.79Y-29.98
X136.91Y-26.43
X136.91Y-110.75
X137.02Y-80.69
X139.29Y-29.98
X139.41Y-26.43
X139.41Y-110.75
X140.4Y-82.3
X141.79Y-29.98
X141.91Y-26.43
X141.91Y-110.75
X144.29Y-29.98
X144.41Y-26.43
X144.41Y-110.75
X144.85Y-84.85
X145.95Y-101.35
X146.788Y-53.78
X146.79Y-29.98
X146.9Y-63.6
X146.91Y-26.43
X146.91Y-110.75
X149.29Y-29.98
X149.41Y-26.43
X149.41Y-110.75
X150.5Y-84.9
X150.6Y-88.25
X151.91Y-26.43
X151.91Y-110.75
X153.62Y-33.92
X154.41Y-26.43
X154.41Y-110.75
X156.25Y-85.0
X156.5Y-88.2
X156.91Y-26.43
X156.91Y-110.75
X157.56Y-53.78
X157.7Y-63.6
X158.59Y-103.82
X159.41Y-26.43
X159.41Y-110.75
X161.91Y-26.43
X161.91Y-110.75
X164.41Y-26.43
X164.41Y-110.75
X166.25Y-85.2
X166.85Y-100.15
X166.91Y-26.43
X166.91Y-110.75
X168.5Y-63.6
X169.41Y-26.43
X169.41Y-110.75
X170.7Y-85.2
X171.75Y-101.9
X171.91Y-26.43
X171.91Y-110.75
X174.0Y-85.1
X174.41Y-26.43
X174.41Y-110.75
X176.91Y-26.43
X176.91Y-110.75
X177.9Y-64.916
X179.41Y-26.43
X179.41Y-28.91
X179.41Y-31.39
X179.41Y-33.87
X179.41Y-36.35
X179.41Y-38.83
X179.41Y-41.31
X179.41Y-43.79
X179.41Y-46.27
X179.41Y-48.75
X179.41Y-51.23
X179.41Y-53.71
X179.41Y-56.19
X179.41Y-58.67
X179.41Y-61.15
X179.41Y-63.63
X179.41Y-66.11
X179.41Y-68.59
X179.41Y-71.07
X179.41Y-73.55
X179.41Y-76.03
X179.41Y-78.51
X179.41Y-80.99
X179.41Y-83.47
X179.41Y-85.95
X179.41Y-88.43
X179.41Y-90.91
X179.41Y-93.39
X179.41Y-95.87
X179.41Y-98.35
X179.41Y-100.83
X179.41Y-103.31
X179.41Y-105.79
X179.41Y-108.27
X179.41Y-110.75
T2
X74.595Y-53.7
X74.595Y-54.97
X74.595Y-56.24
X78.775Y-53.7
X78.775Y-54.97
X78.775Y-56.24
X85.382Y-53.7
X85.382Y-54.97
X85.382Y-56.24
X89.562Y-53.7
X89.562Y-54.97
X89.562Y-56.24
X96.168Y-53.7
X96.168Y-54.97
X96.168Y-56.24
X100.348Y-53.7
X100.348Y-54.97
X100.348Y-56.24
X106.954Y-53.7
X106.954Y-54.97
X106.954Y-56.24
X111.134Y-53.7
X111.134Y-54.97
X111.134Y-56.24
X117.741Y-53.7
X117.741Y-54.97
X117.741Y-56.24
X121.921Y-53.7
X121.921Y-54.97
X121.921Y-56.24
X128.527Y-53.7
X128.527Y-54.97
X128.527Y-56.24
X132.707Y-53.7
X132.707Y-54.97
X132.707Y-56.24
X139.314Y-53.7
X139.314Y-54.97
X139.314Y-56.24
X143.494Y-53.7
X143.494Y-54.97
X143.494Y-56.24
X150.1Y-53.7
X150.1Y-54.97
X150.1Y-56.24
X154.28Y-53.7
X154.28Y-54.97
X154.28Y-56.24
X160.886Y-53.7
X160.886Y-54.97
X160.886Y-56.24
X165.066Y-53.7
X165.066Y-54.97
X165.066Y-56.24
X171.67Y-53.7
X171.67Y-54.97
X171.67Y-56.24
X175.85Y-53.7
X175.85Y-54.97
X175.85Y-56.24
T3
X56.792Y-49.694
X58.588Y-51.491
X60.384Y-53.287
X62.18Y-44.306
X63.976Y-46.102
X65.772Y-47.898
X69.99Y-93.89
X71.26Y-91.35
X72.53Y-93.89
X73.075Y-69.391
X73.075Y-71.931
X73.075Y-74.471
X73.8Y-91.35
X75.07Y-93.89
X76.34Y-91.35
X77.61Y-93.89
X78.88Y-91.35
X80.15Y-93.89
X80.695Y-69.391
X80.695Y-71.931
X80.695Y-74.471
X81.42Y-91.35
X82.69Y-93.89
X83.862Y-69.391
X83.862Y-71.931
X83.862Y-74.471
X83.96Y-91.35
X91.482Y-69.391
X91.482Y-71.931
X91.482Y-74.471
X94.648Y-69.391
X94.648Y-71.931
X94.648Y-74.471
X102.268Y-69.391
X102.268Y-71.931
X102.268Y-74.471
X105.434Y-69.391
X105.434Y-71.931
X105.434Y-74.471
X113.054Y-69.391
X113.054Y-71.931
X113.054Y-74.471
X116.221Y-69.391
X116.221Y-71.931
X116.221Y-74.471
X123.841Y-69.391
X123.841Y-71.931
X123.841Y-74.471
X127.007Y-69.391
X127.007Y-71.931
X127.007Y-74.471
X134.627Y-69.391
X134.627Y-71.931
X134.627Y-74.471
X137.794Y-69.391
X137.794Y-71.931
X137.794Y-74.471
X145.414Y-69.391
X145.414Y-71.931
X145.414Y-74.471
X148.58Y-69.391
X148.58Y-71.931
X148.58Y-74.471
X156.2Y-69.391
X156.2Y-71.931
X156.2Y-74.471
X159.366Y-69.391
X159.366Y-71.931
X159.366Y-74.471
X166.986Y-69.391
X166.986Y-71.931
X166.986Y-74.471
X170.15Y-69.391
X170.15Y-71.931
X170.15Y-74.471
X177.77Y-69.391
X177.77Y-71.931
X177.77Y-74.471
T4
X44.85Y-96.412
X44.85Y-98.412
X47.35Y-96.412
X47.35Y-98.412
T5
X32.0Y-84.8
X33.8Y-101.32
X34.546Y-82.254
X58.95Y-91.6
X61.5Y-89.05
X66.1Y-59.0
X82.567Y-79.3
X92.678Y-79.3
X102.789Y-79.3
X112.9Y-79.3
X123.011Y-79.3
X133.122Y-79.3
X133.86Y-88.6
X136.4Y-88.6
X143.233Y-79.3
X144.3Y-88.2
X153.344Y-79.3
X163.456Y-79.3
X173.55Y-79.3
T6
X97.964Y-94.355
X99.335Y-97.2
X100.707Y-94.355
X102.078Y-97.2
X103.45Y-94.355
X104.822Y-97.2
X106.193Y-94.355
X107.565Y-97.2
X108.936Y-94.355
X150.464Y-94.355
X151.835Y-97.2
X153.207Y-94.355
X154.578Y-97.2
X155.95Y-94.355
X157.322Y-97.2
X158.693Y-94.355
X160.065Y-97.2
X161.436Y-94.355
T7
X75.12Y-42.5
X75.12Y-45.04
X75.12Y-47.58
X80.22Y-42.5
X80.22Y-45.04
X80.22Y-47.58
X85.907Y-42.5
X85.907Y-45.04
X85.907Y-47.58
X91.007Y-42.5
X91.007Y-45.04
X91.007Y-47.58
X96.693Y-42.5
X96.693Y-45.04
X96.693Y-47.58
X101.793Y-42.5
X101.793Y-45.04
X101.793Y-47.58
X107.479Y-42.5
X107.479Y-45.04
X107.479Y-47.58
X112.579Y-42.5
X112.579Y-45.04
X112.579Y-47.58
X118.266Y-42.5
X118.266Y-45.04
X118.266Y-47.58
X123.366Y-42.5
X123.366Y-45.04
X123.366Y-47.58
X129.052Y-42.5
X129.052Y-45.04
X129.052Y-47.58
X134.152Y-42.5
X134.152Y-45.04
X134.152Y-47.58
X139.839Y-42.5
X139.839Y-45.04
X139.839Y-47.58
X144.939Y-42.5
X144.939Y-45.04
X144.939Y-47.58
X150.625Y-42.5
X150.625Y-45.04
X150.625Y-47.58
X155.725Y-42.5
X155.725Y-45.04
X155.725Y-47.58
X161.411Y-42.5
X161.411Y-45.04
X161.411Y-47.58
X166.511Y-42.5
X166.511Y-45.04
X166.511Y-47.58
X172.195Y-42.5
X172.195Y-45.04
X172.195Y-47.58
X177.295Y-42.5
X177.295Y-45.04
X177.295Y-47.58
T8
X82.355Y-35.55
X87.435Y-35.55
X92.515Y-35.55
X97.595Y-35.55
X102.675Y-35.55
X107.755Y-35.55
X112.835Y-35.55
X117.915Y-35.55
X122.995Y-35.55
X135.1Y-35.55
X140.18Y-35.55
X145.26Y-35.55
X150.34Y-35.55
X155.42Y-35.55
X160.5Y-35.55
X165.58Y-35.55
X170.66Y-35.55
X175.74Y-35.55
T9
X40.1Y-101.272
X52.1Y-101.272
T10
X90.953Y-95.778
X115.947Y-95.778
X143.453Y-95.778
X168.447Y-95.778
M30
