G04 #@! TF.GenerationSoftware,KiCad,Pcbnew,8.0.8*
G04 #@! TF.CreationDate,2025-06-15T11:51:57+02:00*
G04 #@! TF.ProjectId,OverlordDimmer,4f766572-6c6f-4726-9444-696d6d65722e,rev?*
G04 #@! TF.SameCoordinates,Original*
G04 #@! TF.FileFunction,Legend,Bot*
G04 #@! TF.FilePolarity,Positive*
%FSLAX46Y46*%
G04 Gerber Fmt 4.6, Leading zero omitted, Abs format (unit mm)*
G04 Created by KiCad (PCBNEW 8.0.8) date 2025-06-15 11:51:57*
%MOMM*%
%LPD*%
G01*
G04 APERTURE LIST*
G04 Aperture macros list*
%AMRoundRect*
0 Rectangle with rounded corners*
0 $1 Rounding radius*
0 $2 $3 $4 $5 $6 $7 $8 $9 X,Y pos of 4 corners*
0 Add a 4 corners polygon primitive as box body*
4,1,4,$2,$3,$4,$5,$6,$7,$8,$9,$2,$3,0*
0 Add four circle primitives for the rounded corners*
1,1,$1+$1,$2,$3*
1,1,$1+$1,$4,$5*
1,1,$1+$1,$6,$7*
1,1,$1+$1,$8,$9*
0 Add four rect primitives between the rounded corners*
20,1,$1+$1,$2,$3,$4,$5,0*
20,1,$1+$1,$4,$5,$6,$7,0*
20,1,$1+$1,$6,$7,$8,$9,0*
20,1,$1+$1,$8,$9,$2,$3,0*%
%AMHorizOval*
0 Thick line with rounded ends*
0 $1 width*
0 $2 $3 position (X,Y) of the first rounded end (center of the circle)*
0 $4 $5 position (X,Y) of the second rounded end (center of the circle)*
0 Add line between two ends*
20,1,$1,$2,$3,$4,$5,0*
0 Add two circle primitives to create the rounded ends*
1,1,$1,$2,$3*
1,1,$1,$4,$5*%
%AMRotRect*
0 Rectangle, with rotation*
0 The origin of the aperture is its center*
0 $1 length*
0 $2 width*
0 $3 Rotation angle, in degrees counterclockwise*
0 Add horizontal line*
21,1,$1,$2,0,0,$3*%
G04 Aperture macros list end*
%ADD10C,0.150000*%
%ADD11C,0.162500*%
%ADD12C,0.400000*%
%ADD13C,0.200000*%
%ADD14C,0.101600*%
%ADD15C,0.100000*%
%ADD16R,2.000000X1.905000*%
%ADD17O,2.000000X1.905000*%
%ADD18R,1.700000X1.700000*%
%ADD19R,1.500000X1.050000*%
%ADD20O,1.500000X1.050000*%
%ADD21R,1.600000X1.600000*%
%ADD22O,1.600000X1.600000*%
%ADD23RotRect,1.700000X1.700000X45.000000*%
%ADD24RoundRect,0.550000X0.550000X0.550000X-0.550000X0.550000X-0.550000X-0.550000X0.550000X-0.550000X0*%
%ADD25C,2.200000*%
%ADD26O,1.700000X1.700000*%
%ADD27R,2.100000X2.100000*%
%ADD28C,2.100000*%
%ADD29C,1.500000*%
%ADD30RoundRect,0.250000X0.400000X-0.650000X0.400000X0.650000X-0.400000X0.650000X-0.400000X-0.650000X0*%
%ADD31O,1.300000X1.800000*%
%ADD32RotRect,1.000000X1.000000X315.000000*%
%ADD33HorizOval,1.000000X0.000000X0.000000X0.000000X0.000000X0*%
%ADD34RotRect,1.700000X1.700000X225.000000*%
%ADD35R,0.840000X0.840000*%
%ADD36C,0.840000*%
%ADD37C,1.850000*%
%ADD38C,1.562000*%
%ADD39C,4.877000*%
G04 APERTURE END LIST*
D10*
G36*
X173325819Y-108612624D02*
G01*
X173267401Y-108593109D01*
X173223824Y-108587613D01*
X173163140Y-108593548D01*
X173102330Y-108613373D01*
X173071709Y-108629818D01*
X173023092Y-108674300D01*
X172988212Y-108739163D01*
X172976748Y-108775973D01*
X172963256Y-108856665D01*
X172962331Y-108935943D01*
X172969713Y-109004585D01*
X172985801Y-109082290D01*
X173009885Y-109158897D01*
X173030383Y-109209358D01*
X173064204Y-109275958D01*
X173104813Y-109337663D01*
X173147620Y-109389511D01*
X173199635Y-109438787D01*
X173255737Y-109477533D01*
X173310286Y-109503622D01*
X173372527Y-109523201D01*
X173435531Y-109534653D01*
X173493468Y-109538011D01*
X173553753Y-109534109D01*
X173615713Y-109521076D01*
X173647634Y-109510265D01*
X173702353Y-109481535D01*
X173753708Y-109437467D01*
X173770146Y-109418430D01*
X173807613Y-109356485D01*
X173831279Y-109282124D01*
X173835505Y-109258597D01*
X173842143Y-109179456D01*
X173838720Y-109098252D01*
X173833747Y-109060077D01*
X173819004Y-108983306D01*
X173798968Y-108904681D01*
X173793886Y-108886957D01*
X173767398Y-108809105D01*
X173736761Y-108734992D01*
X173702531Y-108661113D01*
X173698339Y-108652484D01*
X173662362Y-108581312D01*
X173627396Y-108516391D01*
X173589176Y-108449002D01*
X173547702Y-108379145D01*
X173528932Y-108348451D01*
X173489931Y-108286388D01*
X173449426Y-108223887D01*
X173407417Y-108160945D01*
X173363903Y-108097564D01*
X173318885Y-108033744D01*
X173303545Y-108012372D01*
X173009867Y-108012372D01*
X173053231Y-108068241D01*
X173099091Y-108127702D01*
X173144076Y-108186620D01*
X173188438Y-108245830D01*
X173206531Y-108270684D01*
X173250472Y-108333088D01*
X173293268Y-108396713D01*
X173334919Y-108461559D01*
X173343112Y-108474675D01*
X173382090Y-108539117D01*
X173421064Y-108607094D01*
X173455952Y-108672024D01*
X173490010Y-108740314D01*
X173522907Y-108812311D01*
X173538897Y-108850223D01*
X173565480Y-108921812D01*
X173574068Y-108950265D01*
X173592114Y-109027125D01*
X173595757Y-109047962D01*
X173601582Y-109131713D01*
X173587541Y-109212197D01*
X173574654Y-109241012D01*
X173528269Y-109292623D01*
X173468707Y-109312285D01*
X173453900Y-109312917D01*
X173392854Y-109302439D01*
X173343112Y-109275792D01*
X173294469Y-109228957D01*
X173260753Y-109175359D01*
X173233140Y-109105253D01*
X173218255Y-109039365D01*
X173213607Y-108957940D01*
X173219720Y-108916266D01*
X173256485Y-108853032D01*
X173276873Y-108838499D01*
X173336133Y-108816334D01*
X173374766Y-108812707D01*
X173433512Y-108826776D01*
X173457124Y-108837718D01*
X173419824Y-108775152D01*
X173379194Y-108706349D01*
X173343039Y-108643838D01*
X173325819Y-108612624D01*
G37*
D11*
G36*
X177189490Y-107216000D02*
G01*
X177154958Y-107064902D01*
X177120385Y-106907045D01*
X177085770Y-106742428D01*
X177051114Y-106571052D01*
X177016417Y-106392916D01*
X177004842Y-106332036D01*
X176799678Y-105255023D01*
X176766199Y-105075271D01*
X176734637Y-104901893D01*
X176704993Y-104734888D01*
X176677267Y-104574257D01*
X176651458Y-104419998D01*
X176623019Y-104243301D01*
X176618548Y-104214743D01*
X176496974Y-104217413D01*
X176379357Y-104219062D01*
X176301423Y-104219433D01*
X176182428Y-104218260D01*
X176063946Y-104215842D01*
X176018883Y-104214743D01*
X175972378Y-104386403D01*
X175928397Y-104543642D01*
X175879665Y-104713780D01*
X175826181Y-104896817D01*
X175779973Y-105052535D01*
X175730725Y-105216507D01*
X175691793Y-105344904D01*
X175640099Y-105515446D01*
X175591116Y-105678491D01*
X175544844Y-105834037D01*
X175501284Y-105982085D01*
X175450645Y-106156600D01*
X175404243Y-106319399D01*
X175362077Y-106470483D01*
X175354152Y-106499293D01*
X174976650Y-104458595D01*
X174950607Y-104303234D01*
X174936789Y-104214743D01*
X174818996Y-104217949D01*
X174708764Y-104219433D01*
X174588469Y-104217216D01*
X174482498Y-104214743D01*
X174647801Y-105021331D01*
X174913342Y-106402378D01*
X175059302Y-107216000D01*
X175177756Y-107213142D01*
X175298659Y-107211475D01*
X175344773Y-107211310D01*
X175467138Y-107212482D01*
X175585098Y-107214649D01*
X175647829Y-107216000D01*
X175687452Y-107064328D01*
X175725205Y-106926034D01*
X175772164Y-106773700D01*
X175819498Y-106624028D01*
X175871435Y-106461489D01*
X175914542Y-106327346D01*
X175964844Y-106167563D01*
X176013487Y-106010521D01*
X176058618Y-105863115D01*
X176106923Y-105703893D01*
X176149602Y-105562182D01*
X176193223Y-105416297D01*
X176239367Y-105259920D01*
X176286549Y-105097193D01*
X176324284Y-104964276D01*
X176353657Y-105119330D01*
X176384054Y-105281244D01*
X176419832Y-105472887D01*
X176452329Y-105647606D01*
X176488269Y-105841352D01*
X176517484Y-105999147D01*
X176548637Y-106167645D01*
X176570481Y-106285923D01*
X176598357Y-106438642D01*
X176627469Y-106601362D01*
X176657818Y-106774085D01*
X176689403Y-106956809D01*
X176716668Y-107116719D01*
X176733440Y-107216000D01*
X176856512Y-107212634D01*
X176952086Y-107211310D01*
X177069552Y-107213142D01*
X177189490Y-107216000D01*
G37*
D10*
G36*
X174132023Y-106648897D02*
G01*
X174161332Y-106790314D01*
X174393607Y-106790314D01*
X174572149Y-107648583D01*
X174339874Y-107648583D01*
X174369183Y-107790000D01*
X175051598Y-107790000D01*
X175022288Y-107648583D01*
X174787083Y-107648583D01*
X174608541Y-106790314D01*
X174843747Y-106790314D01*
X174814438Y-106648897D01*
X174132023Y-106648897D01*
G37*
G36*
X173534849Y-106883370D02*
G01*
X173484680Y-106885801D01*
X173434822Y-106895289D01*
X173432267Y-106896071D01*
X173389391Y-106919484D01*
X173371451Y-106940767D01*
X173354180Y-106986480D01*
X173350202Y-107026985D01*
X173352233Y-107075794D01*
X173359474Y-107128934D01*
X173366078Y-107163517D01*
X173496259Y-107790000D01*
X173706796Y-107790000D01*
X173579546Y-107177927D01*
X173570904Y-107129491D01*
X173568066Y-107102700D01*
X173572951Y-107056050D01*
X173593956Y-107031870D01*
X173630348Y-107024787D01*
X173842351Y-107024787D01*
X174001353Y-107790000D01*
X174214822Y-107790000D01*
X174026266Y-106883370D01*
X173534849Y-106883370D01*
G37*
G36*
X172669009Y-106883370D02*
G01*
X172937187Y-106883370D01*
X172948426Y-106883527D01*
X172997754Y-106888402D01*
X173044898Y-106901200D01*
X173088923Y-106923914D01*
X173127208Y-106956887D01*
X173138043Y-106969337D01*
X173165906Y-107009969D01*
X173188513Y-107055317D01*
X173205192Y-107099540D01*
X173219966Y-107149592D01*
X173231744Y-107200153D01*
X173288408Y-107473217D01*
X173296072Y-107514066D01*
X173302919Y-107565249D01*
X173305505Y-107618297D01*
X173300686Y-107669795D01*
X173285233Y-107716482D01*
X173266052Y-107744094D01*
X173226127Y-107772414D01*
X173223618Y-107773496D01*
X173174770Y-107786634D01*
X173125743Y-107790000D01*
X172644096Y-107790000D01*
X172485044Y-107024787D01*
X172698562Y-107024787D01*
X172828255Y-107648583D01*
X172960146Y-107648583D01*
X172985075Y-107647965D01*
X173035617Y-107640767D01*
X173039123Y-107639716D01*
X173075917Y-107606085D01*
X173083110Y-107578135D01*
X173083977Y-107529148D01*
X173080328Y-107494339D01*
X173072359Y-107443689D01*
X173062728Y-107394082D01*
X173018032Y-107178904D01*
X173011830Y-107151417D01*
X172997515Y-107102700D01*
X172996129Y-107099023D01*
X172972358Y-107055317D01*
X172940607Y-107031137D01*
X172899330Y-107024787D01*
X172698562Y-107024787D01*
X172485044Y-107024787D01*
X172397166Y-106602002D01*
X172610635Y-106602002D01*
X172669009Y-106883370D01*
G37*
G36*
X172105785Y-106883370D02*
G01*
X172233035Y-107494710D01*
X172241630Y-107542847D01*
X172245003Y-107572379D01*
X172241828Y-107619030D01*
X172221067Y-107642233D01*
X172181011Y-107648583D01*
X171967787Y-107648583D01*
X171808541Y-106883370D01*
X171595317Y-106883370D01*
X171783872Y-107790000D01*
X172279197Y-107790000D01*
X172329226Y-107787428D01*
X172378536Y-107777393D01*
X172381046Y-107776566D01*
X172425200Y-107751046D01*
X172441863Y-107731381D01*
X172459745Y-107685723D01*
X172463845Y-107645652D01*
X172461333Y-107593493D01*
X172453823Y-107540599D01*
X172448213Y-107511318D01*
X172317543Y-106883370D01*
X172105785Y-106883370D01*
G37*
G36*
X170790048Y-106883370D02*
G01*
X170819602Y-107024787D01*
X171241898Y-107024787D01*
X171289571Y-107038525D01*
X171302714Y-107049211D01*
X171328989Y-107093671D01*
X171340083Y-107133719D01*
X171345074Y-107186495D01*
X171324792Y-107232234D01*
X171287083Y-107242896D01*
X170996922Y-107242896D01*
X170946659Y-107250128D01*
X170918520Y-107263412D01*
X170881778Y-107298097D01*
X170869427Y-107318367D01*
X170853074Y-107366471D01*
X170848667Y-107400188D01*
X170848972Y-107449281D01*
X170856024Y-107498854D01*
X170856727Y-107502281D01*
X170868782Y-107551417D01*
X170886233Y-107603294D01*
X170907331Y-107649304D01*
X170935907Y-107694703D01*
X170951981Y-107714528D01*
X170992036Y-107751011D01*
X171037462Y-107775554D01*
X171088258Y-107788157D01*
X171118799Y-107790000D01*
X171633419Y-107790000D01*
X171604110Y-107648583D01*
X171134919Y-107648583D01*
X171089751Y-107626518D01*
X171085582Y-107621716D01*
X171061902Y-107576493D01*
X171051632Y-107538185D01*
X171045465Y-107489337D01*
X171050900Y-107456120D01*
X171089490Y-107430474D01*
X171390886Y-107430474D01*
X171441332Y-107423905D01*
X171473196Y-107409713D01*
X171509209Y-107375097D01*
X171522533Y-107351339D01*
X171536799Y-107302142D01*
X171540607Y-107262923D01*
X171538921Y-107213121D01*
X171531829Y-107163539D01*
X171529616Y-107152526D01*
X171516230Y-107099815D01*
X171498941Y-107052388D01*
X171474402Y-107004654D01*
X171444765Y-106963819D01*
X171436559Y-106954689D01*
X171395493Y-106920214D01*
X171347859Y-106897021D01*
X171300003Y-106885877D01*
X171260704Y-106883370D01*
X170790048Y-106883370D01*
G37*
G36*
X170125952Y-106648897D02*
G01*
X170174556Y-106883370D01*
X169897829Y-106883370D01*
X169927383Y-107024787D01*
X170204110Y-107024787D01*
X170306692Y-107518401D01*
X170315538Y-107566652D01*
X170318415Y-107591430D01*
X170307424Y-107630265D01*
X170263705Y-107645896D01*
X170212484Y-107648265D01*
X170176755Y-107648583D01*
X170206064Y-107790000D01*
X170349190Y-107790000D01*
X170400718Y-107788266D01*
X170451963Y-107781374D01*
X170460076Y-107779497D01*
X170505742Y-107758450D01*
X170522358Y-107741884D01*
X170541217Y-107695591D01*
X170543607Y-107668367D01*
X170540631Y-107618822D01*
X170532494Y-107566853D01*
X170528953Y-107549176D01*
X170420020Y-107024787D01*
X170625184Y-107024787D01*
X170595631Y-106883370D01*
X170390467Y-106883370D01*
X170341863Y-106648897D01*
X170125952Y-106648897D01*
G37*
G36*
X169089141Y-107024787D02*
G01*
X169411053Y-107024787D01*
X169461568Y-107027436D01*
X169477487Y-107029916D01*
X169521939Y-107051898D01*
X169548654Y-107094106D01*
X169551737Y-107102212D01*
X169565863Y-107149923D01*
X169575429Y-107192093D01*
X169699748Y-107790000D01*
X169912728Y-107790000D01*
X169781570Y-107159120D01*
X169768169Y-107107366D01*
X169750681Y-107061278D01*
X169725112Y-107014672D01*
X169693980Y-106975780D01*
X169662868Y-106948583D01*
X169614874Y-106920052D01*
X169566668Y-106901775D01*
X169512666Y-106889738D01*
X169461764Y-106884389D01*
X169425464Y-106883370D01*
X169059588Y-106883370D01*
X169089141Y-107024787D01*
G37*
G36*
X168351528Y-106602002D02*
G01*
X168387187Y-106773949D01*
X168639002Y-106773949D01*
X168603342Y-106602002D01*
X168351528Y-106602002D01*
G37*
G36*
X168428953Y-106883370D02*
G01*
X168588199Y-107648583D01*
X168348841Y-107648583D01*
X168378150Y-107790000D01*
X169074487Y-107790000D01*
X169045177Y-107648583D01*
X168801667Y-107648583D01*
X168671974Y-107024787D01*
X168915484Y-107024787D01*
X168885931Y-106883370D01*
X168428953Y-106883370D01*
G37*
G36*
X167822470Y-106883431D02*
G01*
X167872018Y-106887278D01*
X167921660Y-106899002D01*
X167962239Y-106917667D01*
X168002260Y-106949071D01*
X168008678Y-106955768D01*
X168038187Y-106995044D01*
X168061856Y-107040418D01*
X168078060Y-107082237D01*
X168092417Y-107130117D01*
X168103866Y-107178904D01*
X168169078Y-107493000D01*
X168176589Y-107533087D01*
X168183127Y-107582722D01*
X168185198Y-107633196D01*
X168180316Y-107678402D01*
X168163461Y-107724298D01*
X168145578Y-107747631D01*
X168103866Y-107774612D01*
X168101372Y-107775559D01*
X168052629Y-107787054D01*
X168003482Y-107790000D01*
X167585338Y-107790000D01*
X167556029Y-107648583D01*
X167877941Y-107648583D01*
X167879899Y-107648578D01*
X167929720Y-107643698D01*
X167959274Y-107622693D01*
X167966601Y-107575799D01*
X167963469Y-107545131D01*
X167954633Y-107494710D01*
X167938025Y-107414842D01*
X167620020Y-107414842D01*
X167608488Y-107414605D01*
X167554716Y-107406290D01*
X167507432Y-107386097D01*
X167466636Y-107354026D01*
X167459217Y-107346084D01*
X167428855Y-107302696D01*
X167406018Y-107253618D01*
X167389241Y-107202561D01*
X167377243Y-107152770D01*
X167375477Y-107144067D01*
X167367623Y-107094962D01*
X167366919Y-107083893D01*
X167560181Y-107083893D01*
X167562361Y-107103521D01*
X167571172Y-107153014D01*
X167576431Y-107176883D01*
X167590223Y-107225066D01*
X167612693Y-107266587D01*
X167642002Y-107285394D01*
X167680593Y-107289790D01*
X167911891Y-107289790D01*
X167888932Y-107179148D01*
X167883107Y-107152410D01*
X167870125Y-107104166D01*
X167869511Y-107102315D01*
X167847166Y-107057027D01*
X167815903Y-107032114D01*
X167773161Y-107024787D01*
X167625638Y-107024787D01*
X167586071Y-107028450D01*
X167564577Y-107045303D01*
X167560181Y-107083893D01*
X167366919Y-107083893D01*
X167364407Y-107044424D01*
X167368574Y-106995568D01*
X167385547Y-106947850D01*
X167413697Y-106913847D01*
X167460134Y-106889667D01*
X167509378Y-106883370D01*
X167814926Y-106883370D01*
X167822470Y-106883431D01*
G37*
G36*
X166515799Y-106883370D02*
G01*
X166545352Y-107024787D01*
X166967648Y-107024787D01*
X167015321Y-107038525D01*
X167028464Y-107049211D01*
X167054739Y-107093671D01*
X167065833Y-107133719D01*
X167070824Y-107186495D01*
X167050542Y-107232234D01*
X167012833Y-107242896D01*
X166722672Y-107242896D01*
X166672409Y-107250128D01*
X166644270Y-107263412D01*
X166607528Y-107298097D01*
X166595177Y-107318367D01*
X166578825Y-107366471D01*
X166574417Y-107400188D01*
X166574722Y-107449281D01*
X166581774Y-107498854D01*
X166582477Y-107502281D01*
X166594532Y-107551417D01*
X166611983Y-107603294D01*
X166633081Y-107649304D01*
X166661657Y-107694703D01*
X166677732Y-107714528D01*
X166717786Y-107751011D01*
X166763212Y-107775554D01*
X166814008Y-107788157D01*
X166844549Y-107790000D01*
X167359169Y-107790000D01*
X167329860Y-107648583D01*
X166860669Y-107648583D01*
X166815501Y-107626518D01*
X166811332Y-107621716D01*
X166787652Y-107576493D01*
X166777383Y-107538185D01*
X166771215Y-107489337D01*
X166776650Y-107456120D01*
X166815240Y-107430474D01*
X167116636Y-107430474D01*
X167167083Y-107423905D01*
X167198946Y-107409713D01*
X167234960Y-107375097D01*
X167248283Y-107351339D01*
X167262549Y-107302142D01*
X167266357Y-107262923D01*
X167264672Y-107213121D01*
X167257579Y-107163539D01*
X167255366Y-107152526D01*
X167241980Y-107099815D01*
X167224691Y-107052388D01*
X167200153Y-107004654D01*
X167170515Y-106963819D01*
X167162309Y-106954689D01*
X167121244Y-106920214D01*
X167073609Y-106897021D01*
X167025753Y-106885877D01*
X166986454Y-106883370D01*
X166515799Y-106883370D01*
G37*
D12*
X157800417Y-32946583D02*
X160800417Y-27746583D01*
D13*
X158067256Y-32501951D02*
X158333578Y-32911215D01*
D14*
X160590417Y-31806583D02*
X161060417Y-31706583D01*
D13*
X160675417Y-28206583D02*
X160925417Y-28206583D01*
X160685417Y-30811583D02*
X160935417Y-30641583D01*
D12*
X160800417Y-27746583D02*
X163800417Y-32946583D01*
D13*
X160880417Y-30556583D02*
X161080417Y-30376583D01*
X163523578Y-32501951D02*
X163257256Y-32911215D01*
D12*
X163800417Y-32946583D02*
X157800417Y-32946583D01*
D15*
X161544917Y-31053917D02*
X160730000Y-30620000D01*
X160931084Y-31879417D01*
X161100417Y-31646583D01*
X160941667Y-32408583D01*
X160507750Y-31763000D01*
X160751167Y-31911166D01*
X160274917Y-30175500D01*
X161121584Y-30630583D01*
X160497167Y-29180667D01*
X161015751Y-29180667D01*
X161544917Y-31053917D01*
G36*
X161544917Y-31053917D02*
G01*
X160730000Y-30620000D01*
X160931084Y-31879417D01*
X161100417Y-31646583D01*
X160941667Y-32408583D01*
X160507750Y-31763000D01*
X160751167Y-31911166D01*
X160274917Y-30175500D01*
X161121584Y-30630583D01*
X160497167Y-29180667D01*
X161015751Y-29180667D01*
X161544917Y-31053917D01*
G37*
%LPC*%
D16*
X75120284Y-47580000D03*
D17*
X75120284Y-45040000D03*
X75120284Y-42500000D03*
D18*
X82658334Y-77900000D03*
D19*
X89561672Y-53700000D03*
D20*
X89561672Y-54970000D03*
X89561672Y-56240000D03*
D21*
X94648061Y-69391250D03*
D22*
X94648061Y-71931250D03*
X94648061Y-74471250D03*
X102268061Y-74471250D03*
X102268061Y-71931250D03*
X102268061Y-69391250D03*
D18*
X153436111Y-77900000D03*
D16*
X118265836Y-47580000D03*
D17*
X118265836Y-45040000D03*
X118265836Y-42500000D03*
D23*
X34545585Y-82254415D03*
D16*
X80220284Y-47580000D03*
D17*
X80220284Y-45040000D03*
X80220284Y-42500000D03*
D16*
X85906672Y-47580000D03*
D17*
X85906672Y-45040000D03*
X85906672Y-42500000D03*
D18*
X112991667Y-77900000D03*
D21*
X137793613Y-69391250D03*
D22*
X137793613Y-71931250D03*
X137793613Y-74471250D03*
X145413613Y-74471250D03*
X145413613Y-71931250D03*
X145413613Y-69391250D03*
D18*
X173641667Y-77900000D03*
D19*
X117740837Y-56240000D03*
D20*
X117740837Y-54970000D03*
X117740837Y-53700000D03*
D16*
X166511388Y-47580000D03*
D17*
X166511388Y-45040000D03*
X166511388Y-42500000D03*
D19*
X100348060Y-53700000D03*
D20*
X100348060Y-54970000D03*
X100348060Y-56240000D03*
D18*
X33800000Y-101320000D03*
D21*
X159366389Y-69391250D03*
D22*
X159366389Y-71931250D03*
X159366389Y-74471250D03*
X166986389Y-74471250D03*
X166986389Y-71931250D03*
X166986389Y-69391250D03*
D16*
X150625000Y-47580000D03*
D17*
X150625000Y-45040000D03*
X150625000Y-42500000D03*
D18*
X143325000Y-77900000D03*
D19*
X171670000Y-56240000D03*
D20*
X171670000Y-54970000D03*
X171670000Y-53700000D03*
D24*
X68100000Y-33900000D03*
X68100000Y-28900000D03*
D25*
X50300000Y-33900000D03*
X50300000Y-28900000D03*
D18*
X175000000Y-92750000D03*
D19*
X78775284Y-53700000D03*
D20*
X78775284Y-54970000D03*
X78775284Y-56240000D03*
D19*
X132707224Y-53700000D03*
D20*
X132707224Y-54970000D03*
X132707224Y-56240000D03*
D21*
X170150000Y-69391250D03*
D22*
X170150000Y-71931250D03*
X170150000Y-74471250D03*
X177770000Y-74471250D03*
X177770000Y-71931250D03*
X177770000Y-69391250D03*
D18*
X136250000Y-101525000D03*
D26*
X136250000Y-98985000D03*
D16*
X177295000Y-47580000D03*
D17*
X177295000Y-45040000D03*
X177295000Y-42500000D03*
D27*
X175740000Y-35550000D03*
D28*
X170660000Y-35550000D03*
X165580000Y-35550000D03*
X160500000Y-35550000D03*
X155420000Y-35550000D03*
X150340000Y-35550000D03*
X145260000Y-35550000D03*
X140180000Y-35550000D03*
X135100000Y-35550000D03*
D21*
X127007225Y-69391250D03*
D22*
X127007225Y-71931250D03*
X127007225Y-74471250D03*
X134627225Y-74471250D03*
X134627225Y-71931250D03*
X134627225Y-69391250D03*
D29*
X68190000Y-95370000D03*
X85760000Y-95370000D03*
D30*
X69990000Y-93890000D03*
D31*
X71260000Y-91350000D03*
X72530000Y-93890000D03*
X73800000Y-91350000D03*
X75069999Y-93890000D03*
X76340000Y-91350000D03*
X77610000Y-93890000D03*
X78880000Y-91350000D03*
X80150000Y-93890000D03*
X81420000Y-91350000D03*
X82690000Y-93890000D03*
X83960000Y-91350000D03*
D21*
X83861673Y-69391250D03*
D22*
X83861673Y-71931250D03*
X83861673Y-74471250D03*
X91481673Y-74471250D03*
X91481673Y-71931250D03*
X91481673Y-69391250D03*
D19*
X165066388Y-53700000D03*
D20*
X165066388Y-54970000D03*
X165066388Y-56240000D03*
D32*
X42500000Y-44500000D03*
D33*
X41601974Y-45398026D03*
X40703949Y-46296051D03*
X39805923Y-47194077D03*
D16*
X172195000Y-47580000D03*
D17*
X172195000Y-45040000D03*
X172195000Y-42500000D03*
D18*
X102880556Y-77900000D03*
D16*
X96693060Y-47580000D03*
D17*
X96693060Y-45040000D03*
X96693060Y-42500000D03*
D16*
X123365836Y-47580000D03*
D17*
X123365836Y-45040000D03*
X123365836Y-42500000D03*
D21*
X148580001Y-69391250D03*
D22*
X148580001Y-71931250D03*
X148580001Y-74471250D03*
X156200001Y-74471250D03*
X156200001Y-71931250D03*
X156200001Y-69391250D03*
D18*
X123102778Y-77900000D03*
D34*
X58950000Y-91600000D03*
D19*
X85381673Y-56240000D03*
D20*
X85381673Y-54970000D03*
X85381673Y-53700000D03*
D21*
X116220837Y-69391250D03*
D22*
X116220837Y-71931250D03*
X116220837Y-74471250D03*
X123840837Y-74471250D03*
X123840837Y-71931250D03*
X123840837Y-69391250D03*
D16*
X91006672Y-47580000D03*
D17*
X91006672Y-45040000D03*
X91006672Y-42500000D03*
D19*
X128527225Y-56240000D03*
D20*
X128527225Y-54970000D03*
X128527225Y-53700000D03*
D19*
X150100001Y-56240000D03*
D20*
X150100001Y-54970000D03*
X150100001Y-53700000D03*
D16*
X101793060Y-47580000D03*
D17*
X101793060Y-45040000D03*
X101793060Y-42500000D03*
D23*
X60700000Y-53800000D03*
D16*
X134152224Y-47580000D03*
D17*
X134152224Y-45040000D03*
X134152224Y-42500000D03*
D18*
X163547222Y-77900000D03*
D16*
X107479448Y-47580000D03*
D17*
X107479448Y-45040000D03*
X107479448Y-42500000D03*
D27*
X122995000Y-35550000D03*
D28*
X117915000Y-35550000D03*
X112835000Y-35550000D03*
X107755000Y-35550000D03*
X102675000Y-35550000D03*
X97595000Y-35550000D03*
X92515000Y-35550000D03*
X87435000Y-35550000D03*
X82355000Y-35550000D03*
D19*
X111134448Y-53700000D03*
D20*
X111134448Y-54970000D03*
X111134448Y-56240000D03*
D23*
X32000000Y-84800000D03*
D16*
X112579448Y-47580000D03*
D17*
X112579448Y-45040000D03*
X112579448Y-42500000D03*
D21*
X73075285Y-69391250D03*
D22*
X73075285Y-71931250D03*
X73075285Y-74471250D03*
X80695285Y-74471250D03*
X80695285Y-71931250D03*
X80695285Y-69391250D03*
D35*
X43625001Y-105120000D03*
D36*
X42975001Y-104120000D03*
X42325001Y-105120000D03*
X41675001Y-104120000D03*
X41025000Y-105120000D03*
D37*
X45900000Y-104900000D03*
X38750001Y-104900000D03*
D19*
X74595285Y-56240000D03*
D20*
X74595285Y-54970000D03*
X74595285Y-53700000D03*
D38*
X108936000Y-94355000D03*
X106192999Y-94355000D03*
X103450000Y-94354999D03*
X100707001Y-94355000D03*
X97964000Y-94355000D03*
X107565000Y-97200000D03*
X104822000Y-97200000D03*
X102078000Y-97200000D03*
X99335000Y-97200000D03*
D39*
X115947000Y-95778000D03*
X90953000Y-95778000D03*
D16*
X161411388Y-47580000D03*
D17*
X161411388Y-45040000D03*
X161411388Y-42500000D03*
D19*
X160886389Y-56240000D03*
D20*
X160886389Y-54970000D03*
X160886389Y-53700000D03*
D19*
X121920836Y-53700000D03*
D20*
X121920836Y-54970000D03*
X121920836Y-56240000D03*
D19*
X96168061Y-56240000D03*
D20*
X96168061Y-54970000D03*
X96168061Y-53700000D03*
D38*
X161436000Y-94355000D03*
X158692999Y-94355000D03*
X155950000Y-94354999D03*
X153207001Y-94355000D03*
X150464000Y-94355000D03*
X160065000Y-97200000D03*
X157322000Y-97200000D03*
X154578000Y-97200000D03*
X151835000Y-97200000D03*
D39*
X168447000Y-95778000D03*
X143453000Y-95778000D03*
D19*
X106954449Y-56240000D03*
D20*
X106954449Y-54970000D03*
X106954449Y-53700000D03*
D16*
X155725000Y-47580000D03*
D17*
X155725000Y-45040000D03*
X155725000Y-42500000D03*
D18*
X133213889Y-77900000D03*
D16*
X129052224Y-47580000D03*
D17*
X129052224Y-45040000D03*
X129052224Y-42500000D03*
D18*
X92769445Y-77900000D03*
D19*
X175850000Y-53700000D03*
D20*
X175850000Y-54970000D03*
X175850000Y-56240000D03*
D19*
X154280000Y-53700000D03*
D20*
X154280000Y-54970000D03*
X154280000Y-56240000D03*
D19*
X143493612Y-53700000D03*
D20*
X143493612Y-54970000D03*
X143493612Y-56240000D03*
D16*
X139838612Y-47580000D03*
D17*
X139838612Y-45040000D03*
X139838612Y-42500000D03*
D16*
X144938612Y-47580000D03*
D17*
X144938612Y-45040000D03*
X144938612Y-42500000D03*
D21*
X105434449Y-69391250D03*
D22*
X105434449Y-71931250D03*
X105434449Y-74471250D03*
X113054449Y-74471250D03*
X113054449Y-71931250D03*
X113054449Y-69391250D03*
D19*
X139313613Y-56240000D03*
D20*
X139313613Y-54970000D03*
X139313613Y-53700000D03*
D34*
X61500000Y-89050000D03*
%LPD*%
M02*
