%TF.GenerationSoftware,KiCad,Pcbnew,8.0.8*%
%TF.CreationDate,2025-06-15T11:52:00+02:00*%
%TF.ProjectId,OverlordDimmer,4f766572-6c6f-4726-9444-696d6d65722e,rev?*%
%TF.SameCoordinates,Original*%
%TF.FileFunction,Drillmap*%
%TF.FilePolarity,Positive*%
%FSLAX45Y45*%
G04 Gerber Fmt 4.5, Leading zero omitted, Abs format (unit mm)*
G04 Created by KiCad (PCBNEW 8.0.8) date 2025-06-15 11:52:00*
%MOMM*%
%LPD*%
G01*
G04 APERTURE LIST*
%ADD10C,0.050000*%
%ADD11C,0.200000*%
%ADD12C,0.150000*%
G04 APERTURE END LIST*
D10*
X2520000Y-11176000D02*
X2520000Y-2546000D01*
X18090000Y-2546000D02*
X18090000Y-11176000D01*
X18090000Y-11176000D02*
X2520000Y-11176000D01*
X2520000Y-2546000D02*
X18090000Y-2546000D01*
D11*
D12*
X6744000Y-9462000D02*
X6894000Y-9612000D01*
X6894000Y-9462000D02*
X6744000Y-9612000D01*
X8501000Y-9462000D02*
X8651000Y-9612000D01*
X8651000Y-9462000D02*
X8501000Y-9612000D01*
D11*
X2778277Y-11489984D02*
X2778277Y-11289984D01*
X2778277Y-11289984D02*
X2825896Y-11289984D01*
X2825896Y-11289984D02*
X2854467Y-11299508D01*
X2854467Y-11299508D02*
X2873515Y-11318555D01*
X2873515Y-11318555D02*
X2883039Y-11337603D01*
X2883039Y-11337603D02*
X2892562Y-11375698D01*
X2892562Y-11375698D02*
X2892562Y-11404269D01*
X2892562Y-11404269D02*
X2883039Y-11442365D01*
X2883039Y-11442365D02*
X2873515Y-11461412D01*
X2873515Y-11461412D02*
X2854467Y-11480460D01*
X2854467Y-11480460D02*
X2825896Y-11489984D01*
X2825896Y-11489984D02*
X2778277Y-11489984D01*
X2978277Y-11489984D02*
X2978277Y-11356650D01*
X2978277Y-11394746D02*
X2987801Y-11375698D01*
X2987801Y-11375698D02*
X2997324Y-11366174D01*
X2997324Y-11366174D02*
X3016372Y-11356650D01*
X3016372Y-11356650D02*
X3035420Y-11356650D01*
X3102086Y-11489984D02*
X3102086Y-11356650D01*
X3102086Y-11289984D02*
X3092562Y-11299508D01*
X3092562Y-11299508D02*
X3102086Y-11309031D01*
X3102086Y-11309031D02*
X3111610Y-11299508D01*
X3111610Y-11299508D02*
X3102086Y-11289984D01*
X3102086Y-11289984D02*
X3102086Y-11309031D01*
X3225896Y-11489984D02*
X3206848Y-11480460D01*
X3206848Y-11480460D02*
X3197324Y-11461412D01*
X3197324Y-11461412D02*
X3197324Y-11289984D01*
X3330658Y-11489984D02*
X3311610Y-11480460D01*
X3311610Y-11480460D02*
X3302086Y-11461412D01*
X3302086Y-11461412D02*
X3302086Y-11289984D01*
X3559229Y-11489984D02*
X3559229Y-11289984D01*
X3559229Y-11289984D02*
X3625896Y-11432841D01*
X3625896Y-11432841D02*
X3692562Y-11289984D01*
X3692562Y-11289984D02*
X3692562Y-11489984D01*
X3873515Y-11489984D02*
X3873515Y-11385222D01*
X3873515Y-11385222D02*
X3863991Y-11366174D01*
X3863991Y-11366174D02*
X3844943Y-11356650D01*
X3844943Y-11356650D02*
X3806848Y-11356650D01*
X3806848Y-11356650D02*
X3787801Y-11366174D01*
X3873515Y-11480460D02*
X3854467Y-11489984D01*
X3854467Y-11489984D02*
X3806848Y-11489984D01*
X3806848Y-11489984D02*
X3787801Y-11480460D01*
X3787801Y-11480460D02*
X3778277Y-11461412D01*
X3778277Y-11461412D02*
X3778277Y-11442365D01*
X3778277Y-11442365D02*
X3787801Y-11423317D01*
X3787801Y-11423317D02*
X3806848Y-11413793D01*
X3806848Y-11413793D02*
X3854467Y-11413793D01*
X3854467Y-11413793D02*
X3873515Y-11404269D01*
X3968753Y-11356650D02*
X3968753Y-11556650D01*
X3968753Y-11366174D02*
X3987801Y-11356650D01*
X3987801Y-11356650D02*
X4025896Y-11356650D01*
X4025896Y-11356650D02*
X4044943Y-11366174D01*
X4044943Y-11366174D02*
X4054467Y-11375698D01*
X4054467Y-11375698D02*
X4063991Y-11394746D01*
X4063991Y-11394746D02*
X4063991Y-11451888D01*
X4063991Y-11451888D02*
X4054467Y-11470936D01*
X4054467Y-11470936D02*
X4044943Y-11480460D01*
X4044943Y-11480460D02*
X4025896Y-11489984D01*
X4025896Y-11489984D02*
X3987801Y-11489984D01*
X3987801Y-11489984D02*
X3968753Y-11480460D01*
X4149705Y-11470936D02*
X4159229Y-11480460D01*
X4159229Y-11480460D02*
X4149705Y-11489984D01*
X4149705Y-11489984D02*
X4140182Y-11480460D01*
X4140182Y-11480460D02*
X4149705Y-11470936D01*
X4149705Y-11470936D02*
X4149705Y-11489984D01*
X4149705Y-11366174D02*
X4159229Y-11375698D01*
X4159229Y-11375698D02*
X4149705Y-11385222D01*
X4149705Y-11385222D02*
X4140182Y-11375698D01*
X4140182Y-11375698D02*
X4149705Y-11366174D01*
X4149705Y-11366174D02*
X4149705Y-11385222D01*
D12*
X2367500Y-11743500D02*
X2517500Y-11893500D01*
X2517500Y-11743500D02*
X2367500Y-11893500D01*
D11*
X2883039Y-11909984D02*
X2768753Y-11909984D01*
X2825896Y-11909984D02*
X2825896Y-11709984D01*
X2825896Y-11709984D02*
X2806848Y-11738555D01*
X2806848Y-11738555D02*
X2787801Y-11757603D01*
X2787801Y-11757603D02*
X2768753Y-11767127D01*
X2968753Y-11890936D02*
X2978277Y-11900460D01*
X2978277Y-11900460D02*
X2968753Y-11909984D01*
X2968753Y-11909984D02*
X2959229Y-11900460D01*
X2959229Y-11900460D02*
X2968753Y-11890936D01*
X2968753Y-11890936D02*
X2968753Y-11909984D01*
X3159229Y-11709984D02*
X3063991Y-11709984D01*
X3063991Y-11709984D02*
X3054467Y-11805222D01*
X3054467Y-11805222D02*
X3063991Y-11795698D01*
X3063991Y-11795698D02*
X3083039Y-11786174D01*
X3083039Y-11786174D02*
X3130658Y-11786174D01*
X3130658Y-11786174D02*
X3149705Y-11795698D01*
X3149705Y-11795698D02*
X3159229Y-11805222D01*
X3159229Y-11805222D02*
X3168753Y-11824269D01*
X3168753Y-11824269D02*
X3168753Y-11871888D01*
X3168753Y-11871888D02*
X3159229Y-11890936D01*
X3159229Y-11890936D02*
X3149705Y-11900460D01*
X3149705Y-11900460D02*
X3130658Y-11909984D01*
X3130658Y-11909984D02*
X3083039Y-11909984D01*
X3083039Y-11909984D02*
X3063991Y-11900460D01*
X3063991Y-11900460D02*
X3054467Y-11890936D01*
X3292562Y-11709984D02*
X3311610Y-11709984D01*
X3311610Y-11709984D02*
X3330658Y-11719508D01*
X3330658Y-11719508D02*
X3340182Y-11729031D01*
X3340182Y-11729031D02*
X3349705Y-11748079D01*
X3349705Y-11748079D02*
X3359229Y-11786174D01*
X3359229Y-11786174D02*
X3359229Y-11833793D01*
X3359229Y-11833793D02*
X3349705Y-11871888D01*
X3349705Y-11871888D02*
X3340182Y-11890936D01*
X3340182Y-11890936D02*
X3330658Y-11900460D01*
X3330658Y-11900460D02*
X3311610Y-11909984D01*
X3311610Y-11909984D02*
X3292562Y-11909984D01*
X3292562Y-11909984D02*
X3273515Y-11900460D01*
X3273515Y-11900460D02*
X3263991Y-11890936D01*
X3263991Y-11890936D02*
X3254467Y-11871888D01*
X3254467Y-11871888D02*
X3244943Y-11833793D01*
X3244943Y-11833793D02*
X3244943Y-11786174D01*
X3244943Y-11786174D02*
X3254467Y-11748079D01*
X3254467Y-11748079D02*
X3263991Y-11729031D01*
X3263991Y-11729031D02*
X3273515Y-11719508D01*
X3273515Y-11719508D02*
X3292562Y-11709984D01*
X3483039Y-11709984D02*
X3502086Y-11709984D01*
X3502086Y-11709984D02*
X3521134Y-11719508D01*
X3521134Y-11719508D02*
X3530658Y-11729031D01*
X3530658Y-11729031D02*
X3540182Y-11748079D01*
X3540182Y-11748079D02*
X3549705Y-11786174D01*
X3549705Y-11786174D02*
X3549705Y-11833793D01*
X3549705Y-11833793D02*
X3540182Y-11871888D01*
X3540182Y-11871888D02*
X3530658Y-11890936D01*
X3530658Y-11890936D02*
X3521134Y-11900460D01*
X3521134Y-11900460D02*
X3502086Y-11909984D01*
X3502086Y-11909984D02*
X3483039Y-11909984D01*
X3483039Y-11909984D02*
X3463991Y-11900460D01*
X3463991Y-11900460D02*
X3454467Y-11890936D01*
X3454467Y-11890936D02*
X3444943Y-11871888D01*
X3444943Y-11871888D02*
X3435420Y-11833793D01*
X3435420Y-11833793D02*
X3435420Y-11786174D01*
X3435420Y-11786174D02*
X3444943Y-11748079D01*
X3444943Y-11748079D02*
X3454467Y-11729031D01*
X3454467Y-11729031D02*
X3463991Y-11719508D01*
X3463991Y-11719508D02*
X3483039Y-11709984D01*
X3635420Y-11909984D02*
X3635420Y-11776650D01*
X3635420Y-11795698D02*
X3644943Y-11786174D01*
X3644943Y-11786174D02*
X3663991Y-11776650D01*
X3663991Y-11776650D02*
X3692563Y-11776650D01*
X3692563Y-11776650D02*
X3711610Y-11786174D01*
X3711610Y-11786174D02*
X3721134Y-11805222D01*
X3721134Y-11805222D02*
X3721134Y-11909984D01*
X3721134Y-11805222D02*
X3730658Y-11786174D01*
X3730658Y-11786174D02*
X3749705Y-11776650D01*
X3749705Y-11776650D02*
X3778277Y-11776650D01*
X3778277Y-11776650D02*
X3797324Y-11786174D01*
X3797324Y-11786174D02*
X3806848Y-11805222D01*
X3806848Y-11805222D02*
X3806848Y-11909984D01*
X3902086Y-11909984D02*
X3902086Y-11776650D01*
X3902086Y-11795698D02*
X3911610Y-11786174D01*
X3911610Y-11786174D02*
X3930658Y-11776650D01*
X3930658Y-11776650D02*
X3959229Y-11776650D01*
X3959229Y-11776650D02*
X3978277Y-11786174D01*
X3978277Y-11786174D02*
X3987801Y-11805222D01*
X3987801Y-11805222D02*
X3987801Y-11909984D01*
X3987801Y-11805222D02*
X3997324Y-11786174D01*
X3997324Y-11786174D02*
X4016372Y-11776650D01*
X4016372Y-11776650D02*
X4044943Y-11776650D01*
X4044943Y-11776650D02*
X4063991Y-11786174D01*
X4063991Y-11786174D02*
X4073515Y-11805222D01*
X4073515Y-11805222D02*
X4073515Y-11909984D01*
X4463991Y-11700460D02*
X4292563Y-11957603D01*
X4721134Y-11709984D02*
X4740182Y-11709984D01*
X4740182Y-11709984D02*
X4759229Y-11719508D01*
X4759229Y-11719508D02*
X4768753Y-11729031D01*
X4768753Y-11729031D02*
X4778277Y-11748079D01*
X4778277Y-11748079D02*
X4787801Y-11786174D01*
X4787801Y-11786174D02*
X4787801Y-11833793D01*
X4787801Y-11833793D02*
X4778277Y-11871888D01*
X4778277Y-11871888D02*
X4768753Y-11890936D01*
X4768753Y-11890936D02*
X4759229Y-11900460D01*
X4759229Y-11900460D02*
X4740182Y-11909984D01*
X4740182Y-11909984D02*
X4721134Y-11909984D01*
X4721134Y-11909984D02*
X4702087Y-11900460D01*
X4702087Y-11900460D02*
X4692563Y-11890936D01*
X4692563Y-11890936D02*
X4683039Y-11871888D01*
X4683039Y-11871888D02*
X4673515Y-11833793D01*
X4673515Y-11833793D02*
X4673515Y-11786174D01*
X4673515Y-11786174D02*
X4683039Y-11748079D01*
X4683039Y-11748079D02*
X4692563Y-11729031D01*
X4692563Y-11729031D02*
X4702087Y-11719508D01*
X4702087Y-11719508D02*
X4721134Y-11709984D01*
X4873515Y-11890936D02*
X4883039Y-11900460D01*
X4883039Y-11900460D02*
X4873515Y-11909984D01*
X4873515Y-11909984D02*
X4863991Y-11900460D01*
X4863991Y-11900460D02*
X4873515Y-11890936D01*
X4873515Y-11890936D02*
X4873515Y-11909984D01*
X5006848Y-11709984D02*
X5025896Y-11709984D01*
X5025896Y-11709984D02*
X5044944Y-11719508D01*
X5044944Y-11719508D02*
X5054468Y-11729031D01*
X5054468Y-11729031D02*
X5063991Y-11748079D01*
X5063991Y-11748079D02*
X5073515Y-11786174D01*
X5073515Y-11786174D02*
X5073515Y-11833793D01*
X5073515Y-11833793D02*
X5063991Y-11871888D01*
X5063991Y-11871888D02*
X5054468Y-11890936D01*
X5054468Y-11890936D02*
X5044944Y-11900460D01*
X5044944Y-11900460D02*
X5025896Y-11909984D01*
X5025896Y-11909984D02*
X5006848Y-11909984D01*
X5006848Y-11909984D02*
X4987801Y-11900460D01*
X4987801Y-11900460D02*
X4978277Y-11890936D01*
X4978277Y-11890936D02*
X4968753Y-11871888D01*
X4968753Y-11871888D02*
X4959229Y-11833793D01*
X4959229Y-11833793D02*
X4959229Y-11786174D01*
X4959229Y-11786174D02*
X4968753Y-11748079D01*
X4968753Y-11748079D02*
X4978277Y-11729031D01*
X4978277Y-11729031D02*
X4987801Y-11719508D01*
X4987801Y-11719508D02*
X5006848Y-11709984D01*
X5254468Y-11709984D02*
X5159229Y-11709984D01*
X5159229Y-11709984D02*
X5149706Y-11805222D01*
X5149706Y-11805222D02*
X5159229Y-11795698D01*
X5159229Y-11795698D02*
X5178277Y-11786174D01*
X5178277Y-11786174D02*
X5225896Y-11786174D01*
X5225896Y-11786174D02*
X5244944Y-11795698D01*
X5244944Y-11795698D02*
X5254468Y-11805222D01*
X5254468Y-11805222D02*
X5263991Y-11824269D01*
X5263991Y-11824269D02*
X5263991Y-11871888D01*
X5263991Y-11871888D02*
X5254468Y-11890936D01*
X5254468Y-11890936D02*
X5244944Y-11900460D01*
X5244944Y-11900460D02*
X5225896Y-11909984D01*
X5225896Y-11909984D02*
X5178277Y-11909984D01*
X5178277Y-11909984D02*
X5159229Y-11900460D01*
X5159229Y-11900460D02*
X5149706Y-11890936D01*
X5359229Y-11909984D02*
X5397325Y-11909984D01*
X5397325Y-11909984D02*
X5416372Y-11900460D01*
X5416372Y-11900460D02*
X5425896Y-11890936D01*
X5425896Y-11890936D02*
X5444944Y-11862365D01*
X5444944Y-11862365D02*
X5454468Y-11824269D01*
X5454468Y-11824269D02*
X5454468Y-11748079D01*
X5454468Y-11748079D02*
X5444944Y-11729031D01*
X5444944Y-11729031D02*
X5435420Y-11719508D01*
X5435420Y-11719508D02*
X5416372Y-11709984D01*
X5416372Y-11709984D02*
X5378277Y-11709984D01*
X5378277Y-11709984D02*
X5359229Y-11719508D01*
X5359229Y-11719508D02*
X5349706Y-11729031D01*
X5349706Y-11729031D02*
X5340182Y-11748079D01*
X5340182Y-11748079D02*
X5340182Y-11795698D01*
X5340182Y-11795698D02*
X5349706Y-11814746D01*
X5349706Y-11814746D02*
X5359229Y-11824269D01*
X5359229Y-11824269D02*
X5378277Y-11833793D01*
X5378277Y-11833793D02*
X5416372Y-11833793D01*
X5416372Y-11833793D02*
X5435420Y-11824269D01*
X5435420Y-11824269D02*
X5444944Y-11814746D01*
X5444944Y-11814746D02*
X5454468Y-11795698D01*
X5644944Y-11909984D02*
X5530658Y-11909984D01*
X5587801Y-11909984D02*
X5587801Y-11709984D01*
X5587801Y-11709984D02*
X5568753Y-11738555D01*
X5568753Y-11738555D02*
X5549706Y-11757603D01*
X5549706Y-11757603D02*
X5530658Y-11767127D01*
X5721134Y-11709984D02*
X5721134Y-11748079D01*
X5797325Y-11709984D02*
X5797325Y-11748079D01*
X6092563Y-11986174D02*
X6083039Y-11976650D01*
X6083039Y-11976650D02*
X6063991Y-11948079D01*
X6063991Y-11948079D02*
X6054468Y-11929031D01*
X6054468Y-11929031D02*
X6044944Y-11900460D01*
X6044944Y-11900460D02*
X6035420Y-11852841D01*
X6035420Y-11852841D02*
X6035420Y-11814746D01*
X6035420Y-11814746D02*
X6044944Y-11767127D01*
X6044944Y-11767127D02*
X6054468Y-11738555D01*
X6054468Y-11738555D02*
X6063991Y-11719508D01*
X6063991Y-11719508D02*
X6083039Y-11690936D01*
X6083039Y-11690936D02*
X6092563Y-11681412D01*
X6159229Y-11729031D02*
X6168753Y-11719508D01*
X6168753Y-11719508D02*
X6187801Y-11709984D01*
X6187801Y-11709984D02*
X6235420Y-11709984D01*
X6235420Y-11709984D02*
X6254468Y-11719508D01*
X6254468Y-11719508D02*
X6263991Y-11729031D01*
X6263991Y-11729031D02*
X6273515Y-11748079D01*
X6273515Y-11748079D02*
X6273515Y-11767127D01*
X6273515Y-11767127D02*
X6263991Y-11795698D01*
X6263991Y-11795698D02*
X6149706Y-11909984D01*
X6149706Y-11909984D02*
X6273515Y-11909984D01*
X6511610Y-11909984D02*
X6511610Y-11709984D01*
X6597325Y-11909984D02*
X6597325Y-11805222D01*
X6597325Y-11805222D02*
X6587801Y-11786174D01*
X6587801Y-11786174D02*
X6568753Y-11776650D01*
X6568753Y-11776650D02*
X6540182Y-11776650D01*
X6540182Y-11776650D02*
X6521134Y-11786174D01*
X6521134Y-11786174D02*
X6511610Y-11795698D01*
X6721134Y-11909984D02*
X6702087Y-11900460D01*
X6702087Y-11900460D02*
X6692563Y-11890936D01*
X6692563Y-11890936D02*
X6683039Y-11871888D01*
X6683039Y-11871888D02*
X6683039Y-11814746D01*
X6683039Y-11814746D02*
X6692563Y-11795698D01*
X6692563Y-11795698D02*
X6702087Y-11786174D01*
X6702087Y-11786174D02*
X6721134Y-11776650D01*
X6721134Y-11776650D02*
X6749706Y-11776650D01*
X6749706Y-11776650D02*
X6768753Y-11786174D01*
X6768753Y-11786174D02*
X6778277Y-11795698D01*
X6778277Y-11795698D02*
X6787801Y-11814746D01*
X6787801Y-11814746D02*
X6787801Y-11871888D01*
X6787801Y-11871888D02*
X6778277Y-11890936D01*
X6778277Y-11890936D02*
X6768753Y-11900460D01*
X6768753Y-11900460D02*
X6749706Y-11909984D01*
X6749706Y-11909984D02*
X6721134Y-11909984D01*
X6902087Y-11909984D02*
X6883039Y-11900460D01*
X6883039Y-11900460D02*
X6873515Y-11881412D01*
X6873515Y-11881412D02*
X6873515Y-11709984D01*
X7054468Y-11900460D02*
X7035420Y-11909984D01*
X7035420Y-11909984D02*
X6997325Y-11909984D01*
X6997325Y-11909984D02*
X6978277Y-11900460D01*
X6978277Y-11900460D02*
X6968753Y-11881412D01*
X6968753Y-11881412D02*
X6968753Y-11805222D01*
X6968753Y-11805222D02*
X6978277Y-11786174D01*
X6978277Y-11786174D02*
X6997325Y-11776650D01*
X6997325Y-11776650D02*
X7035420Y-11776650D01*
X7035420Y-11776650D02*
X7054468Y-11786174D01*
X7054468Y-11786174D02*
X7063991Y-11805222D01*
X7063991Y-11805222D02*
X7063991Y-11824269D01*
X7063991Y-11824269D02*
X6968753Y-11843317D01*
X7140182Y-11900460D02*
X7159230Y-11909984D01*
X7159230Y-11909984D02*
X7197325Y-11909984D01*
X7197325Y-11909984D02*
X7216372Y-11900460D01*
X7216372Y-11900460D02*
X7225896Y-11881412D01*
X7225896Y-11881412D02*
X7225896Y-11871888D01*
X7225896Y-11871888D02*
X7216372Y-11852841D01*
X7216372Y-11852841D02*
X7197325Y-11843317D01*
X7197325Y-11843317D02*
X7168753Y-11843317D01*
X7168753Y-11843317D02*
X7149706Y-11833793D01*
X7149706Y-11833793D02*
X7140182Y-11814746D01*
X7140182Y-11814746D02*
X7140182Y-11805222D01*
X7140182Y-11805222D02*
X7149706Y-11786174D01*
X7149706Y-11786174D02*
X7168753Y-11776650D01*
X7168753Y-11776650D02*
X7197325Y-11776650D01*
X7197325Y-11776650D02*
X7216372Y-11786174D01*
X7292563Y-11986174D02*
X7302087Y-11976650D01*
X7302087Y-11976650D02*
X7321134Y-11948079D01*
X7321134Y-11948079D02*
X7330658Y-11929031D01*
X7330658Y-11929031D02*
X7340182Y-11900460D01*
X7340182Y-11900460D02*
X7349706Y-11852841D01*
X7349706Y-11852841D02*
X7349706Y-11814746D01*
X7349706Y-11814746D02*
X7340182Y-11767127D01*
X7340182Y-11767127D02*
X7330658Y-11738555D01*
X7330658Y-11738555D02*
X7321134Y-11719508D01*
X7321134Y-11719508D02*
X7302087Y-11690936D01*
X7302087Y-11690936D02*
X7292563Y-11681412D01*
X7654468Y-11986174D02*
X7644944Y-11976650D01*
X7644944Y-11976650D02*
X7625896Y-11948079D01*
X7625896Y-11948079D02*
X7616372Y-11929031D01*
X7616372Y-11929031D02*
X7606849Y-11900460D01*
X7606849Y-11900460D02*
X7597325Y-11852841D01*
X7597325Y-11852841D02*
X7597325Y-11814746D01*
X7597325Y-11814746D02*
X7606849Y-11767127D01*
X7606849Y-11767127D02*
X7616372Y-11738555D01*
X7616372Y-11738555D02*
X7625896Y-11719508D01*
X7625896Y-11719508D02*
X7644944Y-11690936D01*
X7644944Y-11690936D02*
X7654468Y-11681412D01*
X7730658Y-11776650D02*
X7730658Y-11909984D01*
X7730658Y-11795698D02*
X7740182Y-11786174D01*
X7740182Y-11786174D02*
X7759230Y-11776650D01*
X7759230Y-11776650D02*
X7787801Y-11776650D01*
X7787801Y-11776650D02*
X7806849Y-11786174D01*
X7806849Y-11786174D02*
X7816372Y-11805222D01*
X7816372Y-11805222D02*
X7816372Y-11909984D01*
X7940182Y-11909984D02*
X7921134Y-11900460D01*
X7921134Y-11900460D02*
X7911611Y-11890936D01*
X7911611Y-11890936D02*
X7902087Y-11871888D01*
X7902087Y-11871888D02*
X7902087Y-11814746D01*
X7902087Y-11814746D02*
X7911611Y-11795698D01*
X7911611Y-11795698D02*
X7921134Y-11786174D01*
X7921134Y-11786174D02*
X7940182Y-11776650D01*
X7940182Y-11776650D02*
X7968753Y-11776650D01*
X7968753Y-11776650D02*
X7987801Y-11786174D01*
X7987801Y-11786174D02*
X7997325Y-11795698D01*
X7997325Y-11795698D02*
X8006849Y-11814746D01*
X8006849Y-11814746D02*
X8006849Y-11871888D01*
X8006849Y-11871888D02*
X7997325Y-11890936D01*
X7997325Y-11890936D02*
X7987801Y-11900460D01*
X7987801Y-11900460D02*
X7968753Y-11909984D01*
X7968753Y-11909984D02*
X7940182Y-11909984D01*
X8063992Y-11776650D02*
X8140182Y-11776650D01*
X8092563Y-11709984D02*
X8092563Y-11881412D01*
X8092563Y-11881412D02*
X8102087Y-11900460D01*
X8102087Y-11900460D02*
X8121134Y-11909984D01*
X8121134Y-11909984D02*
X8140182Y-11909984D01*
X8359230Y-11776650D02*
X8359230Y-11976650D01*
X8359230Y-11786174D02*
X8378277Y-11776650D01*
X8378277Y-11776650D02*
X8416373Y-11776650D01*
X8416373Y-11776650D02*
X8435420Y-11786174D01*
X8435420Y-11786174D02*
X8444944Y-11795698D01*
X8444944Y-11795698D02*
X8454468Y-11814746D01*
X8454468Y-11814746D02*
X8454468Y-11871888D01*
X8454468Y-11871888D02*
X8444944Y-11890936D01*
X8444944Y-11890936D02*
X8435420Y-11900460D01*
X8435420Y-11900460D02*
X8416373Y-11909984D01*
X8416373Y-11909984D02*
X8378277Y-11909984D01*
X8378277Y-11909984D02*
X8359230Y-11900460D01*
X8568754Y-11909984D02*
X8549706Y-11900460D01*
X8549706Y-11900460D02*
X8540182Y-11881412D01*
X8540182Y-11881412D02*
X8540182Y-11709984D01*
X8730658Y-11909984D02*
X8730658Y-11805222D01*
X8730658Y-11805222D02*
X8721135Y-11786174D01*
X8721135Y-11786174D02*
X8702087Y-11776650D01*
X8702087Y-11776650D02*
X8663992Y-11776650D01*
X8663992Y-11776650D02*
X8644944Y-11786174D01*
X8730658Y-11900460D02*
X8711611Y-11909984D01*
X8711611Y-11909984D02*
X8663992Y-11909984D01*
X8663992Y-11909984D02*
X8644944Y-11900460D01*
X8644944Y-11900460D02*
X8635420Y-11881412D01*
X8635420Y-11881412D02*
X8635420Y-11862365D01*
X8635420Y-11862365D02*
X8644944Y-11843317D01*
X8644944Y-11843317D02*
X8663992Y-11833793D01*
X8663992Y-11833793D02*
X8711611Y-11833793D01*
X8711611Y-11833793D02*
X8730658Y-11824269D01*
X8797325Y-11776650D02*
X8873515Y-11776650D01*
X8825896Y-11709984D02*
X8825896Y-11881412D01*
X8825896Y-11881412D02*
X8835420Y-11900460D01*
X8835420Y-11900460D02*
X8854468Y-11909984D01*
X8854468Y-11909984D02*
X8873515Y-11909984D01*
X9016373Y-11900460D02*
X8997325Y-11909984D01*
X8997325Y-11909984D02*
X8959230Y-11909984D01*
X8959230Y-11909984D02*
X8940182Y-11900460D01*
X8940182Y-11900460D02*
X8930658Y-11881412D01*
X8930658Y-11881412D02*
X8930658Y-11805222D01*
X8930658Y-11805222D02*
X8940182Y-11786174D01*
X8940182Y-11786174D02*
X8959230Y-11776650D01*
X8959230Y-11776650D02*
X8997325Y-11776650D01*
X8997325Y-11776650D02*
X9016373Y-11786174D01*
X9016373Y-11786174D02*
X9025896Y-11805222D01*
X9025896Y-11805222D02*
X9025896Y-11824269D01*
X9025896Y-11824269D02*
X8930658Y-11843317D01*
X9197325Y-11909984D02*
X9197325Y-11709984D01*
X9197325Y-11900460D02*
X9178277Y-11909984D01*
X9178277Y-11909984D02*
X9140182Y-11909984D01*
X9140182Y-11909984D02*
X9121135Y-11900460D01*
X9121135Y-11900460D02*
X9111611Y-11890936D01*
X9111611Y-11890936D02*
X9102087Y-11871888D01*
X9102087Y-11871888D02*
X9102087Y-11814746D01*
X9102087Y-11814746D02*
X9111611Y-11795698D01*
X9111611Y-11795698D02*
X9121135Y-11786174D01*
X9121135Y-11786174D02*
X9140182Y-11776650D01*
X9140182Y-11776650D02*
X9178277Y-11776650D01*
X9178277Y-11776650D02*
X9197325Y-11786174D01*
X9273516Y-11986174D02*
X9283039Y-11976650D01*
X9283039Y-11976650D02*
X9302087Y-11948079D01*
X9302087Y-11948079D02*
X9311611Y-11929031D01*
X9311611Y-11929031D02*
X9321135Y-11900460D01*
X9321135Y-11900460D02*
X9330658Y-11852841D01*
X9330658Y-11852841D02*
X9330658Y-11814746D01*
X9330658Y-11814746D02*
X9321135Y-11767127D01*
X9321135Y-11767127D02*
X9311611Y-11738555D01*
X9311611Y-11738555D02*
X9302087Y-11719508D01*
X9302087Y-11719508D02*
X9283039Y-11690936D01*
X9283039Y-11690936D02*
X9273516Y-11681412D01*
M02*
