G04 #@! TF.GenerationSoftware,KiCad,Pcbnew,8.0.8*
G04 #@! TF.CreationDate,2025-06-15T11:51:57+02:00*
G04 #@! TF.ProjectId,OverlordDimmer,4f766572-6c6f-4726-9444-696d6d65722e,rev?*
G04 #@! TF.SameCoordinates,Original*
G04 #@! TF.FileFunction,Paste,Top*
G04 #@! TF.FilePolarity,Positive*
%FSLAX46Y46*%
G04 Gerber Fmt 4.6, Leading zero omitted, Abs format (unit mm)*
G04 Created by KiCad (PCBNEW 8.0.8) date 2025-06-15 11:51:57*
%MOMM*%
%LPD*%
G01*
G04 APERTURE LIST*
G04 Aperture macros list*
%AMRoundRect*
0 Rectangle with rounded corners*
0 $1 Rounding radius*
0 $2 $3 $4 $5 $6 $7 $8 $9 X,Y pos of 4 corners*
0 Add a 4 corners polygon primitive as box body*
4,1,4,$2,$3,$4,$5,$6,$7,$8,$9,$2,$3,0*
0 Add four circle primitives for the rounded corners*
1,1,$1+$1,$2,$3*
1,1,$1+$1,$4,$5*
1,1,$1+$1,$6,$7*
1,1,$1+$1,$8,$9*
0 Add four rect primitives between the rounded corners*
20,1,$1+$1,$2,$3,$4,$5,0*
20,1,$1+$1,$4,$5,$6,$7,0*
20,1,$1+$1,$6,$7,$8,$9,0*
20,1,$1+$1,$8,$9,$2,$3,0*%
%AMRotRect*
0 Rectangle, with rotation*
0 The origin of the aperture is its center*
0 $1 length*
0 $2 width*
0 $3 Rotation angle, in degrees counterclockwise*
0 Add horizontal line*
21,1,$1,$2,0,0,$3*%
%AMOutline5P*
0 Free polygon, 5 corners , with rotation*
0 The origin of the aperture is its center*
0 number of corners: always 5*
0 $1 to $10 corner X, Y*
0 $11 Rotation angle, in degrees counterclockwise*
0 create outline with 5 corners*
4,1,5,$1,$2,$3,$4,$5,$6,$7,$8,$9,$10,$1,$2,$11*%
%AMOutline6P*
0 Free polygon, 6 corners , with rotation*
0 The origin of the aperture is its center*
0 number of corners: always 6*
0 $1 to $12 corner X, Y*
0 $13 Rotation angle, in degrees counterclockwise*
0 create outline with 6 corners*
4,1,6,$1,$2,$3,$4,$5,$6,$7,$8,$9,$10,$11,$12,$1,$2,$13*%
%AMOutline7P*
0 Free polygon, 7 corners , with rotation*
0 The origin of the aperture is its center*
0 number of corners: always 7*
0 $1 to $14 corner X, Y*
0 $15 Rotation angle, in degrees counterclockwise*
0 create outline with 7 corners*
4,1,7,$1,$2,$3,$4,$5,$6,$7,$8,$9,$10,$11,$12,$13,$14,$1,$2,$15*%
%AMOutline8P*
0 Free polygon, 8 corners , with rotation*
0 The origin of the aperture is its center*
0 number of corners: always 8*
0 $1 to $16 corner X, Y*
0 $17 Rotation angle, in degrees counterclockwise*
0 create outline with 8 corners*
4,1,8,$1,$2,$3,$4,$5,$6,$7,$8,$9,$10,$11,$12,$13,$14,$15,$16,$1,$2,$17*%
G04 Aperture macros list end*
%ADD10Outline6P,-2.900000X0.630000X-2.480000X1.050000X2.480000X1.050000X2.900000X0.630000X2.900000X-1.050000X-2.900000X-1.050000X90.000000*%
%ADD11Outline6P,-2.900000X0.630000X-2.480000X1.050000X2.480000X1.050000X2.900000X0.630000X2.900000X-1.050000X-2.900000X-1.050000X270.000000*%
%ADD12RoundRect,0.250000X-0.350000X-0.450000X0.350000X-0.450000X0.350000X0.450000X-0.350000X0.450000X0*%
%ADD13RoundRect,0.250000X0.475000X-0.337500X0.475000X0.337500X-0.475000X0.337500X-0.475000X-0.337500X0*%
%ADD14RotRect,0.650000X1.950000X315.000000*%
%ADD15RoundRect,0.250000X-0.450000X0.350000X-0.450000X-0.350000X0.450000X-0.350000X0.450000X0.350000X0*%
%ADD16RoundRect,0.250000X0.450000X-0.325000X0.450000X0.325000X-0.450000X0.325000X-0.450000X-0.325000X0*%
%ADD17RoundRect,0.250000X0.450000X-0.350000X0.450000X0.350000X-0.450000X0.350000X-0.450000X-0.350000X0*%
%ADD18RoundRect,0.250000X0.412500X1.100000X-0.412500X1.100000X-0.412500X-1.100000X0.412500X-1.100000X0*%
%ADD19RoundRect,0.250000X-0.400000X-0.450000X0.400000X-0.450000X0.400000X0.450000X-0.400000X0.450000X0*%
%ADD20RoundRect,0.250000X0.350000X0.450000X-0.350000X0.450000X-0.350000X-0.450000X0.350000X-0.450000X0*%
%ADD21RoundRect,0.250000X0.450000X-0.400000X0.450000X0.400000X-0.450000X0.400000X-0.450000X-0.400000X0*%
%ADD22RoundRect,0.250000X0.337500X0.475000X-0.337500X0.475000X-0.337500X-0.475000X0.337500X-0.475000X0*%
%ADD23RoundRect,0.250000X-0.337500X-0.475000X0.337500X-0.475000X0.337500X0.475000X-0.337500X0.475000X0*%
%ADD24R,0.650000X1.050000*%
%ADD25RoundRect,0.250000X0.574524X0.097227X0.097227X0.574524X-0.574524X-0.097227X-0.097227X-0.574524X0*%
%ADD26RoundRect,0.250000X0.325000X0.450000X-0.325000X0.450000X-0.325000X-0.450000X0.325000X-0.450000X0*%
%ADD27RoundRect,0.150000X-0.512500X-0.150000X0.512500X-0.150000X0.512500X0.150000X-0.512500X0.150000X0*%
%ADD28RoundRect,0.250000X-0.450000X0.325000X-0.450000X-0.325000X0.450000X-0.325000X0.450000X0.325000X0*%
%ADD29RoundRect,0.250000X-0.325000X-0.450000X0.325000X-0.450000X0.325000X0.450000X-0.325000X0.450000X0*%
%ADD30RoundRect,0.200000X-0.200000X0.700000X-0.200000X-0.700000X0.200000X-0.700000X0.200000X0.700000X0*%
%ADD31RoundRect,0.250000X0.565685X0.070711X0.070711X0.565685X-0.565685X-0.070711X-0.070711X-0.565685X0*%
%ADD32RoundRect,0.375000X-0.375000X0.625000X-0.375000X-0.625000X0.375000X-0.625000X0.375000X0.625000X0*%
%ADD33RoundRect,0.500000X-1.400000X0.500000X-1.400000X-0.500000X1.400000X-0.500000X1.400000X0.500000X0*%
%ADD34RotRect,1.500000X0.900000X45.000000*%
%ADD35RotRect,1.500000X0.900000X135.000000*%
%ADD36RotRect,1.500000X0.900000X225.000000*%
%ADD37RotRect,0.900000X0.900000X225.000000*%
%ADD38RoundRect,0.250000X-0.262500X-0.450000X0.262500X-0.450000X0.262500X0.450000X-0.262500X0.450000X0*%
%ADD39R,0.740000X2.790000*%
%ADD40R,0.450000X1.475000*%
%ADD41R,0.910000X0.910000*%
%ADD42R,0.460000X0.910000*%
%ADD43RoundRect,0.250000X-0.475000X0.337500X-0.475000X-0.337500X0.475000X-0.337500X0.475000X0.337500X0*%
%ADD44RoundRect,0.250000X0.070711X-0.565685X0.565685X-0.070711X-0.070711X0.565685X-0.565685X0.070711X0*%
%ADD45RoundRect,0.375000X-0.625000X-0.375000X0.625000X-0.375000X0.625000X0.375000X-0.625000X0.375000X0*%
%ADD46RoundRect,0.500000X-0.500000X-1.400000X0.500000X-1.400000X0.500000X1.400000X-0.500000X1.400000X0*%
%ADD47RoundRect,0.250000X-0.070711X0.565685X-0.565685X0.070711X0.070711X-0.565685X0.565685X-0.070711X0*%
%ADD48RoundRect,0.250000X-0.574524X-0.097227X-0.097227X-0.574524X0.574524X0.097227X0.097227X0.574524X0*%
%ADD49RoundRect,0.150000X-0.825000X-0.150000X0.825000X-0.150000X0.825000X0.150000X-0.825000X0.150000X0*%
G04 APERTURE END LIST*
D10*
X172300000Y-84000000D03*
D11*
X176200000Y-84000000D03*
D12*
X99248060Y-62516250D03*
X101248060Y-62516250D03*
D13*
X60750000Y-106237500D03*
X60750000Y-104162500D03*
D14*
X66384169Y-43402010D03*
X65486144Y-42503984D03*
X64588118Y-41605959D03*
X63690092Y-40707933D03*
X62792067Y-39809908D03*
X61894041Y-38911882D03*
X60996016Y-38013856D03*
X60097990Y-37115831D03*
X53415831Y-43797990D03*
X54313856Y-44696016D03*
X55211882Y-45594041D03*
X56109908Y-46492067D03*
X57007933Y-47390092D03*
X57905959Y-48288118D03*
X58803984Y-49186144D03*
X59702010Y-50084169D03*
D15*
X83950000Y-101300000D03*
X83950000Y-103300000D03*
D16*
X177225000Y-104769999D03*
X177225000Y-102720001D03*
D15*
X81750000Y-101300000D03*
X81750000Y-103300000D03*
D17*
X172450000Y-60840000D03*
X172450000Y-58840000D03*
X107734448Y-60840000D03*
X107734448Y-58840000D03*
D18*
X102170560Y-59570000D03*
X99045560Y-59570000D03*
D19*
X88711672Y-64916250D03*
X91611672Y-64916250D03*
D20*
X118020837Y-66616250D03*
X116020837Y-66616250D03*
D21*
X70375000Y-50650000D03*
X70375000Y-47750000D03*
D17*
X161666388Y-60840000D03*
X161666388Y-58840000D03*
D22*
X67687500Y-106300000D03*
X65612500Y-106300000D03*
D23*
X158462500Y-89250000D03*
X160537500Y-89250000D03*
D24*
X32105000Y-45753333D03*
X32105000Y-49903333D03*
X29955000Y-45753333D03*
X29955000Y-49903333D03*
D18*
X156102500Y-59570000D03*
X152977500Y-59570000D03*
D22*
X71587500Y-106300000D03*
X69512500Y-106300000D03*
X154287500Y-83500000D03*
X152212500Y-83500000D03*
D15*
X148480001Y-58840000D03*
X148480001Y-60840000D03*
D25*
X39100000Y-63977713D03*
X37632754Y-62510467D03*
D12*
X126500000Y-96750000D03*
X128500000Y-96750000D03*
D20*
X150180001Y-64316250D03*
X148180001Y-64316250D03*
D15*
X75200000Y-33000000D03*
X75200000Y-35000000D03*
D26*
X165250000Y-83750000D03*
X163200002Y-83750000D03*
D27*
X167745000Y-84455000D03*
X167745000Y-85405000D03*
X167745000Y-86355000D03*
X170020000Y-86355000D03*
X170020000Y-85405000D03*
X170020000Y-84455000D03*
D28*
X148500000Y-86475001D03*
X148500000Y-88524999D03*
D18*
X112956948Y-59570000D03*
X109831948Y-59570000D03*
D19*
X142643612Y-64916250D03*
X145543612Y-64916250D03*
D15*
X177270000Y-98500000D03*
X177270000Y-100500000D03*
D29*
X124475001Y-84500000D03*
X126524999Y-84500000D03*
D15*
X86150000Y-101300000D03*
X86150000Y-103300000D03*
D20*
X171750000Y-64316250D03*
X169750000Y-64316250D03*
D15*
X94548061Y-58840000D03*
X94548061Y-60840000D03*
D30*
X65725000Y-57100000D03*
X63825000Y-57100000D03*
X64775000Y-60400000D03*
D19*
X131857224Y-64916250D03*
X134757224Y-64916250D03*
D20*
X107034449Y-64316250D03*
X105034449Y-64316250D03*
D19*
X121070836Y-64916250D03*
X123970836Y-64916250D03*
D27*
X151975000Y-85550000D03*
X151975000Y-86500000D03*
X151975000Y-87450000D03*
X154250000Y-87450000D03*
X154250000Y-86500000D03*
X154250000Y-85550000D03*
D20*
X161166389Y-66616250D03*
X159166389Y-66616250D03*
D19*
X77925284Y-64916250D03*
X80825284Y-64916250D03*
D12*
X88461672Y-62516250D03*
X90461672Y-62516250D03*
D19*
X153430000Y-64916250D03*
X156330000Y-64916250D03*
D12*
X77675284Y-62516250D03*
X79675284Y-62516250D03*
D31*
X41107107Y-42507107D03*
X39692893Y-41092893D03*
D12*
X163966388Y-62516250D03*
X165966388Y-62516250D03*
D17*
X96948060Y-60840000D03*
X96948060Y-58840000D03*
D20*
X85461673Y-64316250D03*
X83461673Y-64316250D03*
D18*
X80597784Y-59570000D03*
X77472784Y-59570000D03*
D15*
X137693613Y-58840000D03*
X137693613Y-60840000D03*
D13*
X122000000Y-87037500D03*
X122000000Y-84962500D03*
D18*
X91384172Y-59570000D03*
X88259172Y-59570000D03*
D12*
X68575000Y-54350000D03*
X70575000Y-54350000D03*
X110034448Y-62516250D03*
X112034448Y-62516250D03*
D23*
X37062500Y-53400000D03*
X39137500Y-53400000D03*
D15*
X173000000Y-98500000D03*
X173000000Y-100500000D03*
D23*
X58762500Y-96750000D03*
X60837500Y-96750000D03*
D32*
X129300000Y-87100000D03*
X127000000Y-87100000D03*
D33*
X127000000Y-93400000D03*
D32*
X124700000Y-87100000D03*
D22*
X156575000Y-89240000D03*
X154500000Y-89240000D03*
D15*
X105334449Y-58840000D03*
X105334449Y-60840000D03*
D16*
X175135000Y-104769999D03*
X175135000Y-102720001D03*
D17*
X140093612Y-60840000D03*
X140093612Y-58840000D03*
D34*
X37799907Y-71926357D03*
X38697932Y-72824383D03*
X39595958Y-73722409D03*
X40493983Y-74620434D03*
X41392009Y-75518460D03*
X42290035Y-76416485D03*
X43188060Y-77314511D03*
X44086086Y-78212537D03*
X44984112Y-79110562D03*
X45882137Y-80008588D03*
X46780163Y-80906613D03*
X47678188Y-81804639D03*
X48576214Y-82702665D03*
X49474240Y-83600690D03*
D35*
X51606167Y-83236530D03*
X52504192Y-82338505D03*
X53402218Y-81440479D03*
X54300243Y-80542453D03*
X55198269Y-79644428D03*
X56096295Y-78746402D03*
X56994320Y-77848377D03*
X57892346Y-76950351D03*
X58790371Y-76052325D03*
X59688397Y-75154300D03*
X60586423Y-74256274D03*
X61484448Y-73358249D03*
D36*
X61848608Y-71226322D03*
X60950583Y-70328296D03*
X60052557Y-69430270D03*
X59154531Y-68532245D03*
X58256506Y-67634219D03*
X57358480Y-66736194D03*
X56460455Y-65838168D03*
X55562429Y-64940142D03*
X54664403Y-64042117D03*
X53766378Y-63144091D03*
X52868352Y-62246065D03*
X51970327Y-61348040D03*
X51072301Y-60450014D03*
X50174275Y-59551989D03*
D37*
X46405396Y-72258698D03*
X47395346Y-73248647D03*
X48385295Y-74238596D03*
X47395346Y-71268748D03*
X48385295Y-72258698D03*
X49375245Y-73248647D03*
X48385295Y-70278799D03*
X49375245Y-71268748D03*
X50365194Y-72258698D03*
D22*
X168037500Y-88250000D03*
X165962500Y-88250000D03*
D17*
X35500000Y-59500000D03*
X35500000Y-57500000D03*
D25*
X40500000Y-62577713D03*
X39032754Y-61110467D03*
D22*
X172037500Y-88250000D03*
X169962500Y-88250000D03*
D12*
X174750000Y-62516250D03*
X176750000Y-62516250D03*
D17*
X75375284Y-60840000D03*
X75375284Y-58840000D03*
D12*
X142393612Y-62516250D03*
X144393612Y-62516250D03*
D20*
X107234449Y-66616250D03*
X105234449Y-66616250D03*
D19*
X164216388Y-64916250D03*
X167116388Y-64916250D03*
D13*
X122425000Y-103902500D03*
X122425000Y-101827500D03*
D17*
X129307224Y-60840000D03*
X129307224Y-58840000D03*
D19*
X99498060Y-64916250D03*
X102398060Y-64916250D03*
D15*
X126907225Y-58840000D03*
X126907225Y-60840000D03*
D19*
X110284448Y-64916250D03*
X113184448Y-64916250D03*
D17*
X118520836Y-60840000D03*
X118520836Y-58840000D03*
D20*
X96448061Y-66616250D03*
X94448061Y-66616250D03*
D38*
X128587500Y-84500000D03*
X130412500Y-84500000D03*
D15*
X75200000Y-29040202D03*
X75200000Y-31040202D03*
D12*
X64500000Y-54350000D03*
X66500000Y-54350000D03*
D39*
X43640000Y-29492500D03*
X43640000Y-33562500D03*
X42370000Y-29492500D03*
X42370000Y-33562500D03*
X41100000Y-29492500D03*
X41100000Y-33562500D03*
X39830000Y-29492500D03*
X39830000Y-33562500D03*
X38560000Y-29492500D03*
X38560000Y-33562500D03*
D18*
X145316112Y-59570000D03*
X142191112Y-59570000D03*
D20*
X171950000Y-66616250D03*
X169950000Y-66616250D03*
D18*
X166888888Y-59570000D03*
X163763888Y-59570000D03*
D17*
X132675000Y-102915000D03*
X132675000Y-100915000D03*
D40*
X64475000Y-104138000D03*
X65125000Y-104138000D03*
X65775000Y-104138000D03*
X66425000Y-104138000D03*
X67075000Y-104138000D03*
X67725000Y-104138000D03*
X68375000Y-104138000D03*
X69025000Y-104138000D03*
X69025000Y-98262000D03*
X68375000Y-98262000D03*
X67725000Y-98262000D03*
X67075000Y-98262000D03*
X66425000Y-98262000D03*
X65775000Y-98262000D03*
X65125000Y-98262000D03*
X64475000Y-98262000D03*
D41*
X41240000Y-92850000D03*
D42*
X42960000Y-92850000D03*
X42960000Y-90550000D03*
X41040000Y-90550000D03*
D20*
X139593613Y-66616250D03*
X137593613Y-66616250D03*
D18*
X134529724Y-59570000D03*
X131404724Y-59570000D03*
D19*
X175000000Y-64916250D03*
X177900000Y-64916250D03*
D39*
X34880000Y-29492500D03*
X34880000Y-33562500D03*
X33610000Y-29492500D03*
X33610000Y-33562500D03*
X32340000Y-29492500D03*
X32340000Y-33562500D03*
D38*
X131837500Y-87000000D03*
X133662500Y-87000000D03*
D26*
X165274999Y-86000000D03*
X163225001Y-86000000D03*
D15*
X170050000Y-58840000D03*
X170050000Y-60840000D03*
D13*
X131750000Y-93537500D03*
X131750000Y-91462500D03*
D20*
X85661673Y-66616250D03*
X83661673Y-66616250D03*
D43*
X134849999Y-93562500D03*
X134849999Y-95637500D03*
D12*
X131607224Y-62516250D03*
X133607224Y-62516250D03*
D44*
X48792893Y-44307107D03*
X50207107Y-42892893D03*
D17*
X86161672Y-60840000D03*
X86161672Y-58840000D03*
D31*
X38707107Y-44907107D03*
X37292893Y-43492893D03*
D45*
X137199999Y-84700000D03*
X137200000Y-87000000D03*
D46*
X143499998Y-87000000D03*
D45*
X137199999Y-89300000D03*
D47*
X63432107Y-49467893D03*
X62017893Y-50882107D03*
D29*
X65525001Y-50850000D03*
X67574999Y-50850000D03*
D13*
X60750000Y-102237500D03*
X60750000Y-100162500D03*
D12*
X153180000Y-62516250D03*
X155180000Y-62516250D03*
D44*
X46392893Y-41907107D03*
X47807107Y-40492893D03*
D23*
X173962500Y-88250000D03*
X176037500Y-88250000D03*
D22*
X152787500Y-89250000D03*
X150712500Y-89250000D03*
D20*
X150380001Y-66616250D03*
X148380001Y-66616250D03*
D15*
X159266389Y-58840000D03*
X159266389Y-60840000D03*
D20*
X96248061Y-64316250D03*
X94248061Y-64316250D03*
X160966389Y-64316250D03*
X158966389Y-64316250D03*
D24*
X29950000Y-57700000D03*
X29950000Y-53550000D03*
X32100000Y-57700000D03*
X32100000Y-53550000D03*
D48*
X55166377Y-48766377D03*
X56633623Y-50233623D03*
D22*
X170037500Y-82500000D03*
X167962500Y-82500000D03*
D15*
X116120837Y-58840000D03*
X116120837Y-60840000D03*
D20*
X117820837Y-64316250D03*
X115820837Y-64316250D03*
D15*
X83761673Y-58840000D03*
X83761673Y-60840000D03*
D20*
X128607225Y-64316250D03*
X126607225Y-64316250D03*
D49*
X125050000Y-100960000D03*
X125050000Y-102230000D03*
X125050000Y-103500000D03*
X125050000Y-104770000D03*
X130000000Y-104770000D03*
X130000000Y-103500000D03*
X130000000Y-102230000D03*
X130000000Y-100960000D03*
D18*
X177672500Y-59570000D03*
X174547500Y-59570000D03*
D12*
X120820836Y-62516250D03*
X122820836Y-62516250D03*
D15*
X175135000Y-98500000D03*
X175135000Y-100500000D03*
D17*
X150880000Y-60840000D03*
X150880000Y-58840000D03*
D15*
X73078680Y-33000000D03*
X73078680Y-35000000D03*
D22*
X31537500Y-61900000D03*
X29462500Y-61900000D03*
D20*
X74675285Y-64316250D03*
X72675285Y-64316250D03*
D16*
X173045000Y-104769999D03*
X173045000Y-102720001D03*
D15*
X72975285Y-58840000D03*
X72975285Y-60840000D03*
D16*
X134849999Y-91624999D03*
X134849999Y-89575001D03*
D20*
X74875285Y-66616250D03*
X72875285Y-66616250D03*
D18*
X123743336Y-59570000D03*
X120618336Y-59570000D03*
D10*
X156800000Y-85000000D03*
D11*
X160700000Y-85000000D03*
D21*
X70400000Y-45400000D03*
X70400000Y-42500000D03*
D20*
X139393613Y-64316250D03*
X137393613Y-64316250D03*
D15*
X73078680Y-29040202D03*
X73078680Y-31040202D03*
D30*
X69825000Y-57100000D03*
X67925000Y-57100000D03*
X68875000Y-60400000D03*
D20*
X128807225Y-66616250D03*
X126807225Y-66616250D03*
D23*
X47362500Y-93200000D03*
X49437500Y-93200000D03*
M02*
