G04 #@! TF.GenerationSoftware,KiCad,Pcbnew,8.0.8*
G04 #@! TF.CreationDate,2025-06-15T11:51:57+02:00*
G04 #@! TF.ProjectId,OverlordDimmer,4f766572-6c6f-4726-9444-696d6d65722e,rev?*
G04 #@! TF.SameCoordinates,Original*
G04 #@! TF.FileFunction,Soldermask,Top*
G04 #@! TF.FilePolarity,Negative*
%FSLAX46Y46*%
G04 Gerber Fmt 4.6, Leading zero omitted, Abs format (unit mm)*
G04 Created by KiCad (PCBNEW 8.0.8) date 2025-06-15 11:51:57*
%MOMM*%
%LPD*%
G01*
G04 APERTURE LIST*
G04 Aperture macros list*
%AMRoundRect*
0 Rectangle with rounded corners*
0 $1 Rounding radius*
0 $2 $3 $4 $5 $6 $7 $8 $9 X,Y pos of 4 corners*
0 Add a 4 corners polygon primitive as box body*
4,1,4,$2,$3,$4,$5,$6,$7,$8,$9,$2,$3,0*
0 Add four circle primitives for the rounded corners*
1,1,$1+$1,$2,$3*
1,1,$1+$1,$4,$5*
1,1,$1+$1,$6,$7*
1,1,$1+$1,$8,$9*
0 Add four rect primitives between the rounded corners*
20,1,$1+$1,$2,$3,$4,$5,0*
20,1,$1+$1,$4,$5,$6,$7,0*
20,1,$1+$1,$6,$7,$8,$9,0*
20,1,$1+$1,$8,$9,$2,$3,0*%
%AMHorizOval*
0 Thick line with rounded ends*
0 $1 width*
0 $2 $3 position (X,Y) of the first rounded end (center of the circle)*
0 $4 $5 position (X,Y) of the second rounded end (center of the circle)*
0 Add line between two ends*
20,1,$1,$2,$3,$4,$5,0*
0 Add two circle primitives to create the rounded ends*
1,1,$1,$2,$3*
1,1,$1,$4,$5*%
%AMRotRect*
0 Rectangle, with rotation*
0 The origin of the aperture is its center*
0 $1 length*
0 $2 width*
0 $3 Rotation angle, in degrees counterclockwise*
0 Add horizontal line*
21,1,$1,$2,0,0,$3*%
%AMOutline5P*
0 Free polygon, 5 corners , with rotation*
0 The origin of the aperture is its center*
0 number of corners: always 5*
0 $1 to $10 corner X, Y*
0 $11 Rotation angle, in degrees counterclockwise*
0 create outline with 5 corners*
4,1,5,$1,$2,$3,$4,$5,$6,$7,$8,$9,$10,$1,$2,$11*%
%AMOutline6P*
0 Free polygon, 6 corners , with rotation*
0 The origin of the aperture is its center*
0 number of corners: always 6*
0 $1 to $12 corner X, Y*
0 $13 Rotation angle, in degrees counterclockwise*
0 create outline with 6 corners*
4,1,6,$1,$2,$3,$4,$5,$6,$7,$8,$9,$10,$11,$12,$1,$2,$13*%
%AMOutline7P*
0 Free polygon, 7 corners , with rotation*
0 The origin of the aperture is its center*
0 number of corners: always 7*
0 $1 to $14 corner X, Y*
0 $15 Rotation angle, in degrees counterclockwise*
0 create outline with 7 corners*
4,1,7,$1,$2,$3,$4,$5,$6,$7,$8,$9,$10,$11,$12,$13,$14,$1,$2,$15*%
%AMOutline8P*
0 Free polygon, 8 corners , with rotation*
0 The origin of the aperture is its center*
0 number of corners: always 8*
0 $1 to $16 corner X, Y*
0 $17 Rotation angle, in degrees counterclockwise*
0 create outline with 8 corners*
4,1,8,$1,$2,$3,$4,$5,$6,$7,$8,$9,$10,$11,$12,$13,$14,$15,$16,$1,$2,$17*%
%AMFreePoly0*
4,1,19,0.499999,-0.750000,0.000000,-0.750000,0.000000,-0.744912,-0.071157,-0.744911,-0.207708,-0.704816,-0.327430,-0.627875,-0.420627,-0.520320,-0.479746,-0.390866,-0.500000,-0.250000,-0.500000,0.250000,-0.479746,0.390866,-0.420627,0.520320,-0.327430,0.627875,-0.207708,0.704816,-0.071157,0.744911,0.000000,0.744912,0.000000,0.750000,0.499999,0.750000,0.499999,-0.750000,0.499999,-0.750000,
$1*%
%AMFreePoly1*
4,1,19,0.000000,0.744912,0.071157,0.744911,0.207708,0.704816,0.327430,0.627875,0.420627,0.520320,0.479746,0.390866,0.500000,0.250000,0.500000,-0.250000,0.479746,-0.390866,0.420627,-0.520320,0.327430,-0.627875,0.207708,-0.704816,0.071157,-0.744911,0.000000,-0.744912,0.000000,-0.750000,-0.499999,-0.750000,-0.499999,0.750000,0.000000,0.750000,0.000000,0.744912,0.000000,0.744912,
$1*%
G04 Aperture macros list end*
%ADD10Outline6P,-2.900000X0.630000X-2.480000X1.050000X2.480000X1.050000X2.900000X0.630000X2.900000X-1.050000X-2.900000X-1.050000X90.000000*%
%ADD11Outline6P,-2.900000X0.630000X-2.480000X1.050000X2.480000X1.050000X2.900000X0.630000X2.900000X-1.050000X-2.900000X-1.050000X270.000000*%
%ADD12R,2.000000X1.905000*%
%ADD13O,2.000000X1.905000*%
%ADD14R,1.700000X1.700000*%
%ADD15FreePoly0,225.000000*%
%ADD16FreePoly1,225.000000*%
%ADD17FreePoly0,135.000000*%
%ADD18FreePoly1,135.000000*%
%ADD19RoundRect,0.250000X-0.350000X-0.450000X0.350000X-0.450000X0.350000X0.450000X-0.350000X0.450000X0*%
%ADD20R,1.500000X1.050000*%
%ADD21O,1.500000X1.050000*%
%ADD22RoundRect,0.250000X0.475000X-0.337500X0.475000X0.337500X-0.475000X0.337500X-0.475000X-0.337500X0*%
%ADD23RotRect,0.650000X1.950000X315.000000*%
%ADD24RoundRect,0.250000X-0.450000X0.350000X-0.450000X-0.350000X0.450000X-0.350000X0.450000X0.350000X0*%
%ADD25RoundRect,0.250000X0.450000X-0.325000X0.450000X0.325000X-0.450000X0.325000X-0.450000X-0.325000X0*%
%ADD26RoundRect,0.250000X0.450000X-0.350000X0.450000X0.350000X-0.450000X0.350000X-0.450000X-0.350000X0*%
%ADD27RoundRect,0.250000X0.412500X1.100000X-0.412500X1.100000X-0.412500X-1.100000X0.412500X-1.100000X0*%
%ADD28R,1.600000X1.600000*%
%ADD29O,1.600000X1.600000*%
%ADD30RoundRect,0.250000X-0.400000X-0.450000X0.400000X-0.450000X0.400000X0.450000X-0.400000X0.450000X0*%
%ADD31RoundRect,0.250000X0.350000X0.450000X-0.350000X0.450000X-0.350000X-0.450000X0.350000X-0.450000X0*%
%ADD32RoundRect,0.250000X0.450000X-0.400000X0.450000X0.400000X-0.450000X0.400000X-0.450000X-0.400000X0*%
%ADD33RoundRect,0.250000X0.337500X0.475000X-0.337500X0.475000X-0.337500X-0.475000X0.337500X-0.475000X0*%
%ADD34RoundRect,0.250000X-0.337500X-0.475000X0.337500X-0.475000X0.337500X0.475000X-0.337500X0.475000X0*%
%ADD35R,0.650000X1.050000*%
%ADD36RotRect,1.700000X1.700000X45.000000*%
%ADD37FreePoly0,45.000000*%
%ADD38FreePoly1,45.000000*%
%ADD39RoundRect,0.250000X0.574524X0.097227X0.097227X0.574524X-0.574524X-0.097227X-0.097227X-0.574524X0*%
%ADD40FreePoly0,315.000000*%
%ADD41FreePoly1,315.000000*%
%ADD42RoundRect,0.250000X0.325000X0.450000X-0.325000X0.450000X-0.325000X-0.450000X0.325000X-0.450000X0*%
%ADD43RoundRect,0.150000X-0.512500X-0.150000X0.512500X-0.150000X0.512500X0.150000X-0.512500X0.150000X0*%
%ADD44RoundRect,0.250000X-0.450000X0.325000X-0.450000X-0.325000X0.450000X-0.325000X0.450000X0.325000X0*%
%ADD45RoundRect,0.550000X0.550000X0.550000X-0.550000X0.550000X-0.550000X-0.550000X0.550000X-0.550000X0*%
%ADD46C,2.200000*%
%ADD47O,1.700000X1.700000*%
%ADD48RoundRect,0.250000X-0.325000X-0.450000X0.325000X-0.450000X0.325000X0.450000X-0.325000X0.450000X0*%
%ADD49R,2.100000X2.100000*%
%ADD50C,2.100000*%
%ADD51RoundRect,0.200000X-0.200000X0.700000X-0.200000X-0.700000X0.200000X-0.700000X0.200000X0.700000X0*%
%ADD52C,1.500000*%
%ADD53RoundRect,0.250000X0.400000X-0.650000X0.400000X0.650000X-0.400000X0.650000X-0.400000X-0.650000X0*%
%ADD54O,1.300000X1.800000*%
%ADD55RoundRect,0.250000X0.565685X0.070711X0.070711X0.565685X-0.565685X-0.070711X-0.070711X-0.565685X0*%
%ADD56RotRect,1.000000X1.000000X315.000000*%
%ADD57HorizOval,1.000000X0.000000X0.000000X0.000000X0.000000X0*%
%ADD58RoundRect,0.375000X-0.375000X0.625000X-0.375000X-0.625000X0.375000X-0.625000X0.375000X0.625000X0*%
%ADD59RoundRect,0.500000X-1.400000X0.500000X-1.400000X-0.500000X1.400000X-0.500000X1.400000X0.500000X0*%
%ADD60RotRect,1.700000X1.700000X225.000000*%
%ADD61RotRect,1.500000X0.900000X45.000000*%
%ADD62RotRect,1.500000X0.900000X135.000000*%
%ADD63RotRect,1.500000X0.900000X225.000000*%
%ADD64RotRect,0.900000X0.900000X225.000000*%
%ADD65RoundRect,0.250000X-0.262500X-0.450000X0.262500X-0.450000X0.262500X0.450000X-0.262500X0.450000X0*%
%ADD66R,0.740000X2.790000*%
%ADD67R,0.450000X1.475000*%
%ADD68R,0.910000X0.910000*%
%ADD69R,0.460000X0.910000*%
%ADD70R,0.840000X0.840000*%
%ADD71C,0.840000*%
%ADD72C,1.850000*%
%ADD73C,1.562000*%
%ADD74C,4.877000*%
%ADD75RoundRect,0.250000X-0.475000X0.337500X-0.475000X-0.337500X0.475000X-0.337500X0.475000X0.337500X0*%
%ADD76RoundRect,0.250000X0.070711X-0.565685X0.565685X-0.070711X-0.070711X0.565685X-0.565685X0.070711X0*%
%ADD77RoundRect,0.375000X-0.625000X-0.375000X0.625000X-0.375000X0.625000X0.375000X-0.625000X0.375000X0*%
%ADD78RoundRect,0.500000X-0.500000X-1.400000X0.500000X-1.400000X0.500000X1.400000X-0.500000X1.400000X0*%
%ADD79RoundRect,0.250000X-0.070711X0.565685X-0.565685X0.070711X0.070711X-0.565685X0.565685X-0.070711X0*%
%ADD80RoundRect,0.250000X-0.574524X-0.097227X-0.097227X-0.574524X0.574524X0.097227X0.097227X0.574524X0*%
%ADD81RoundRect,0.150000X-0.825000X-0.150000X0.825000X-0.150000X0.825000X0.150000X-0.825000X0.150000X0*%
G04 APERTURE END LIST*
D10*
X172300000Y-84000000D03*
D11*
X176200000Y-84000000D03*
D12*
X75120284Y-47580000D03*
D13*
X75120284Y-45040000D03*
X75120284Y-42500000D03*
D14*
X82658334Y-77900000D03*
D15*
X48349940Y-89208048D03*
D16*
X47430702Y-90127286D03*
D17*
X44794761Y-57761439D03*
D18*
X43875523Y-56842201D03*
D19*
X99248060Y-62516250D03*
X101248060Y-62516250D03*
D20*
X89561672Y-53700000D03*
D21*
X89561672Y-54970000D03*
X89561672Y-56240000D03*
D22*
X60750000Y-106237500D03*
X60750000Y-104162500D03*
D23*
X66384169Y-43402010D03*
X65486144Y-42503984D03*
X64588118Y-41605959D03*
X63690092Y-40707933D03*
X62792067Y-39809908D03*
X61894041Y-38911882D03*
X60996016Y-38013856D03*
X60097990Y-37115831D03*
X53415831Y-43797990D03*
X54313856Y-44696016D03*
X55211882Y-45594041D03*
X56109908Y-46492067D03*
X57007933Y-47390092D03*
X57905959Y-48288118D03*
X58803984Y-49186144D03*
X59702010Y-50084169D03*
D24*
X83950000Y-101300000D03*
X83950000Y-103300000D03*
D25*
X177225000Y-104769999D03*
X177225000Y-102720001D03*
D17*
X48338152Y-54218050D03*
D18*
X47418914Y-53298812D03*
D24*
X81750000Y-101300000D03*
X81750000Y-103300000D03*
D26*
X172450000Y-60840000D03*
X172450000Y-58840000D03*
X107734448Y-60840000D03*
X107734448Y-58840000D03*
D27*
X102170560Y-59570000D03*
X99045560Y-59570000D03*
D28*
X94648061Y-69391250D03*
D29*
X94648061Y-71931250D03*
X94648061Y-74471250D03*
X102268061Y-74471250D03*
X102268061Y-71931250D03*
X102268061Y-69391250D03*
D14*
X153436111Y-77900000D03*
D30*
X88711672Y-64916250D03*
X91611672Y-64916250D03*
D17*
X46566457Y-55989743D03*
D18*
X45647219Y-55070505D03*
D31*
X118020837Y-66616250D03*
X116020837Y-66616250D03*
D32*
X70375000Y-50650000D03*
X70375000Y-47750000D03*
D17*
X35936287Y-66619913D03*
D18*
X35017049Y-65700675D03*
D15*
X34172449Y-75101268D03*
D16*
X33253211Y-76020506D03*
D26*
X161666388Y-60840000D03*
X161666388Y-58840000D03*
D12*
X118265836Y-47580000D03*
D13*
X118265836Y-45040000D03*
X118265836Y-42500000D03*
D15*
X44814406Y-85672514D03*
D16*
X43895168Y-86591752D03*
D33*
X67687500Y-106300000D03*
X65612500Y-106300000D03*
D34*
X158462500Y-89250000D03*
X160537500Y-89250000D03*
D35*
X32105000Y-45753333D03*
X32105000Y-49903333D03*
X29955000Y-45753333D03*
X29955000Y-49903333D03*
D27*
X156102500Y-59570000D03*
X152977500Y-59570000D03*
D33*
X71587500Y-106300000D03*
X69512500Y-106300000D03*
D36*
X34545585Y-82254415D03*
D37*
X51517778Y-54220404D03*
D38*
X52437016Y-53301166D03*
D12*
X80220284Y-47580000D03*
D13*
X80220284Y-45040000D03*
X80220284Y-42500000D03*
D12*
X85906672Y-47580000D03*
D13*
X85906672Y-45040000D03*
X85906672Y-42500000D03*
D15*
X41278872Y-82136980D03*
D16*
X40359634Y-83056218D03*
D14*
X112991667Y-77900000D03*
D33*
X154287500Y-83500000D03*
X152212500Y-83500000D03*
D24*
X148480001Y-58840000D03*
X148480001Y-60840000D03*
D39*
X39100000Y-63977713D03*
X37632754Y-62510467D03*
D19*
X126500000Y-96750000D03*
X128500000Y-96750000D03*
D31*
X150180001Y-64316250D03*
X148180001Y-64316250D03*
D24*
X75200000Y-33000000D03*
X75200000Y-35000000D03*
D28*
X137793613Y-69391250D03*
D29*
X137793613Y-71931250D03*
X137793613Y-74471250D03*
X145413613Y-74471250D03*
X145413613Y-71931250D03*
X145413613Y-69391250D03*
D14*
X173641667Y-77900000D03*
D40*
X55067455Y-85672514D03*
D41*
X55986693Y-86591752D03*
D42*
X165250000Y-83750000D03*
X163200002Y-83750000D03*
D43*
X167745000Y-84455000D03*
X167745000Y-85405000D03*
X167745000Y-86355000D03*
X170020000Y-86355000D03*
X170020000Y-85405000D03*
X170020000Y-84455000D03*
D20*
X117740837Y-56240000D03*
D21*
X117740837Y-54970000D03*
X117740837Y-53700000D03*
D12*
X166511388Y-47580000D03*
D13*
X166511388Y-45040000D03*
X166511388Y-42500000D03*
D44*
X148500000Y-86475001D03*
X148500000Y-88524999D03*
D20*
X100348060Y-53700000D03*
D21*
X100348060Y-54970000D03*
X100348060Y-56240000D03*
D17*
X32404681Y-70151519D03*
D18*
X31485443Y-69232281D03*
D14*
X33800000Y-101320000D03*
D28*
X159366389Y-69391250D03*
D29*
X159366389Y-71931250D03*
X159366389Y-74471250D03*
X166986389Y-74471250D03*
X166986389Y-71931250D03*
X166986389Y-69391250D03*
D37*
X63892148Y-66594772D03*
D38*
X64811386Y-65675534D03*
D12*
X150625000Y-47580000D03*
D13*
X150625000Y-45040000D03*
X150625000Y-42500000D03*
D14*
X143325000Y-77900000D03*
D27*
X112956948Y-59570000D03*
X109831948Y-59570000D03*
D20*
X171670000Y-56240000D03*
D21*
X171670000Y-54970000D03*
X171670000Y-53700000D03*
D30*
X142643612Y-64916250D03*
X145543612Y-64916250D03*
D40*
X53299688Y-87440281D03*
D41*
X54218926Y-88359519D03*
D45*
X68100000Y-33900000D03*
X68100000Y-28900000D03*
D46*
X50300000Y-33900000D03*
X50300000Y-28900000D03*
D14*
X175000000Y-92750000D03*
D20*
X78775284Y-53700000D03*
D21*
X78775284Y-54970000D03*
X78775284Y-56240000D03*
D20*
X132707224Y-53700000D03*
D21*
X132707224Y-54970000D03*
X132707224Y-56240000D03*
D28*
X170150000Y-69391250D03*
D29*
X170150000Y-71931250D03*
X170150000Y-74471250D03*
X177770000Y-74471250D03*
X177770000Y-71931250D03*
X177770000Y-69391250D03*
D14*
X136250000Y-101525000D03*
D47*
X136250000Y-98985000D03*
D24*
X177270000Y-98500000D03*
X177270000Y-100500000D03*
D48*
X124475001Y-84500000D03*
X126524999Y-84500000D03*
D24*
X86150000Y-101300000D03*
X86150000Y-103300000D03*
D31*
X171750000Y-64316250D03*
X169750000Y-64316250D03*
D12*
X177295000Y-47580000D03*
D13*
X177295000Y-45040000D03*
X177295000Y-42500000D03*
D24*
X94548061Y-58840000D03*
X94548061Y-60840000D03*
D49*
X175740000Y-35550000D03*
D50*
X170660000Y-35550000D03*
X165580000Y-35550000D03*
X160500000Y-35550000D03*
X155420000Y-35550000D03*
X150340000Y-35550000D03*
X145260000Y-35550000D03*
X140180000Y-35550000D03*
X135100000Y-35550000D03*
D51*
X65725000Y-57100000D03*
X63825000Y-57100000D03*
X64775000Y-60400000D03*
D30*
X131857224Y-64916250D03*
X134757224Y-64916250D03*
D31*
X107034449Y-64316250D03*
X105034449Y-64316250D03*
D15*
X39511105Y-80369213D03*
D16*
X38591867Y-81288451D03*
D30*
X121070836Y-64916250D03*
X123970836Y-64916250D03*
D28*
X127007225Y-69391250D03*
D29*
X127007225Y-71931250D03*
X127007225Y-74471250D03*
X134627225Y-74471250D03*
X134627225Y-71931250D03*
X134627225Y-69391250D03*
D43*
X151975000Y-85550000D03*
X151975000Y-86500000D03*
X151975000Y-87450000D03*
X154250000Y-87450000D03*
X154250000Y-86500000D03*
X154250000Y-85550000D03*
D15*
X35975571Y-76833679D03*
D16*
X35056333Y-77752917D03*
D37*
X55053312Y-57755937D03*
D38*
X55972550Y-56836699D03*
D31*
X161166389Y-66616250D03*
X159166389Y-66616250D03*
D30*
X77925284Y-64916250D03*
X80825284Y-64916250D03*
D19*
X88461672Y-62516250D03*
X90461672Y-62516250D03*
D30*
X153430000Y-64916250D03*
X156330000Y-64916250D03*
D52*
X68190000Y-95370000D03*
X85760000Y-95370000D03*
D53*
X69990000Y-93890000D03*
D54*
X71260000Y-91350000D03*
X72530000Y-93890000D03*
X73800000Y-91350000D03*
X75069999Y-93890000D03*
X76340000Y-91350000D03*
X77610000Y-93890000D03*
X78880000Y-91350000D03*
X80150000Y-93890000D03*
X81420000Y-91350000D03*
X82690000Y-93890000D03*
X83960000Y-91350000D03*
D28*
X83861673Y-69391250D03*
D29*
X83861673Y-71931250D03*
X83861673Y-74471250D03*
X91481673Y-74471250D03*
X91481673Y-71931250D03*
X91481673Y-69391250D03*
D19*
X77675284Y-62516250D03*
X79675284Y-62516250D03*
D20*
X165066388Y-53700000D03*
D21*
X165066388Y-54970000D03*
X165066388Y-56240000D03*
D55*
X41107107Y-42507107D03*
X39692893Y-41092893D03*
D19*
X163966388Y-62516250D03*
X165966388Y-62516250D03*
D56*
X42500000Y-44500000D03*
D57*
X41601974Y-45398026D03*
X40703949Y-46296051D03*
X39805923Y-47194077D03*
D12*
X172195000Y-47580000D03*
D13*
X172195000Y-45040000D03*
X172195000Y-42500000D03*
D40*
X58602989Y-82136980D03*
D41*
X59522227Y-83056218D03*
D26*
X96948060Y-60840000D03*
X96948060Y-58840000D03*
D31*
X85461673Y-64316250D03*
X83461673Y-64316250D03*
D27*
X80597784Y-59570000D03*
X77472784Y-59570000D03*
D24*
X137693613Y-58840000D03*
X137693613Y-60840000D03*
D14*
X102880556Y-77900000D03*
D12*
X96693060Y-47580000D03*
D13*
X96693060Y-45040000D03*
X96693060Y-42500000D03*
D37*
X65659915Y-68362539D03*
D38*
X66579153Y-67443301D03*
D22*
X122000000Y-87037500D03*
X122000000Y-84962500D03*
D27*
X91384172Y-59570000D03*
X88259172Y-59570000D03*
D12*
X123365836Y-47580000D03*
D13*
X123365836Y-45040000D03*
X123365836Y-42500000D03*
D19*
X68575000Y-54350000D03*
X70575000Y-54350000D03*
X110034448Y-62516250D03*
X112034448Y-62516250D03*
D34*
X37062500Y-53400000D03*
X39137500Y-53400000D03*
D37*
X53285546Y-55988170D03*
D38*
X54204784Y-55068932D03*
D28*
X148580001Y-69391250D03*
D29*
X148580001Y-71931250D03*
X148580001Y-74471250D03*
X156200001Y-74471250D03*
X156200001Y-71931250D03*
X156200001Y-69391250D03*
D24*
X173000000Y-98500000D03*
X173000000Y-100500000D03*
D34*
X58762500Y-96750000D03*
X60837500Y-96750000D03*
D14*
X123102778Y-77900000D03*
D58*
X129300000Y-87100000D03*
X127000000Y-87100000D03*
D59*
X127000000Y-93400000D03*
D58*
X124700000Y-87100000D03*
D33*
X156575000Y-89240000D03*
X154500000Y-89240000D03*
D24*
X105334449Y-58840000D03*
X105334449Y-60840000D03*
D25*
X175135000Y-104769999D03*
X175135000Y-102720001D03*
D26*
X140093612Y-60840000D03*
X140093612Y-58840000D03*
D60*
X58950000Y-91600000D03*
D61*
X37799907Y-71926357D03*
X38697932Y-72824383D03*
X39595958Y-73722409D03*
X40493983Y-74620434D03*
X41392009Y-75518460D03*
X42290035Y-76416485D03*
X43188060Y-77314511D03*
X44086086Y-78212537D03*
X44984112Y-79110562D03*
X45882137Y-80008588D03*
X46780163Y-80906613D03*
X47678188Y-81804639D03*
X48576214Y-82702665D03*
X49474240Y-83600690D03*
D62*
X51606167Y-83236530D03*
X52504192Y-82338505D03*
X53402218Y-81440479D03*
X54300243Y-80542453D03*
X55198269Y-79644428D03*
X56096295Y-78746402D03*
X56994320Y-77848377D03*
X57892346Y-76950351D03*
X58790371Y-76052325D03*
X59688397Y-75154300D03*
X60586423Y-74256274D03*
X61484448Y-73358249D03*
D63*
X61848608Y-71226322D03*
X60950583Y-70328296D03*
X60052557Y-69430270D03*
X59154531Y-68532245D03*
X58256506Y-67634219D03*
X57358480Y-66736194D03*
X56460455Y-65838168D03*
X55562429Y-64940142D03*
X54664403Y-64042117D03*
X53766378Y-63144091D03*
X52868352Y-62246065D03*
X51970327Y-61348040D03*
X51072301Y-60450014D03*
X50174275Y-59551989D03*
D64*
X46405396Y-72258698D03*
X47395346Y-73248647D03*
X48385295Y-74238596D03*
X47395346Y-71268748D03*
X48385295Y-72258698D03*
X49375245Y-73248647D03*
X48385295Y-70278799D03*
X49375245Y-71268748D03*
X50365194Y-72258698D03*
D20*
X85381673Y-56240000D03*
D21*
X85381673Y-54970000D03*
X85381673Y-53700000D03*
D33*
X168037500Y-88250000D03*
X165962500Y-88250000D03*
D26*
X35500000Y-59500000D03*
X35500000Y-57500000D03*
D28*
X116220837Y-69391250D03*
D29*
X116220837Y-71931250D03*
X116220837Y-74471250D03*
X123840837Y-74471250D03*
X123840837Y-71931250D03*
X123840837Y-69391250D03*
D12*
X91006672Y-47580000D03*
D13*
X91006672Y-45040000D03*
X91006672Y-42500000D03*
D39*
X40500000Y-62577713D03*
X39032754Y-61110467D03*
D33*
X172037500Y-88250000D03*
X169962500Y-88250000D03*
D20*
X128527225Y-56240000D03*
D21*
X128527225Y-54970000D03*
X128527225Y-53700000D03*
D19*
X174750000Y-62516250D03*
X176750000Y-62516250D03*
D26*
X75375284Y-60840000D03*
X75375284Y-58840000D03*
D20*
X150100001Y-56240000D03*
D21*
X150100001Y-54970000D03*
X150100001Y-53700000D03*
D19*
X142393612Y-62516250D03*
X144393612Y-62516250D03*
D31*
X107234449Y-66616250D03*
X105234449Y-66616250D03*
D30*
X164216388Y-64916250D03*
X167116388Y-64916250D03*
D37*
X58588847Y-61291472D03*
D38*
X59508085Y-60372234D03*
D22*
X122425000Y-103902500D03*
X122425000Y-101827500D03*
D26*
X129307224Y-60840000D03*
X129307224Y-58840000D03*
D12*
X101793060Y-47580000D03*
D13*
X101793060Y-45040000D03*
X101793060Y-42500000D03*
D36*
X60700000Y-53800000D03*
D12*
X134152224Y-47580000D03*
D13*
X134152224Y-45040000D03*
X134152224Y-42500000D03*
D14*
X163547222Y-77900000D03*
D30*
X99498060Y-64916250D03*
X102398060Y-64916250D03*
D24*
X126907225Y-58840000D03*
X126907225Y-60840000D03*
D12*
X107479448Y-47580000D03*
D13*
X107479448Y-45040000D03*
X107479448Y-42500000D03*
D30*
X110284448Y-64916250D03*
X113184448Y-64916250D03*
D26*
X118520836Y-60840000D03*
X118520836Y-58840000D03*
D31*
X96448061Y-66616250D03*
X94448061Y-66616250D03*
D49*
X122995000Y-35550000D03*
D50*
X117915000Y-35550000D03*
X112835000Y-35550000D03*
X107755000Y-35550000D03*
X102675000Y-35550000D03*
X97595000Y-35550000D03*
X92515000Y-35550000D03*
X87435000Y-35550000D03*
X82355000Y-35550000D03*
D65*
X128587500Y-84500000D03*
X130412500Y-84500000D03*
D17*
X34172448Y-68383752D03*
D18*
X33253210Y-67464514D03*
D40*
X63906290Y-76833679D03*
D41*
X64825528Y-77752917D03*
D24*
X75200000Y-29040202D03*
X75200000Y-31040202D03*
D19*
X64500000Y-54350000D03*
X66500000Y-54350000D03*
D66*
X43640000Y-29492500D03*
X43640000Y-33562500D03*
X42370000Y-29492500D03*
X42370000Y-33562500D03*
X41100000Y-29492500D03*
X41100000Y-33562500D03*
X39830000Y-29492500D03*
X39830000Y-33562500D03*
X38560000Y-29492500D03*
X38560000Y-33562500D03*
D20*
X111134448Y-53700000D03*
D21*
X111134448Y-54970000D03*
X111134448Y-56240000D03*
D27*
X145316112Y-59570000D03*
X142191112Y-59570000D03*
D31*
X171950000Y-66616250D03*
X169950000Y-66616250D03*
D27*
X166888888Y-59570000D03*
X163763888Y-59570000D03*
D26*
X132675000Y-102915000D03*
X132675000Y-100915000D03*
D67*
X64475000Y-104138000D03*
X65125000Y-104138000D03*
X65775000Y-104138000D03*
X66425000Y-104138000D03*
X67075000Y-104138000D03*
X67725000Y-104138000D03*
X68375000Y-104138000D03*
X69025000Y-104138000D03*
X69025000Y-98262000D03*
X68375000Y-98262000D03*
X67725000Y-98262000D03*
X67075000Y-98262000D03*
X66425000Y-98262000D03*
X65775000Y-98262000D03*
X65125000Y-98262000D03*
X64475000Y-98262000D03*
D36*
X32000000Y-84800000D03*
D12*
X112579448Y-47580000D03*
D13*
X112579448Y-45040000D03*
X112579448Y-42500000D03*
D40*
X60370756Y-80369213D03*
D41*
X61289994Y-81288451D03*
D28*
X73075285Y-69391250D03*
D29*
X73075285Y-71931250D03*
X73075285Y-74471250D03*
X80695285Y-74471250D03*
X80695285Y-71931250D03*
X80695285Y-69391250D03*
D68*
X41240000Y-92850000D03*
D69*
X42960000Y-92850000D03*
X42960000Y-90550000D03*
X41040000Y-90550000D03*
D31*
X139593613Y-66616250D03*
X137593613Y-66616250D03*
D27*
X134529724Y-59570000D03*
X131404724Y-59570000D03*
D70*
X43625001Y-105120000D03*
D71*
X42975001Y-104120000D03*
X42325001Y-105120000D03*
X41675001Y-104120000D03*
X41025000Y-105120000D03*
D72*
X45900000Y-104900000D03*
X38750001Y-104900000D03*
D30*
X175000000Y-64916250D03*
X177900000Y-64916250D03*
D66*
X34880000Y-29492500D03*
X34880000Y-33562500D03*
X33610000Y-29492500D03*
X33610000Y-33562500D03*
X32340000Y-29492500D03*
X32340000Y-33562500D03*
D65*
X131837500Y-87000000D03*
X133662500Y-87000000D03*
D20*
X74595285Y-56240000D03*
D21*
X74595285Y-54970000D03*
X74595285Y-53700000D03*
D15*
X32404682Y-73333501D03*
D16*
X31485444Y-74252739D03*
D42*
X165274999Y-86000000D03*
X163225001Y-86000000D03*
D40*
X62138523Y-78601446D03*
D41*
X63057761Y-79520684D03*
D24*
X170050000Y-58840000D03*
X170050000Y-60840000D03*
D15*
X43046639Y-83904747D03*
D16*
X42127401Y-84823985D03*
D73*
X108936000Y-94355000D03*
X106192999Y-94355000D03*
X103450000Y-94354999D03*
X100707001Y-94355000D03*
X97964000Y-94355000D03*
X107565000Y-97200000D03*
X104822000Y-97200000D03*
X102078000Y-97200000D03*
X99335000Y-97200000D03*
D74*
X115947000Y-95778000D03*
X90953000Y-95778000D03*
D12*
X161411388Y-47580000D03*
D13*
X161411388Y-45040000D03*
X161411388Y-42500000D03*
D22*
X131750000Y-93537500D03*
X131750000Y-91462500D03*
D31*
X85661673Y-66616250D03*
X83661673Y-66616250D03*
D20*
X160886389Y-56240000D03*
D21*
X160886389Y-54970000D03*
X160886389Y-53700000D03*
D20*
X121920836Y-53700000D03*
D21*
X121920836Y-54970000D03*
X121920836Y-56240000D03*
D75*
X134849999Y-93562500D03*
X134849999Y-95637500D03*
D19*
X131607224Y-62516250D03*
X133607224Y-62516250D03*
D76*
X48792893Y-44307107D03*
X50207107Y-42892893D03*
D20*
X96168061Y-56240000D03*
D21*
X96168061Y-54970000D03*
X96168061Y-53700000D03*
D26*
X86161672Y-60840000D03*
X86161672Y-58840000D03*
D55*
X38707107Y-44907107D03*
X37292893Y-43492893D03*
D77*
X137199999Y-84700000D03*
X137200000Y-87000000D03*
D78*
X143499998Y-87000000D03*
D77*
X137199999Y-89300000D03*
D79*
X63432107Y-49467893D03*
X62017893Y-50882107D03*
D73*
X161436000Y-94355000D03*
X158692999Y-94355000D03*
X155950000Y-94354999D03*
X153207001Y-94355000D03*
X150464000Y-94355000D03*
X160065000Y-97200000D03*
X157322000Y-97200000D03*
X154578000Y-97200000D03*
X151835000Y-97200000D03*
D74*
X168447000Y-95778000D03*
X143453000Y-95778000D03*
D48*
X65525001Y-50850000D03*
X67574999Y-50850000D03*
D20*
X106954449Y-56240000D03*
D21*
X106954449Y-54970000D03*
X106954449Y-53700000D03*
D22*
X60750000Y-102237500D03*
X60750000Y-100162500D03*
D19*
X153180000Y-62516250D03*
X155180000Y-62516250D03*
D76*
X46392893Y-41907107D03*
X47807107Y-40492893D03*
D12*
X155725000Y-47580000D03*
D13*
X155725000Y-45040000D03*
X155725000Y-42500000D03*
D34*
X173962500Y-88250000D03*
X176037500Y-88250000D03*
D33*
X152787500Y-89250000D03*
X150712500Y-89250000D03*
D14*
X133213889Y-77900000D03*
D31*
X150380001Y-66616250D03*
X148380001Y-66616250D03*
D12*
X129052224Y-47580000D03*
D13*
X129052224Y-45040000D03*
X129052224Y-42500000D03*
D14*
X92769445Y-77900000D03*
D20*
X175850000Y-53700000D03*
D21*
X175850000Y-54970000D03*
X175850000Y-56240000D03*
D24*
X159266389Y-58840000D03*
X159266389Y-60840000D03*
D31*
X96248061Y-64316250D03*
X94248061Y-64316250D03*
D40*
X65674057Y-75065913D03*
D41*
X66593295Y-75985151D03*
D31*
X160966389Y-64316250D03*
X158966389Y-64316250D03*
D40*
X51531921Y-89208048D03*
D41*
X52451159Y-90127286D03*
D35*
X29950000Y-57700000D03*
X29950000Y-53550000D03*
X32100000Y-57700000D03*
X32100000Y-53550000D03*
D20*
X154280000Y-53700000D03*
D21*
X154280000Y-54970000D03*
X154280000Y-56240000D03*
D80*
X55166377Y-48766377D03*
X56633623Y-50233623D03*
D33*
X170037500Y-82500000D03*
X167962500Y-82500000D03*
D24*
X116120837Y-58840000D03*
X116120837Y-60840000D03*
D31*
X117820837Y-64316250D03*
X115820837Y-64316250D03*
D24*
X83761673Y-58840000D03*
X83761673Y-60840000D03*
D31*
X128607225Y-64316250D03*
X126607225Y-64316250D03*
D81*
X125050000Y-100960000D03*
X125050000Y-102230000D03*
X125050000Y-103500000D03*
X125050000Y-104770000D03*
X130000000Y-104770000D03*
X130000000Y-103500000D03*
X130000000Y-102230000D03*
X130000000Y-100960000D03*
D20*
X143493612Y-53700000D03*
D21*
X143493612Y-54970000D03*
X143493612Y-56240000D03*
D27*
X177672500Y-59570000D03*
X174547500Y-59570000D03*
D19*
X120820836Y-62516250D03*
X122820836Y-62516250D03*
D24*
X175135000Y-98500000D03*
X175135000Y-100500000D03*
D26*
X150880000Y-60840000D03*
X150880000Y-58840000D03*
D24*
X73078680Y-33000000D03*
X73078680Y-35000000D03*
D33*
X31537500Y-61900000D03*
X29462500Y-61900000D03*
D37*
X56821079Y-59523704D03*
D38*
X57740317Y-58604466D03*
D31*
X74675285Y-64316250D03*
X72675285Y-64316250D03*
D15*
X37743338Y-78601446D03*
D16*
X36824100Y-79520684D03*
D12*
X139838612Y-47580000D03*
D13*
X139838612Y-45040000D03*
X139838612Y-42500000D03*
D40*
X56835222Y-83904747D03*
D41*
X57754460Y-84823985D03*
D25*
X173045000Y-104769999D03*
X173045000Y-102720001D03*
D37*
X60356614Y-63059239D03*
D38*
X61275852Y-62140001D03*
D24*
X72975285Y-58840000D03*
X72975285Y-60840000D03*
D15*
X46582173Y-87440281D03*
D16*
X45662935Y-88359519D03*
D25*
X134849999Y-91624999D03*
X134849999Y-89575001D03*
D37*
X67427680Y-70130306D03*
D38*
X68346918Y-69211068D03*
D31*
X74875285Y-66616250D03*
X72875285Y-66616250D03*
D27*
X123743336Y-59570000D03*
X120618336Y-59570000D03*
D10*
X156800000Y-85000000D03*
D11*
X160700000Y-85000000D03*
D32*
X70400000Y-45400000D03*
X70400000Y-42500000D03*
D17*
X43023066Y-59533134D03*
D18*
X42103828Y-58613896D03*
D31*
X139393613Y-64316250D03*
X137393613Y-64316250D03*
D12*
X144938612Y-47580000D03*
D13*
X144938612Y-45040000D03*
X144938612Y-42500000D03*
D28*
X105434449Y-69391250D03*
D29*
X105434449Y-71931250D03*
X105434449Y-74471250D03*
X113054449Y-74471250D03*
X113054449Y-71931250D03*
X113054449Y-69391250D03*
D24*
X73078680Y-29040202D03*
X73078680Y-31040202D03*
D20*
X139313613Y-56240000D03*
D21*
X139313613Y-54970000D03*
X139313613Y-53700000D03*
D37*
X62124381Y-64827006D03*
D38*
X63043619Y-63907768D03*
D60*
X61500000Y-89050000D03*
D40*
X67441824Y-73298146D03*
D41*
X68361062Y-74217384D03*
D51*
X69825000Y-57100000D03*
X67925000Y-57100000D03*
X68875000Y-60400000D03*
D31*
X128807225Y-66616250D03*
X126807225Y-66616250D03*
D34*
X47362500Y-93200000D03*
X49437500Y-93200000D03*
M02*
