M48
; DRILL file {KiCad 7.0.10} date Sat Jul  6 13:41:29 2024
; FORMAT={-:-/ absolute / metric / decimal}
; #@! TF.CreationDate,2024-07-06T13:41:29+02:00
; #@! TF.GenerationSoftware,Kicad,Pcbnew,7.0.10
; #@! TF.FileFunction,Plated,1,2,PTH
FMAT,2
METRIC
; #@! TA.AperFunction,Plated,PTH,ViaDrill
T1C0.400
; #@! TA.AperFunction,Plated,PTH,ComponentDrill
T2C0.600
; #@! TA.AperFunction,Plated,PTH,ComponentDrill
T3C0.750
; #@! TA.AperFunction,Plated,PTH,ComponentDrill
T4C0.800
; #@! TA.AperFunction,Plated,PTH,ComponentDrill
T5C0.890
; #@! TA.AperFunction,Plated,PTH,ComponentDrill
T6C0.920
; #@! TA.AperFunction,Plated,PTH,ComponentDrill
T7C1.000
; #@! TA.AperFunction,Plated,PTH,ComponentDrill
T8C1.100
; #@! TA.AperFunction,Plated,PTH,ComponentDrill
T9C1.570
; #@! TA.AperFunction,Plated,PTH,ComponentDrill
T10C1.600
; #@! TA.AperFunction,Plated,PTH,ComponentDrill
T11C2.330
%
G90
G05
T1
X26.76Y-26.62
X26.76Y-29.16
X26.76Y-31.7
X26.76Y-34.24
X26.76Y-36.78
X26.76Y-39.32
X26.76Y-41.86
X26.76Y-44.4
X26.76Y-46.94
X26.76Y-49.48
X26.76Y-52.02
X26.76Y-54.56
X26.76Y-57.1
X26.76Y-59.64
X26.76Y-62.18
X26.76Y-64.72
X26.76Y-67.26
X26.76Y-69.8
X26.76Y-72.34
X26.76Y-74.88
X26.76Y-77.42
X26.76Y-79.96
X26.76Y-82.5
X26.76Y-85.04
X26.76Y-87.58
X26.76Y-90.12
X26.76Y-92.66
X26.76Y-95.2
X26.76Y-97.74
X26.76Y-100.28
X26.76Y-102.82
X26.76Y-105.36
X26.76Y-107.9
X26.76Y-110.44
X29.3Y-26.62
X29.3Y-110.44
X31.5Y-53.25
X31.84Y-26.62
X31.84Y-110.44
X34.38Y-26.62
X34.38Y-110.44
X35.8Y-53.9
X36.2Y-60.25
X36.6Y-62.35
X36.92Y-26.62
X36.92Y-110.44
X37.8Y-72.15
X39.46Y-26.62
X39.46Y-110.44
X42.0Y-26.62
X42.0Y-110.44
X43.5Y-53.25
X43.5Y-89.5
X44.54Y-26.62
X44.54Y-110.44
X47.08Y-26.62
X47.08Y-110.44
X47.777Y-53.9
X48.177Y-60.25
X48.25Y-82.75
X48.577Y-62.35
X49.62Y-26.62
X49.62Y-110.44
X49.777Y-72.15
X52.16Y-26.62
X52.16Y-110.44
X53.0Y-89.5
X54.7Y-26.62
X54.7Y-110.44
X55.0Y-104.0
X55.5Y-53.25
X57.24Y-26.62
X57.24Y-110.44
X59.755Y-53.9
X59.78Y-26.62
X59.78Y-110.44
X60.08Y-106.64
X60.155Y-60.25
X60.555Y-62.35
X61.468Y-87.376
X61.755Y-72.15
X62.32Y-26.62
X62.32Y-110.44
X63.3Y-85.0
X64.86Y-26.62
X64.86Y-110.44
X65.9Y-89.4
X67.2Y-85.0
X67.4Y-26.62
X67.4Y-110.44
X67.5Y-53.25
X68.9Y-80.225
X69.25Y-100.75
X69.94Y-26.62
X69.94Y-110.44
X71.732Y-53.9
X72.132Y-60.25
X72.48Y-26.62
X72.48Y-110.44
X72.532Y-62.35
X73.732Y-72.15
X75.02Y-26.62
X75.02Y-110.44
X75.68Y-86.72
X77.0Y-104.25
X77.56Y-26.62
X77.56Y-110.44
X79.5Y-53.25
X80.1Y-26.62
X80.1Y-110.44
X82.64Y-26.62
X82.64Y-110.44
X83.709Y-53.9
X84.109Y-60.25
X84.509Y-62.35
X85.18Y-26.62
X85.18Y-110.44
X85.709Y-72.15
X87.72Y-26.62
X87.72Y-110.44
X88.7Y-87.6
X90.1Y-87.6
X90.26Y-26.62
X90.26Y-110.44
X91.175Y-82.2
X91.25Y-53.25
X92.425Y-82.2
X92.8Y-26.62
X92.8Y-110.44
X93.675Y-82.2
X94.43Y-104.18
X95.34Y-26.62
X95.34Y-110.44
X95.5Y-80.75
X95.687Y-53.9
X96.087Y-60.25
X96.487Y-62.35
X97.32Y-104.18
X97.687Y-72.15
X97.88Y-26.62
X97.88Y-110.44
X99.0Y-84.0
X100.42Y-26.62
X100.42Y-110.44
X102.96Y-26.62
X102.96Y-110.44
X103.25Y-53.25
X104.0Y-88.5
X105.5Y-26.62
X105.5Y-110.44
X107.625Y-92.062
X107.664Y-53.9
X108.04Y-26.62
X108.04Y-110.44
X108.064Y-60.25
X108.464Y-62.35
X109.63Y-88.97
X109.664Y-72.15
X110.58Y-26.62
X110.58Y-104.18
X110.58Y-110.44
X111.25Y-95.625
X113.12Y-26.62
X113.12Y-110.44
X113.52Y-104.18
X114.67Y-93.62
X114.875Y-99.188
X115.25Y-53.25
X115.66Y-26.62
X115.66Y-110.44
X118.2Y-26.62
X118.2Y-110.44
X118.5Y-102.75
X119.6Y-97.92
X119.642Y-53.9
X120.042Y-60.25
X120.442Y-62.35
X120.74Y-26.62
X120.74Y-110.44
X121.642Y-72.15
X123.28Y-26.62
X123.28Y-110.44
X124.61Y-101.07
X125.82Y-26.62
X125.82Y-110.44
X127.25Y-53.25
X128.36Y-26.62
X128.36Y-110.44
X129.97Y-100.89
X130.9Y-26.62
X130.9Y-110.44
X131.619Y-53.9
X132.019Y-60.25
X132.419Y-62.35
X133.44Y-26.62
X133.44Y-110.44
X133.619Y-72.15
X135.08Y-100.33
X135.98Y-26.62
X135.98Y-110.44
X138.52Y-26.62
X138.52Y-110.44
X139.25Y-53.25
X139.95Y-99.88
X141.06Y-26.62
X141.06Y-110.44
X143.596Y-53.814
X143.6Y-26.62
X143.6Y-110.44
X143.996Y-60.164
X144.396Y-62.264
X144.92Y-99.44
X145.596Y-72.064
X146.14Y-26.62
X146.14Y-110.44
X148.68Y-26.62
X148.68Y-110.44
X148.7Y-107.3
X151.22Y-26.62
X151.22Y-110.44
X151.7Y-109.2
X153.76Y-26.62
X153.76Y-110.44
X155.0Y-60.0
X155.0Y-62.5
X155.0Y-65.0
X155.0Y-67.5
X156.3Y-26.62
X156.3Y-110.44
X158.0Y-29.0
X158.22Y-106.2
X158.4Y-43.85
X158.84Y-26.62
X158.84Y-110.44
X159.2Y-56.15
X159.8Y-51.85
X160.72Y-103.7
X161.25Y-34.25
X161.38Y-26.62
X161.38Y-110.44
X161.75Y-74.0
X162.5Y-70.0
X163.22Y-101.2
X163.917Y-76.5
X163.92Y-26.62
X163.92Y-110.44
X164.75Y-66.25
X165.5Y-31.5
X165.72Y-98.7
X166.083Y-74.0
X166.46Y-26.62
X166.46Y-110.44
X167.5Y-70.0
X167.6Y-83.5
X167.6Y-84.55
X167.6Y-85.6
X168.22Y-96.2
X168.25Y-76.5
X169.0Y-26.62
X169.0Y-110.44
X169.79Y-106.98
X169.8Y-109.12
X170.0Y-66.25
X170.0Y-82.75
X170.0Y-86.25
X170.417Y-74.0
X170.72Y-93.7
X171.54Y-26.62
X171.54Y-110.44
X172.5Y-70.0
X172.75Y-55.25
X174.08Y-26.62
X174.08Y-110.44
X174.74Y-59.7
X174.75Y-78.98
X176.62Y-26.62
X176.62Y-110.44
X179.16Y-26.62
X179.16Y-29.16
X179.16Y-31.7
X179.16Y-34.24
X179.16Y-36.78
X179.16Y-39.32
X179.16Y-41.86
X179.16Y-44.4
X179.16Y-46.94
X179.16Y-49.48
X179.16Y-52.02
X179.16Y-54.56
X179.16Y-57.1
X179.16Y-59.64
X179.16Y-62.18
X179.16Y-64.72
X179.16Y-67.26
X179.16Y-69.8
X179.16Y-72.34
X179.16Y-74.88
X179.16Y-77.42
X179.16Y-79.96
X179.16Y-82.5
X179.16Y-85.04
X179.16Y-87.58
X179.16Y-90.12
X179.16Y-92.66
X179.16Y-95.2
X179.16Y-97.74
X179.16Y-100.28
X179.16Y-102.82
X179.16Y-105.36
X179.16Y-107.9
X179.16Y-110.44
T2
X153.377Y-29.2
X154.877Y-29.2
T3
X29.54Y-54.78
X29.54Y-56.05
X29.54Y-57.32
X36.93Y-54.81
X36.93Y-56.08
X36.93Y-57.35
X41.517Y-54.78
X41.517Y-56.05
X41.517Y-57.32
X48.907Y-54.81
X48.907Y-56.08
X48.907Y-57.35
X53.495Y-54.78
X53.495Y-56.05
X53.495Y-57.32
X60.885Y-54.81
X60.885Y-56.08
X60.885Y-57.35
X65.472Y-54.78
X65.472Y-56.05
X65.472Y-57.32
X72.862Y-54.81
X72.862Y-56.08
X72.862Y-57.35
X77.449Y-54.78
X77.449Y-56.05
X77.449Y-57.32
X84.839Y-54.81
X84.839Y-56.08
X84.839Y-57.35
X89.427Y-54.78
X89.427Y-56.05
X89.427Y-57.32
X96.817Y-54.81
X96.817Y-56.08
X96.817Y-57.35
X101.404Y-54.78
X101.404Y-56.05
X101.404Y-57.32
X108.794Y-54.81
X108.794Y-56.08
X108.794Y-57.35
X113.382Y-54.78
X113.382Y-56.05
X113.382Y-57.32
X120.772Y-54.81
X120.772Y-56.08
X120.772Y-57.35
X125.359Y-54.78
X125.359Y-56.05
X125.359Y-57.32
X132.749Y-54.81
X132.749Y-56.08
X132.749Y-57.35
X137.336Y-54.694
X137.336Y-55.964
X137.336Y-57.234
X144.726Y-54.724
X144.726Y-55.994
X144.726Y-57.264
T4
X29.08Y-63.93
X29.08Y-71.55
X31.62Y-63.93
X31.62Y-71.55
X34.16Y-63.93
X34.16Y-71.55
X41.057Y-63.93
X41.057Y-71.55
X43.597Y-63.93
X43.597Y-71.55
X46.137Y-63.93
X46.137Y-71.55
X53.035Y-63.93
X53.035Y-71.55
X55.575Y-63.93
X55.575Y-71.55
X58.115Y-63.93
X58.115Y-71.55
X58.935Y-78.935
X63.935Y-78.935
X65.012Y-63.93
X65.012Y-71.55
X67.552Y-63.93
X67.552Y-71.55
X70.092Y-63.93
X70.092Y-71.55
X76.989Y-63.93
X76.989Y-71.55
X79.529Y-63.93
X79.529Y-71.55
X82.069Y-63.93
X82.069Y-71.55
X88.967Y-63.93
X88.967Y-71.55
X91.507Y-63.93
X91.507Y-71.55
X94.047Y-63.93
X94.047Y-71.55
X100.944Y-63.93
X100.944Y-71.55
X103.484Y-63.93
X103.484Y-71.55
X106.024Y-63.93
X106.024Y-71.55
X112.922Y-63.93
X112.922Y-71.55
X115.462Y-63.93
X115.462Y-71.55
X118.002Y-63.93
X118.002Y-71.55
X124.899Y-63.93
X124.899Y-71.55
X127.439Y-63.93
X127.439Y-71.55
X129.979Y-63.93
X129.979Y-71.55
X135.3Y-31.5
X136.876Y-63.844
X136.876Y-71.464
X137.8Y-31.5
X139.416Y-63.844
X139.416Y-71.464
X140.94Y-36.03
X140.94Y-39.03
X140.99Y-28.8
X140.99Y-31.9
X141.956Y-63.844
X141.956Y-71.464
X148.56Y-36.03
X148.56Y-39.03
X148.61Y-28.8
X148.61Y-31.9
X155.79Y-33.6
X163.41Y-33.6
X168.5Y-29.575
X168.5Y-32.115
X168.5Y-34.655
X176.12Y-29.575
X176.12Y-32.115
X176.12Y-34.655
T5
X40.58Y-96.17
X42.87Y-96.17
X43.888Y-100.99
X44.904Y-102.77
X45.92Y-100.99
X46.936Y-102.77
X47.952Y-100.99
X48.968Y-102.77
X49.984Y-100.99
X51.0Y-102.77
X52.01Y-96.17
X54.3Y-96.17
X56.33Y-96.17
X58.62Y-96.17
X59.638Y-100.99
X60.654Y-102.77
X61.67Y-100.99
X62.686Y-102.77
X63.702Y-100.99
X64.718Y-102.77
X65.734Y-100.99
X66.75Y-102.77
X67.76Y-96.17
X70.05Y-96.17
T6
X88.1Y-95.76
X88.1Y-97.76
X90.6Y-95.76
X90.6Y-97.76
T7
X53.7Y-79.9
X61.895Y-91.535
X64.435Y-91.535
X85.5Y-91.7
X88.04Y-91.7
X90.58Y-91.7
X93.12Y-91.7
X101.075Y-98.515
X101.075Y-102.315
X101.075Y-106.065
X101.6Y-83.82
X106.68Y-83.82
X111.76Y-83.82
X116.84Y-83.82
X121.92Y-83.82
X127.0Y-83.82
X132.08Y-83.82
X137.16Y-83.82
X138.7Y-106.5
X142.24Y-83.82
X142.6Y-106.5
X147.32Y-83.82
X151.7Y-47.32
X151.7Y-49.86
X151.7Y-52.4
X151.7Y-54.94
X151.7Y-57.48
X151.7Y-60.02
X151.7Y-62.56
X151.7Y-65.1
X151.7Y-67.64
X151.7Y-70.18
X151.7Y-72.72
X151.7Y-75.26
X151.7Y-77.8
X151.7Y-80.34
X151.7Y-82.88
X151.7Y-85.42
X151.7Y-87.96
X151.7Y-90.5
X151.7Y-93.04
X151.7Y-97.5
X165.1Y-37.9
X177.1Y-47.32
X177.1Y-49.86
X177.1Y-52.4
X177.1Y-54.94
X177.1Y-57.48
X177.1Y-60.02
X177.1Y-62.56
X177.1Y-65.1
X177.1Y-67.64
X177.1Y-70.18
X177.1Y-72.72
X177.1Y-75.26
X177.1Y-77.8
X177.1Y-80.34
X177.1Y-82.88
X177.1Y-85.42
X177.1Y-87.96
X177.1Y-90.5
X177.1Y-93.04
T8
X30.93Y-44.77
X30.93Y-47.31
X30.93Y-49.85
X37.43Y-44.77
X37.43Y-47.31
X37.43Y-49.85
X42.907Y-44.77
X42.907Y-47.31
X42.907Y-49.85
X49.407Y-44.77
X49.407Y-47.31
X49.407Y-49.85
X54.885Y-44.77
X54.885Y-47.31
X54.885Y-49.85
X61.385Y-44.77
X61.385Y-47.31
X61.385Y-49.85
X66.862Y-44.77
X66.862Y-47.31
X66.862Y-49.85
X73.362Y-44.77
X73.362Y-47.31
X73.362Y-49.85
X78.839Y-44.77
X78.839Y-47.31
X78.839Y-49.85
X85.339Y-44.77
X85.339Y-47.31
X85.339Y-49.85
X90.817Y-44.77
X90.817Y-47.31
X90.817Y-49.85
X97.317Y-44.77
X97.317Y-47.31
X97.317Y-49.85
X102.794Y-44.77
X102.794Y-47.31
X102.794Y-49.85
X109.294Y-44.77
X109.294Y-47.31
X109.294Y-49.85
X114.772Y-44.77
X114.772Y-47.31
X114.772Y-49.85
X121.272Y-44.77
X121.272Y-47.31
X121.272Y-49.85
X126.749Y-44.77
X126.749Y-47.31
X126.749Y-49.85
X133.249Y-44.77
X133.249Y-47.31
X133.249Y-49.85
X138.726Y-44.684
X138.726Y-47.224
X138.726Y-49.764
X145.226Y-44.684
X145.226Y-47.224
X145.226Y-49.764
T9
X39.32Y-101.88
X71.32Y-101.88
T10
X29.58Y-35.45
X34.66Y-35.45
X39.74Y-35.45
X44.82Y-35.45
X49.9Y-35.45
X54.98Y-35.45
X60.06Y-35.45
X65.14Y-35.45
X70.22Y-35.45
X82.58Y-35.45
X87.66Y-35.45
X92.74Y-35.45
X97.82Y-35.45
X102.9Y-35.45
X107.98Y-35.45
X113.06Y-35.45
X118.14Y-35.45
X123.22Y-35.45
T11
X83.33Y-100.47
X95.37Y-100.47
M30
