%TF.GenerationSoftware,KiCad,Pcbnew,7.0.10*%
%TF.CreationDate,2024-07-06T13:40:55+02:00*%
%TF.ProjectId,OverlordDimmer,4f766572-6c6f-4726-9444-696d6d65722e,rev?*%
%TF.SameCoordinates,Original*%
%TF.FileFunction,Paste,Top*%
%TF.FilePolarity,Positive*%
%FSLAX46Y46*%
G04 Gerber Fmt 4.6, Leading zero omitted, Abs format (unit mm)*
G04 Created by KiCad (PCBNEW 7.0.10) date 2024-07-06 13:40:55*
%MOMM*%
%LPD*%
G01*
G04 APERTURE LIST*
G04 Aperture macros list*
%AMRoundRect*
0 Rectangle with rounded corners*
0 $1 Rounding radius*
0 $2 $3 $4 $5 $6 $7 $8 $9 X,Y pos of 4 corners*
0 Add a 4 corners polygon primitive as box body*
4,1,4,$2,$3,$4,$5,$6,$7,$8,$9,$2,$3,0*
0 Add four circle primitives for the rounded corners*
1,1,$1+$1,$2,$3*
1,1,$1+$1,$4,$5*
1,1,$1+$1,$6,$7*
1,1,$1+$1,$8,$9*
0 Add four rect primitives between the rounded corners*
20,1,$1+$1,$2,$3,$4,$5,0*
20,1,$1+$1,$4,$5,$6,$7,0*
20,1,$1+$1,$6,$7,$8,$9,0*
20,1,$1+$1,$8,$9,$2,$3,0*%
G04 Aperture macros list end*
%ADD10RoundRect,0.155000X0.212500X0.155000X-0.212500X0.155000X-0.212500X-0.155000X0.212500X-0.155000X0*%
%ADD11RoundRect,0.250000X0.400000X0.625000X-0.400000X0.625000X-0.400000X-0.625000X0.400000X-0.625000X0*%
%ADD12RoundRect,0.250000X-0.450000X0.400000X-0.450000X-0.400000X0.450000X-0.400000X0.450000X0.400000X0*%
%ADD13RoundRect,0.250000X0.350000X0.450000X-0.350000X0.450000X-0.350000X-0.450000X0.350000X-0.450000X0*%
%ADD14RoundRect,0.160000X-0.197500X-0.160000X0.197500X-0.160000X0.197500X0.160000X-0.197500X0.160000X0*%
%ADD15RoundRect,0.250000X-0.400000X-0.625000X0.400000X-0.625000X0.400000X0.625000X-0.400000X0.625000X0*%
%ADD16RoundRect,0.160000X-0.160000X0.197500X-0.160000X-0.197500X0.160000X-0.197500X0.160000X0.197500X0*%
%ADD17RoundRect,0.150000X-0.150000X-0.700000X0.150000X-0.700000X0.150000X0.700000X-0.150000X0.700000X0*%
%ADD18RoundRect,0.250000X-0.250000X-1.100000X0.250000X-1.100000X0.250000X1.100000X-0.250000X1.100000X0*%
%ADD19RoundRect,0.250000X1.075000X-0.400000X1.075000X0.400000X-1.075000X0.400000X-1.075000X-0.400000X0*%
%ADD20RoundRect,0.150000X-0.150000X0.825000X-0.150000X-0.825000X0.150000X-0.825000X0.150000X0.825000X0*%
%ADD21R,1.800000X0.800000*%
%ADD22RoundRect,0.250000X-0.350000X-0.450000X0.350000X-0.450000X0.350000X0.450000X-0.350000X0.450000X0*%
%ADD23RoundRect,0.250000X-0.400000X-1.075000X0.400000X-1.075000X0.400000X1.075000X-0.400000X1.075000X0*%
%ADD24RoundRect,0.160000X0.197500X0.160000X-0.197500X0.160000X-0.197500X-0.160000X0.197500X-0.160000X0*%
%ADD25RoundRect,0.250000X-1.075000X0.400000X-1.075000X-0.400000X1.075000X-0.400000X1.075000X0.400000X0*%
%ADD26RoundRect,0.225000X-0.375000X0.225000X-0.375000X-0.225000X0.375000X-0.225000X0.375000X0.225000X0*%
%ADD27RoundRect,0.150000X0.587500X0.150000X-0.587500X0.150000X-0.587500X-0.150000X0.587500X-0.150000X0*%
%ADD28RoundRect,0.250000X0.450000X-0.400000X0.450000X0.400000X-0.450000X0.400000X-0.450000X-0.400000X0*%
G04 APERTURE END LIST*
D10*
%TO.C,C11*%
X122269027Y-67150000D03*
X121134027Y-67150000D03*
%TD*%
D11*
%TO.C,R5*%
X31530000Y-74250000D03*
X28430000Y-74250000D03*
%TD*%
D12*
%TO.C,D8*%
X133608888Y-70700000D03*
X133608888Y-73600000D03*
%TD*%
D13*
%TO.C,R21*%
X78289445Y-60250000D03*
X76289445Y-60250000D03*
%TD*%
D10*
%TO.C,C13*%
X146223749Y-67063809D03*
X145088749Y-67063809D03*
%TD*%
D14*
%TO.C,R24*%
X73174583Y-59850000D03*
X74369583Y-59850000D03*
%TD*%
D13*
%TO.C,R57*%
X142526250Y-60163809D03*
X140526250Y-60163809D03*
%TD*%
D12*
%TO.C,D4*%
X73722083Y-70700000D03*
X73722083Y-73600000D03*
%TD*%
D15*
%TO.C,R66*%
X171150000Y-88200000D03*
X174250000Y-88200000D03*
%TD*%
D11*
%TO.C,R55*%
X139326250Y-74163809D03*
X136226250Y-74163809D03*
%TD*%
D14*
%TO.C,R51*%
X121084027Y-59850000D03*
X122279027Y-59850000D03*
%TD*%
D16*
%TO.C,R26*%
X85509444Y-63352500D03*
X85509444Y-64547500D03*
%TD*%
D13*
%TO.C,R8*%
X42357362Y-60250000D03*
X40357362Y-60250000D03*
%TD*%
D11*
%TO.C,R52*%
X127348889Y-74250000D03*
X124248889Y-74250000D03*
%TD*%
D16*
%TO.C,R62*%
X145396249Y-63266309D03*
X145396249Y-64461309D03*
%TD*%
D13*
%TO.C,R11*%
X54334723Y-60250000D03*
X52334723Y-60250000D03*
%TD*%
D14*
%TO.C,R10*%
X61197222Y-59850000D03*
X62392222Y-59850000D03*
%TD*%
D13*
%TO.C,R2*%
X30380000Y-60250000D03*
X28380000Y-60250000D03*
%TD*%
D16*
%TO.C,R42*%
X97486805Y-63352500D03*
X97486805Y-64547500D03*
%TD*%
D13*
%TO.C,R32*%
X94616806Y-60250000D03*
X92616806Y-60250000D03*
%TD*%
D10*
%TO.C,C5*%
X74359583Y-67150000D03*
X73224583Y-67150000D03*
%TD*%
D12*
%TO.C,D9*%
X121631527Y-70700000D03*
X121631527Y-73600000D03*
%TD*%
D10*
%TO.C,C7*%
X110291666Y-67150000D03*
X109156666Y-67150000D03*
%TD*%
D17*
%TO.C,J6*%
X79925000Y-84150000D03*
X81175000Y-84150000D03*
X82425000Y-84150000D03*
X83675000Y-84150000D03*
X84925000Y-84150000D03*
X86175000Y-84150000D03*
X87425000Y-84150000D03*
X88675000Y-84150000D03*
X89925000Y-84150000D03*
X91175000Y-84150000D03*
X92425000Y-84150000D03*
X93675000Y-84150000D03*
D18*
X78075000Y-87350000D03*
X95525000Y-87350000D03*
%TD*%
D11*
%TO.C,R18*%
X43507362Y-74250000D03*
X40407362Y-74250000D03*
%TD*%
D10*
%TO.C,C1*%
X38427500Y-67150000D03*
X37292500Y-67150000D03*
%TD*%
D16*
%TO.C,R13*%
X59835000Y-83892500D03*
X59835000Y-85087500D03*
%TD*%
%TO.C,R53*%
X121441527Y-63352500D03*
X121441527Y-64547500D03*
%TD*%
D14*
%TO.C,R7*%
X49219861Y-59850000D03*
X50414861Y-59850000D03*
%TD*%
D16*
%TO.C,R29*%
X73532083Y-63352500D03*
X73532083Y-64547500D03*
%TD*%
%TO.C,R40*%
X109464166Y-63352500D03*
X109464166Y-64547500D03*
%TD*%
D14*
%TO.C,R34*%
X97129305Y-59850000D03*
X98324305Y-59850000D03*
%TD*%
D13*
%TO.C,R49*%
X126198889Y-60250000D03*
X124198889Y-60250000D03*
%TD*%
D19*
%TO.C,R63*%
X171600000Y-52650000D03*
X171600000Y-49550000D03*
%TD*%
D10*
%TO.C,C3*%
X50404861Y-67150000D03*
X49269861Y-67150000D03*
%TD*%
D13*
%TO.C,R19*%
X82639445Y-60250000D03*
X80639445Y-60250000D03*
%TD*%
D11*
%TO.C,R39*%
X103394167Y-74250000D03*
X100294167Y-74250000D03*
%TD*%
D12*
%TO.C,D15*%
X160500000Y-42900000D03*
X160500000Y-45800000D03*
%TD*%
D10*
%TO.C,C2*%
X62382222Y-67150000D03*
X61247222Y-67150000D03*
%TD*%
D14*
%TO.C,R20*%
X85151944Y-59850000D03*
X86346944Y-59850000D03*
%TD*%
D13*
%TO.C,R47*%
X130548889Y-60250000D03*
X128548889Y-60250000D03*
%TD*%
D20*
%TO.C,U4*%
X67140000Y-82600000D03*
X65870000Y-82600000D03*
X64600000Y-82600000D03*
X63330000Y-82600000D03*
X63330000Y-87550000D03*
X64600000Y-87550000D03*
X65870000Y-87550000D03*
X67140000Y-87550000D03*
%TD*%
D14*
%TO.C,R3*%
X37242500Y-59850000D03*
X38437500Y-59850000D03*
%TD*%
D21*
%TO.C,Q43*%
X161150000Y-48400000D03*
X161150000Y-50300000D03*
X164450000Y-49350000D03*
%TD*%
D22*
%TO.C,R56*%
X161300000Y-29500000D03*
X163300000Y-29500000D03*
%TD*%
D14*
%TO.C,R37*%
X109106666Y-59850000D03*
X110301666Y-59850000D03*
%TD*%
D13*
%TO.C,R35*%
X106594167Y-60250000D03*
X104594167Y-60250000D03*
%TD*%
D12*
%TO.C,D17*%
X145586249Y-70613809D03*
X145586249Y-73513809D03*
%TD*%
D10*
%TO.C,C10*%
X134246388Y-67150000D03*
X133111388Y-67150000D03*
%TD*%
D11*
%TO.C,R17*%
X55484723Y-74250000D03*
X52384723Y-74250000D03*
%TD*%
D13*
%TO.C,R9*%
X46707362Y-60250000D03*
X44707362Y-60250000D03*
%TD*%
D21*
%TO.C,Q45*%
X161150000Y-53800000D03*
X161150000Y-55700000D03*
X164450000Y-54750000D03*
%TD*%
D14*
%TO.C,R58*%
X145038749Y-59763809D03*
X146233749Y-59763809D03*
%TD*%
D12*
%TO.C,D1*%
X37790000Y-70700000D03*
X37790000Y-73600000D03*
%TD*%
D23*
%TO.C,R59*%
X151900000Y-38700000D03*
X155000000Y-38700000D03*
%TD*%
D13*
%TO.C,R6*%
X58684723Y-60250000D03*
X56684723Y-60250000D03*
%TD*%
D11*
%TO.C,R31*%
X79439445Y-74250000D03*
X76339445Y-74250000D03*
%TD*%
D24*
%TO.C,R12*%
X73147500Y-86710000D03*
X71952500Y-86710000D03*
%TD*%
D13*
%TO.C,R50*%
X138176250Y-60163809D03*
X136176250Y-60163809D03*
%TD*%
D16*
%TO.C,R16*%
X61554722Y-63352500D03*
X61554722Y-64547500D03*
%TD*%
D13*
%TO.C,R22*%
X66312084Y-60250000D03*
X64312084Y-60250000D03*
%TD*%
D12*
%TO.C,D6*%
X97676805Y-70700000D03*
X97676805Y-73600000D03*
%TD*%
D13*
%TO.C,R1*%
X34730000Y-60250000D03*
X32730000Y-60250000D03*
%TD*%
D19*
%TO.C,R60*%
X156540000Y-48540000D03*
X156540000Y-45440000D03*
%TD*%
D10*
%TO.C,C6*%
X86336944Y-67150000D03*
X85201944Y-67150000D03*
%TD*%
D11*
%TO.C,R43*%
X115371528Y-74250000D03*
X112271528Y-74250000D03*
%TD*%
D13*
%TO.C,R38*%
X114221528Y-60250000D03*
X112221528Y-60250000D03*
%TD*%
D11*
%TO.C,R41*%
X91416806Y-74250000D03*
X88316806Y-74250000D03*
%TD*%
D16*
%TO.C,R14*%
X49577361Y-63352500D03*
X49577361Y-64547500D03*
%TD*%
D25*
%TO.C,R61*%
X156570000Y-50960000D03*
X156570000Y-54060000D03*
%TD*%
D13*
%TO.C,R23*%
X70662084Y-60250000D03*
X68662084Y-60250000D03*
%TD*%
D12*
%TO.C,D5*%
X85699444Y-70700000D03*
X85699444Y-73600000D03*
%TD*%
D13*
%TO.C,R46*%
X118571528Y-60250000D03*
X116571528Y-60250000D03*
%TD*%
D12*
%TO.C,D7*%
X109654166Y-70700000D03*
X109654166Y-73600000D03*
%TD*%
D13*
%TO.C,R36*%
X102244167Y-60250000D03*
X100244167Y-60250000D03*
%TD*%
D26*
%TO.C,D18*%
X100610000Y-92450000D03*
X100610000Y-95750000D03*
%TD*%
D11*
%TO.C,R28*%
X67462084Y-74250000D03*
X64362084Y-74250000D03*
%TD*%
D15*
%TO.C,R64*%
X171150000Y-80700000D03*
X174250000Y-80700000D03*
%TD*%
D14*
%TO.C,R48*%
X133061388Y-59850000D03*
X134256388Y-59850000D03*
%TD*%
D10*
%TO.C,C8*%
X98314305Y-67150000D03*
X97179305Y-67150000D03*
%TD*%
D12*
%TO.C,D2*%
X49767361Y-70700000D03*
X49767361Y-73600000D03*
%TD*%
D27*
%TO.C,Q44*%
X160187500Y-39310000D03*
X160187500Y-37410000D03*
X158312500Y-38360000D03*
%TD*%
D23*
%TO.C,R44*%
X132450000Y-35300000D03*
X135550000Y-35300000D03*
%TD*%
%TO.C,R45*%
X128550000Y-30840000D03*
X131650000Y-30840000D03*
%TD*%
D16*
%TO.C,R4*%
X37600000Y-63352500D03*
X37600000Y-64547500D03*
%TD*%
D15*
%TO.C,R65*%
X171150000Y-84450000D03*
X174250000Y-84450000D03*
%TD*%
D16*
%TO.C,R54*%
X133418888Y-63352500D03*
X133418888Y-64547500D03*
%TD*%
D13*
%TO.C,R33*%
X90266806Y-60250000D03*
X88266806Y-60250000D03*
%TD*%
D12*
%TO.C,D3*%
X61744722Y-70700000D03*
X61744722Y-73600000D03*
%TD*%
D28*
%TO.C,D14*%
X164400000Y-45700000D03*
X164400000Y-42800000D03*
%TD*%
M02*
