G04 #@! TF.GenerationSoftware,KiCad,Pcbnew,8.0.8*
G04 #@! TF.CreationDate,2025-02-08T12:52:21+01:00*
G04 #@! TF.ProjectId,OverlordDimmer,4f766572-6c6f-4726-9444-696d6d65722e,rev?*
G04 #@! TF.SameCoordinates,Original*
G04 #@! TF.FileFunction,Soldermask,Bot*
G04 #@! TF.FilePolarity,Negative*
%FSLAX46Y46*%
G04 Gerber Fmt 4.6, Leading zero omitted, Abs format (unit mm)*
G04 Created by KiCad (PCBNEW 8.0.8) date 2025-02-08 12:52:21*
%MOMM*%
%LPD*%
G01*
G04 APERTURE LIST*
G04 Aperture macros list*
%AMRoundRect*
0 Rectangle with rounded corners*
0 $1 Rounding radius*
0 $2 $3 $4 $5 $6 $7 $8 $9 X,Y pos of 4 corners*
0 Add a 4 corners polygon primitive as box body*
4,1,4,$2,$3,$4,$5,$6,$7,$8,$9,$2,$3,0*
0 Add four circle primitives for the rounded corners*
1,1,$1+$1,$2,$3*
1,1,$1+$1,$4,$5*
1,1,$1+$1,$6,$7*
1,1,$1+$1,$8,$9*
0 Add four rect primitives between the rounded corners*
20,1,$1+$1,$2,$3,$4,$5,0*
20,1,$1+$1,$4,$5,$6,$7,0*
20,1,$1+$1,$6,$7,$8,$9,0*
20,1,$1+$1,$8,$9,$2,$3,0*%
%AMHorizOval*
0 Thick line with rounded ends*
0 $1 width*
0 $2 $3 position (X,Y) of the first rounded end (center of the circle)*
0 $4 $5 position (X,Y) of the second rounded end (center of the circle)*
0 Add line between two ends*
20,1,$1,$2,$3,$4,$5,0*
0 Add two circle primitives to create the rounded ends*
1,1,$1,$2,$3*
1,1,$1,$4,$5*%
%AMRotRect*
0 Rectangle, with rotation*
0 The origin of the aperture is its center*
0 $1 length*
0 $2 width*
0 $3 Rotation angle, in degrees counterclockwise*
0 Add horizontal line*
21,1,$1,$2,0,0,$3*%
G04 Aperture macros list end*
%ADD10R,2.000000X1.905000*%
%ADD11O,2.000000X1.905000*%
%ADD12R,1.700000X1.700000*%
%ADD13RotRect,1.600000X1.600000X225.000000*%
%ADD14HorizOval,1.600000X0.000000X0.000000X0.000000X0.000000X0*%
%ADD15R,1.500000X1.050000*%
%ADD16O,1.500000X1.050000*%
%ADD17R,1.600000X1.600000*%
%ADD18O,1.600000X1.600000*%
%ADD19RotRect,1.700000X1.700000X45.000000*%
%ADD20O,1.700000X1.700000*%
%ADD21R,2.100000X2.100000*%
%ADD22C,2.100000*%
%ADD23C,1.500000*%
%ADD24RoundRect,0.250000X0.400000X-0.650000X0.400000X0.650000X-0.400000X0.650000X-0.400000X-0.650000X0*%
%ADD25O,1.300000X1.800000*%
%ADD26C,3.500000*%
%ADD27C,1.562000*%
%ADD28C,4.877000*%
%ADD29C,1.600000*%
%ADD30C,4.000000*%
G04 APERTURE END LIST*
D10*
X75120284Y-47580000D03*
D11*
X75120284Y-45040000D03*
X75120284Y-42500000D03*
D12*
X82566667Y-79300000D03*
D13*
X65772451Y-47898439D03*
D14*
X63976400Y-46102388D03*
X62180349Y-44306337D03*
X56792195Y-49694490D03*
X58588246Y-51490541D03*
X60384297Y-53286593D03*
D15*
X89561672Y-53700000D03*
D16*
X89561672Y-54970000D03*
X89561672Y-56240000D03*
D17*
X94648061Y-69391250D03*
D18*
X94648061Y-71931250D03*
X94648061Y-74471250D03*
X102268061Y-74471250D03*
X102268061Y-71931250D03*
X102268061Y-69391250D03*
D12*
X153344444Y-79300000D03*
D10*
X118265836Y-47580000D03*
D11*
X118265836Y-45040000D03*
X118265836Y-42500000D03*
D19*
X34545585Y-82254415D03*
D10*
X80220284Y-47580000D03*
D11*
X80220284Y-45040000D03*
X80220284Y-42500000D03*
D10*
X85906672Y-47580000D03*
D11*
X85906672Y-45040000D03*
X85906672Y-42500000D03*
D12*
X112900000Y-79300000D03*
D17*
X137793613Y-69391250D03*
D18*
X137793613Y-71931250D03*
X137793613Y-74471250D03*
X145413613Y-74471250D03*
X145413613Y-71931250D03*
X145413613Y-69391250D03*
D12*
X174000000Y-86000000D03*
D15*
X117740837Y-56240000D03*
D16*
X117740837Y-54970000D03*
X117740837Y-53700000D03*
D10*
X166511388Y-47580000D03*
D11*
X166511388Y-45040000D03*
X166511388Y-42500000D03*
D15*
X100348060Y-53700000D03*
D16*
X100348060Y-54970000D03*
X100348060Y-56240000D03*
D12*
X33800000Y-101320000D03*
D17*
X159366389Y-69391250D03*
D18*
X159366389Y-71931250D03*
X159366389Y-74471250D03*
X166986389Y-74471250D03*
X166986389Y-71931250D03*
X166986389Y-69391250D03*
D10*
X150625000Y-47580000D03*
D11*
X150625000Y-45040000D03*
X150625000Y-42500000D03*
D12*
X35600000Y-48530000D03*
D20*
X35600000Y-45990000D03*
D12*
X143233333Y-79300000D03*
D15*
X171670000Y-64323750D03*
D16*
X171670000Y-63053750D03*
X171670000Y-61783750D03*
D12*
X144300000Y-88200000D03*
D15*
X78775284Y-53700000D03*
D16*
X78775284Y-54970000D03*
X78775284Y-56240000D03*
D15*
X132707224Y-53700000D03*
D16*
X132707224Y-54970000D03*
X132707224Y-56240000D03*
D17*
X170150000Y-77475000D03*
D18*
X170150000Y-80015000D03*
X170150000Y-82555000D03*
X177770000Y-82555000D03*
X177770000Y-80015000D03*
X177770000Y-77475000D03*
D12*
X136400000Y-88600000D03*
D20*
X133860000Y-88600000D03*
D10*
X177295000Y-55663750D03*
D11*
X177295000Y-53123750D03*
X177295000Y-50583750D03*
D21*
X176694999Y-35550000D03*
D22*
X171614999Y-35550000D03*
X166534999Y-35550000D03*
X161454999Y-35550000D03*
X156374999Y-35550000D03*
X151294999Y-35550000D03*
X146214999Y-35550000D03*
X141134999Y-35550000D03*
X136054999Y-35550000D03*
D17*
X127007225Y-69391250D03*
D18*
X127007225Y-71931250D03*
X127007225Y-74471250D03*
X134627225Y-74471250D03*
X134627225Y-71931250D03*
X134627225Y-69391250D03*
D23*
X68380000Y-95480000D03*
X85950000Y-95480000D03*
D24*
X70180000Y-94000000D03*
D25*
X71450000Y-91460000D03*
X72720000Y-94000000D03*
X73990000Y-91460000D03*
X75259999Y-94000000D03*
X76530000Y-91460000D03*
X77800000Y-94000000D03*
X79070000Y-91460000D03*
X80340000Y-94000000D03*
X81610000Y-91460000D03*
X82880000Y-94000000D03*
X84150000Y-91460000D03*
D17*
X83861673Y-69391250D03*
D18*
X83861673Y-71931250D03*
X83861673Y-74471250D03*
X91481673Y-74471250D03*
X91481673Y-71931250D03*
X91481673Y-69391250D03*
D12*
X42600000Y-46025000D03*
D20*
X42600000Y-48565000D03*
D15*
X165066388Y-53700000D03*
D16*
X165066388Y-54970000D03*
X165066388Y-56240000D03*
D10*
X172195000Y-55663750D03*
D11*
X172195000Y-53123750D03*
X172195000Y-50583750D03*
D12*
X102788889Y-79300000D03*
D10*
X96693060Y-47580000D03*
D11*
X96693060Y-45040000D03*
X96693060Y-42500000D03*
D26*
X33960000Y-93450000D03*
D10*
X123365836Y-47580000D03*
D11*
X123365836Y-45040000D03*
X123365836Y-42500000D03*
D17*
X148580001Y-69391250D03*
D18*
X148580001Y-71931250D03*
X148580001Y-74471250D03*
X156200001Y-74471250D03*
X156200001Y-71931250D03*
X156200001Y-69391250D03*
D12*
X123011111Y-79300000D03*
X63299999Y-93600000D03*
D15*
X85381673Y-56240000D03*
D16*
X85381673Y-54970000D03*
X85381673Y-53700000D03*
D17*
X116220837Y-69391250D03*
D18*
X116220837Y-71931250D03*
X116220837Y-74471250D03*
X123840837Y-74471250D03*
X123840837Y-71931250D03*
X123840837Y-69391250D03*
D10*
X91006672Y-47580000D03*
D11*
X91006672Y-45040000D03*
X91006672Y-42500000D03*
D15*
X128527225Y-56240000D03*
D16*
X128527225Y-54970000D03*
X128527225Y-53700000D03*
D15*
X150100001Y-56240000D03*
D16*
X150100001Y-54970000D03*
X150100001Y-53700000D03*
D10*
X101793060Y-47580000D03*
D11*
X101793060Y-45040000D03*
X101793060Y-42500000D03*
D19*
X66100000Y-59000000D03*
D10*
X134152224Y-47580000D03*
D11*
X134152224Y-45040000D03*
X134152224Y-42500000D03*
D12*
X163455555Y-79300000D03*
D10*
X107479448Y-47580000D03*
D11*
X107479448Y-45040000D03*
X107479448Y-42500000D03*
D21*
X123900000Y-35550000D03*
D22*
X118820000Y-35550000D03*
X113740000Y-35550000D03*
X108660000Y-35550000D03*
X103580000Y-35550000D03*
X98500000Y-35550000D03*
X93420000Y-35550000D03*
X88340000Y-35550000D03*
X83260000Y-35550000D03*
D15*
X111134448Y-53700000D03*
D16*
X111134448Y-54970000D03*
X111134448Y-56240000D03*
D26*
X171960000Y-43450000D03*
D19*
X32000000Y-84800000D03*
D10*
X112579448Y-47580000D03*
D11*
X112579448Y-45040000D03*
X112579448Y-42500000D03*
D17*
X73075285Y-69391250D03*
D18*
X73075285Y-71931250D03*
X73075285Y-74471250D03*
X80695285Y-74471250D03*
X80695285Y-71931250D03*
X80695285Y-69391250D03*
D15*
X74595285Y-56240000D03*
D16*
X74595285Y-54970000D03*
X74595285Y-53700000D03*
D27*
X110156001Y-94355000D03*
X107413000Y-94355000D03*
X104670001Y-94354999D03*
X101927002Y-94355000D03*
X99184001Y-94355000D03*
X108785001Y-97200000D03*
X106042001Y-97200000D03*
X103298001Y-97200000D03*
X100555001Y-97200000D03*
D28*
X117167001Y-95778000D03*
X92173001Y-95778000D03*
D10*
X161411388Y-47580000D03*
D11*
X161411388Y-45040000D03*
X161411388Y-42500000D03*
D15*
X160886389Y-56240000D03*
D16*
X160886389Y-54970000D03*
X160886389Y-53700000D03*
D15*
X121920836Y-53700000D03*
D16*
X121920836Y-54970000D03*
X121920836Y-56240000D03*
D15*
X96168061Y-56240000D03*
D16*
X96168061Y-54970000D03*
X96168061Y-53700000D03*
D27*
X160086000Y-94355000D03*
X157342999Y-94355000D03*
X154600000Y-94354999D03*
X151857001Y-94355000D03*
X149114000Y-94355000D03*
X158715000Y-97200000D03*
X155972000Y-97200000D03*
X153228000Y-97200000D03*
X150485000Y-97200000D03*
D28*
X167097000Y-95778000D03*
X142103000Y-95778000D03*
D15*
X106954449Y-56240000D03*
D16*
X106954449Y-54970000D03*
X106954449Y-53700000D03*
D17*
X47350000Y-96412500D03*
D29*
X44850000Y-96412500D03*
X44850000Y-98412500D03*
X47350000Y-98412500D03*
D30*
X52100000Y-101272500D03*
X40100000Y-101272500D03*
D10*
X155725000Y-47580000D03*
D11*
X155725000Y-45040000D03*
X155725000Y-42500000D03*
D12*
X133122222Y-79300000D03*
D10*
X129052224Y-47580000D03*
D11*
X129052224Y-45040000D03*
X129052224Y-42500000D03*
D12*
X92677778Y-79300000D03*
D15*
X175850000Y-61783750D03*
D16*
X175850000Y-63053750D03*
X175850000Y-64323750D03*
D15*
X154280000Y-53700000D03*
D16*
X154280000Y-54970000D03*
X154280000Y-56240000D03*
D15*
X143493612Y-53700000D03*
D16*
X143493612Y-54970000D03*
X143493612Y-56240000D03*
D10*
X139838612Y-47580000D03*
D11*
X139838612Y-45040000D03*
X139838612Y-42500000D03*
D10*
X144938612Y-47580000D03*
D11*
X144938612Y-45040000D03*
X144938612Y-42500000D03*
D17*
X105434449Y-69391250D03*
D18*
X105434449Y-71931250D03*
X105434449Y-74471250D03*
X113054449Y-74471250D03*
X113054449Y-71931250D03*
X113054449Y-69391250D03*
D15*
X139313613Y-56240000D03*
D16*
X139313613Y-54970000D03*
X139313613Y-53700000D03*
D12*
X59700000Y-93600000D03*
M02*
