G04 #@! TF.GenerationSoftware,KiCad,Pcbnew,8.0.8*
G04 #@! TF.CreationDate,2025-02-08T12:52:21+01:00*
G04 #@! TF.ProjectId,OverlordDimmer,4f766572-6c6f-4726-9444-696d6d65722e,rev?*
G04 #@! TF.SameCoordinates,Original*
G04 #@! TF.FileFunction,Paste,Top*
G04 #@! TF.FilePolarity,Positive*
%FSLAX46Y46*%
G04 Gerber Fmt 4.6, Leading zero omitted, Abs format (unit mm)*
G04 Created by KiCad (PCBNEW 8.0.8) date 2025-02-08 12:52:21*
%MOMM*%
%LPD*%
G01*
G04 APERTURE LIST*
G04 Aperture macros list*
%AMRoundRect*
0 Rectangle with rounded corners*
0 $1 Rounding radius*
0 $2 $3 $4 $5 $6 $7 $8 $9 X,Y pos of 4 corners*
0 Add a 4 corners polygon primitive as box body*
4,1,4,$2,$3,$4,$5,$6,$7,$8,$9,$2,$3,0*
0 Add four circle primitives for the rounded corners*
1,1,$1+$1,$2,$3*
1,1,$1+$1,$4,$5*
1,1,$1+$1,$6,$7*
1,1,$1+$1,$8,$9*
0 Add four rect primitives between the rounded corners*
20,1,$1+$1,$2,$3,$4,$5,0*
20,1,$1+$1,$4,$5,$6,$7,0*
20,1,$1+$1,$6,$7,$8,$9,0*
20,1,$1+$1,$8,$9,$2,$3,0*%
%AMRotRect*
0 Rectangle, with rotation*
0 The origin of the aperture is its center*
0 $1 length*
0 $2 width*
0 $3 Rotation angle, in degrees counterclockwise*
0 Add horizontal line*
21,1,$1,$2,0,0,$3*%
G04 Aperture macros list end*
%ADD10RoundRect,0.250000X-0.350000X-0.450000X0.350000X-0.450000X0.350000X0.450000X-0.350000X0.450000X0*%
%ADD11RoundRect,0.250000X0.475000X-0.337500X0.475000X0.337500X-0.475000X0.337500X-0.475000X-0.337500X0*%
%ADD12RoundRect,0.250000X-0.450000X0.350000X-0.450000X-0.350000X0.450000X-0.350000X0.450000X0.350000X0*%
%ADD13RoundRect,0.250000X0.350000X0.450000X-0.350000X0.450000X-0.350000X-0.450000X0.350000X-0.450000X0*%
%ADD14RoundRect,0.250000X0.450000X-0.350000X0.450000X0.350000X-0.450000X0.350000X-0.450000X-0.350000X0*%
%ADD15RoundRect,0.250000X0.412500X1.100000X-0.412500X1.100000X-0.412500X-1.100000X0.412500X-1.100000X0*%
%ADD16RoundRect,0.250000X0.262500X0.450000X-0.262500X0.450000X-0.262500X-0.450000X0.262500X-0.450000X0*%
%ADD17RoundRect,0.250000X-0.400000X-0.450000X0.400000X-0.450000X0.400000X0.450000X-0.400000X0.450000X0*%
%ADD18RoundRect,0.250000X-0.262500X-0.450000X0.262500X-0.450000X0.262500X0.450000X-0.262500X0.450000X0*%
%ADD19RoundRect,0.250000X0.400000X0.450000X-0.400000X0.450000X-0.400000X-0.450000X0.400000X-0.450000X0*%
%ADD20RoundRect,0.250000X0.337500X0.475000X-0.337500X0.475000X-0.337500X-0.475000X0.337500X-0.475000X0*%
%ADD21RoundRect,0.250000X-0.325000X-0.450000X0.325000X-0.450000X0.325000X0.450000X-0.325000X0.450000X0*%
%ADD22R,0.650000X1.050000*%
%ADD23R,0.740000X2.790000*%
%ADD24RoundRect,0.250000X0.574524X0.097227X0.097227X0.574524X-0.574524X-0.097227X-0.097227X-0.574524X0*%
%ADD25RoundRect,0.250000X-0.450000X0.325000X-0.450000X-0.325000X0.450000X-0.325000X0.450000X0.325000X0*%
%ADD26RoundRect,0.375000X0.625000X0.375000X-0.625000X0.375000X-0.625000X-0.375000X0.625000X-0.375000X0*%
%ADD27RoundRect,0.500000X0.500000X1.400000X-0.500000X1.400000X-0.500000X-1.400000X0.500000X-1.400000X0*%
%ADD28RoundRect,0.200000X-0.200000X0.700000X-0.200000X-0.700000X0.200000X-0.700000X0.200000X0.700000X0*%
%ADD29RoundRect,0.250000X-0.475000X0.337500X-0.475000X-0.337500X0.475000X-0.337500X0.475000X0.337500X0*%
%ADD30RoundRect,0.150000X0.521491X-0.309359X-0.309359X0.521491X-0.521491X0.309359X0.309359X-0.521491X0*%
%ADD31RoundRect,0.250000X-0.337500X-0.475000X0.337500X-0.475000X0.337500X0.475000X-0.337500X0.475000X0*%
%ADD32RoundRect,0.250000X-0.565685X-0.070711X-0.070711X-0.565685X0.565685X0.070711X0.070711X0.565685X0*%
%ADD33RotRect,1.500000X0.900000X45.000000*%
%ADD34RotRect,1.500000X0.900000X135.000000*%
%ADD35RotRect,1.500000X0.900000X225.000000*%
%ADD36RotRect,0.900000X0.900000X225.000000*%
%ADD37R,0.450000X1.475000*%
%ADD38R,0.910000X0.910000*%
%ADD39R,0.460000X0.910000*%
%ADD40RoundRect,0.250000X-0.070711X0.565685X-0.565685X0.070711X0.070711X-0.565685X0.565685X-0.070711X0*%
%ADD41RoundRect,0.250000X0.325000X0.450000X-0.325000X0.450000X-0.325000X-0.450000X0.325000X-0.450000X0*%
%ADD42RoundRect,0.150000X-0.825000X-0.150000X0.825000X-0.150000X0.825000X0.150000X-0.825000X0.150000X0*%
G04 APERTURE END LIST*
D10*
X99248060Y-62516250D03*
X101248060Y-62516250D03*
D11*
X64100000Y-106137500D03*
X64100000Y-104062500D03*
D12*
X84800000Y-100490000D03*
X84800000Y-102490000D03*
X82600000Y-100490000D03*
X82600000Y-102490000D03*
D13*
X173750000Y-89650000D03*
X171750000Y-89650000D03*
D14*
X172450000Y-68923750D03*
X172450000Y-66923750D03*
X107734448Y-60840000D03*
X107734448Y-58840000D03*
D15*
X102170560Y-59570000D03*
X99045560Y-59570000D03*
D13*
X173750000Y-92950000D03*
X171750000Y-92950000D03*
X173750000Y-96450000D03*
X171750000Y-96450000D03*
D16*
X170712500Y-86400000D03*
X168887500Y-86400000D03*
D17*
X88711672Y-64916250D03*
X91611672Y-64916250D03*
D18*
X167687500Y-89900000D03*
X169512500Y-89900000D03*
D13*
X118020837Y-66616250D03*
X116020837Y-66616250D03*
D19*
X70450000Y-43500000D03*
X67550000Y-43500000D03*
D14*
X161666388Y-60840000D03*
X161666388Y-58840000D03*
D20*
X71037500Y-106200000D03*
X68962500Y-106200000D03*
D21*
X163875000Y-82100000D03*
X165925000Y-82100000D03*
X175570001Y-89605000D03*
X177619999Y-89605000D03*
D22*
X32105000Y-45753333D03*
X32105000Y-49903333D03*
X29955000Y-45753333D03*
X29955000Y-49903333D03*
D15*
X156102500Y-59570000D03*
X152977500Y-59570000D03*
D20*
X74937500Y-106200000D03*
X72862500Y-106200000D03*
D23*
X48370000Y-34093333D03*
X48370000Y-38163333D03*
X47100000Y-34093333D03*
X47100000Y-38163333D03*
X45830000Y-34093333D03*
X45830000Y-38163333D03*
X44560000Y-34093333D03*
X44560000Y-38163333D03*
X43290000Y-34093333D03*
X43290000Y-38163333D03*
D12*
X148480001Y-58840000D03*
X148480001Y-60840000D03*
D24*
X39100000Y-63977713D03*
X37632754Y-62510467D03*
D10*
X129060000Y-88700000D03*
X131060000Y-88700000D03*
D13*
X150180001Y-64316250D03*
X148180001Y-64316250D03*
D15*
X112956948Y-59570000D03*
X109831948Y-59570000D03*
D17*
X142643612Y-64916250D03*
X145543612Y-64916250D03*
D25*
X148600000Y-87275000D03*
X148600000Y-89325000D03*
D21*
X62950000Y-34200000D03*
X65000000Y-34200000D03*
D12*
X87000000Y-100490000D03*
X87000000Y-102490000D03*
D13*
X171750000Y-72400000D03*
X169750000Y-72400000D03*
D26*
X165250000Y-89200000D03*
X165249999Y-86900000D03*
D27*
X158950001Y-86900000D03*
D26*
X165250000Y-84600000D03*
D12*
X94548061Y-58840000D03*
X94548061Y-60840000D03*
D28*
X73300000Y-32600000D03*
X71400000Y-32600000D03*
X72350000Y-35900000D03*
D17*
X131857224Y-64916250D03*
X134757224Y-64916250D03*
D13*
X107034449Y-64316250D03*
X105034449Y-64316250D03*
D17*
X121070836Y-64916250D03*
X123970836Y-64916250D03*
D21*
X175620001Y-92955000D03*
X177669999Y-92955000D03*
D13*
X161166389Y-66616250D03*
X159166389Y-66616250D03*
D17*
X77925284Y-64916250D03*
X80825284Y-64916250D03*
D10*
X88461672Y-62516250D03*
X90461672Y-62516250D03*
D29*
X150800000Y-87262500D03*
X150800000Y-89337500D03*
D17*
X153430000Y-64916250D03*
X156330000Y-64916250D03*
D10*
X77675284Y-62516250D03*
X79675284Y-62516250D03*
X163966388Y-62516250D03*
X165966388Y-62516250D03*
D14*
X96948060Y-60840000D03*
X96948060Y-58840000D03*
D13*
X85461673Y-64316250D03*
X83461673Y-64316250D03*
D15*
X80597784Y-59570000D03*
X77472784Y-59570000D03*
D12*
X137693613Y-58840000D03*
X137693613Y-60840000D03*
D21*
X54914999Y-33800000D03*
X56964999Y-33800000D03*
D15*
X91384172Y-59570000D03*
X88259172Y-59570000D03*
D30*
X57091161Y-44734664D03*
X58434664Y-43391161D03*
X56437087Y-42737087D03*
D13*
X77400000Y-30200000D03*
X75400000Y-30200000D03*
D10*
X110034448Y-62516250D03*
X112034448Y-62516250D03*
D31*
X37062500Y-53400000D03*
X39137500Y-53400000D03*
X60552500Y-96730000D03*
X62627500Y-96730000D03*
D12*
X105334449Y-58840000D03*
X105334449Y-60840000D03*
D14*
X140093612Y-60840000D03*
X140093612Y-58840000D03*
D32*
X58892893Y-40292893D03*
X60307107Y-41707107D03*
D33*
X37799907Y-71926357D03*
X38697932Y-72824383D03*
X39595958Y-73722409D03*
X40493983Y-74620434D03*
X41392009Y-75518460D03*
X42290035Y-76416485D03*
X43188060Y-77314511D03*
X44086086Y-78212537D03*
X44984112Y-79110562D03*
X45882137Y-80008588D03*
X46780163Y-80906613D03*
X47678188Y-81804639D03*
X48576214Y-82702665D03*
X49474240Y-83600690D03*
D34*
X51606167Y-83236530D03*
X52504192Y-82338505D03*
X53402218Y-81440479D03*
X54300243Y-80542453D03*
X55198269Y-79644428D03*
X56096295Y-78746402D03*
X56994320Y-77848377D03*
X57892346Y-76950351D03*
X58790371Y-76052325D03*
X59688397Y-75154300D03*
X60586423Y-74256274D03*
X61484448Y-73358249D03*
D35*
X61848608Y-71226322D03*
X60950583Y-70328296D03*
X60052557Y-69430270D03*
X59154531Y-68532245D03*
X58256506Y-67634219D03*
X57358480Y-66736194D03*
X56460455Y-65838168D03*
X55562429Y-64940142D03*
X54664403Y-64042117D03*
X53766378Y-63144091D03*
X52868352Y-62246065D03*
X51970327Y-61348040D03*
X51072301Y-60450014D03*
X50174275Y-59551989D03*
D36*
X46405396Y-72258698D03*
X47395346Y-73248647D03*
X48385295Y-74238596D03*
X47395346Y-71268748D03*
X48385295Y-72258698D03*
X49375245Y-73248647D03*
X48385295Y-70278799D03*
X49375245Y-71268748D03*
X50365194Y-72258698D03*
D14*
X35500000Y-59500000D03*
X35500000Y-57500000D03*
D21*
X62375000Y-37800000D03*
X64425000Y-37800000D03*
D24*
X40500000Y-62577713D03*
X39032754Y-61110467D03*
D13*
X64900000Y-30700000D03*
X62900000Y-30700000D03*
D10*
X174750000Y-70600000D03*
X176750000Y-70600000D03*
D14*
X75375284Y-60840000D03*
X75375284Y-58840000D03*
D10*
X142393612Y-62516250D03*
X144393612Y-62516250D03*
D13*
X107234449Y-66616250D03*
X105234449Y-66616250D03*
D17*
X164216388Y-64916250D03*
X167116388Y-64916250D03*
D11*
X124700000Y-95637500D03*
X124700000Y-93562500D03*
D14*
X129307224Y-60840000D03*
X129307224Y-58840000D03*
D17*
X99498060Y-64916250D03*
X102398060Y-64916250D03*
D12*
X126907225Y-58840000D03*
X126907225Y-60840000D03*
D17*
X110284448Y-64916250D03*
X113184448Y-64916250D03*
D14*
X118520836Y-60840000D03*
X118520836Y-58840000D03*
D13*
X96448061Y-66616250D03*
X94448061Y-66616250D03*
X73350000Y-30200000D03*
X71350000Y-30200000D03*
D15*
X145316112Y-59570000D03*
X142191112Y-59570000D03*
D13*
X171950000Y-74700000D03*
X169950000Y-74700000D03*
D15*
X166888888Y-59570000D03*
X163763888Y-59570000D03*
D14*
X134600000Y-93700000D03*
X134600000Y-91700000D03*
D37*
X67825000Y-104038000D03*
X68475000Y-104038000D03*
X69125000Y-104038000D03*
X69775000Y-104038000D03*
X70425000Y-104038000D03*
X71075000Y-104038000D03*
X71725000Y-104038000D03*
X72375000Y-104038000D03*
X72375000Y-98162000D03*
X71725000Y-98162000D03*
X71075000Y-98162000D03*
X70425000Y-98162000D03*
X69775000Y-98162000D03*
X69125000Y-98162000D03*
X68475000Y-98162000D03*
X67825000Y-98162000D03*
D38*
X41240000Y-92850000D03*
D39*
X42960000Y-92850000D03*
X42960000Y-90550000D03*
X41040000Y-90550000D03*
D13*
X139593613Y-66616250D03*
X137593613Y-66616250D03*
D15*
X134529724Y-59570000D03*
X131404724Y-59570000D03*
D40*
X66407107Y-53632893D03*
X64992893Y-55047107D03*
D17*
X175000000Y-73000000D03*
X177900000Y-73000000D03*
D23*
X34880000Y-34010000D03*
X34880000Y-38080000D03*
X33610000Y-34010000D03*
X33610000Y-38080000D03*
X32340000Y-34010000D03*
X32340000Y-38080000D03*
D12*
X170050000Y-66923750D03*
X170050000Y-68923750D03*
X55170000Y-36700000D03*
X55170000Y-38700000D03*
D13*
X85661673Y-66616250D03*
X83661673Y-66616250D03*
D31*
X63262500Y-40900000D03*
X65337500Y-40900000D03*
D10*
X131607224Y-62516250D03*
X133607224Y-62516250D03*
D11*
X59300000Y-36537500D03*
X59300000Y-34462500D03*
D14*
X86161672Y-60840000D03*
X86161672Y-58840000D03*
D25*
X67500000Y-32175000D03*
X67500000Y-34225000D03*
D11*
X64100000Y-102137500D03*
X64100000Y-100062500D03*
D10*
X153180000Y-62516250D03*
X155180000Y-62516250D03*
D29*
X154600000Y-87662500D03*
X154600000Y-89737500D03*
D13*
X150380001Y-66616250D03*
X148380001Y-66616250D03*
D12*
X159266389Y-58840000D03*
X159266389Y-60840000D03*
D13*
X96248061Y-64316250D03*
X94248061Y-64316250D03*
X160966389Y-64316250D03*
X158966389Y-64316250D03*
D22*
X29950000Y-57700000D03*
X29950000Y-53550000D03*
X32100000Y-57700000D03*
X32100000Y-53550000D03*
D12*
X116120837Y-58840000D03*
X116120837Y-60840000D03*
D13*
X117820837Y-64316250D03*
X115820837Y-64316250D03*
D41*
X56925000Y-28400000D03*
X54875000Y-28400000D03*
D12*
X83761673Y-58840000D03*
X83761673Y-60840000D03*
D13*
X128607225Y-64316250D03*
X126607225Y-64316250D03*
D42*
X127325000Y-92695000D03*
X127325000Y-93965000D03*
X127325000Y-95235000D03*
X127325000Y-96505000D03*
X132275000Y-96505000D03*
X132275000Y-95235000D03*
X132275000Y-93965000D03*
X132275000Y-92695000D03*
D15*
X177672500Y-67653750D03*
X174547500Y-67653750D03*
D10*
X120820836Y-62516250D03*
X122820836Y-62516250D03*
D14*
X150880000Y-60840000D03*
X150880000Y-58840000D03*
D21*
X175620001Y-96455000D03*
X177669999Y-96455000D03*
D20*
X31537500Y-61900000D03*
X29462500Y-61900000D03*
D13*
X74675285Y-64316250D03*
X72675285Y-64316250D03*
D12*
X72975285Y-58840000D03*
X72975285Y-60840000D03*
D13*
X74875285Y-66616250D03*
X72875285Y-66616250D03*
D15*
X123743336Y-59570000D03*
X120618336Y-59570000D03*
D19*
X70350000Y-39300000D03*
X67450000Y-39300000D03*
D13*
X139393613Y-64316250D03*
X137393613Y-64316250D03*
X61170000Y-28400000D03*
X59170000Y-28400000D03*
D25*
X154600000Y-83775000D03*
X154600000Y-85825000D03*
D28*
X77400000Y-32600000D03*
X75500000Y-32600000D03*
X76450000Y-35900000D03*
D41*
X61025000Y-30700000D03*
X58975000Y-30700000D03*
D13*
X128807225Y-66616250D03*
X126807225Y-66616250D03*
D31*
X47362500Y-93200000D03*
X49437500Y-93200000D03*
M02*
